<svg width="27" height="19" viewBox="0 0 27 19" fill="none" xmlns="http://www.w3.org/2000/svg">
<circle cx="18.1955" cy="9.50015" r="8.30435" stroke="white"/>
<path d="M4.37114e-08 9.58691C-0.276142 9.58691 -0.5 9.81077 -0.5 10.0869C-0.5 10.3631 -0.276142 10.5869 -4.37114e-08 10.5869L4.37114e-08 9.58691ZM21.484 10.4405C21.6792 10.2452 21.6792 9.92862 21.484 9.73336L18.302 6.55138C18.1067 6.35612 17.7902 6.35612 17.5949 6.55138C17.3996 6.74664 17.3996 7.06323 17.5949 7.25849L20.4233 10.0869L17.5949 12.9153C17.3996 13.1106 17.3996 13.4272 17.5949 13.6224C17.7902 13.8177 18.1067 13.8177 18.302 13.6224L21.484 10.4405ZM-4.37114e-08 10.5869L21.1304 10.5869L21.1304 9.58692L4.37114e-08 9.58691L-4.37114e-08 10.5869Z" fill="white"/>
</svg>
