<svg width="879" height="189" viewBox="0 0 879 189" fill="none" xmlns="http://www.w3.org/2000/svg">
<path opacity="0.06" d="M380.685 146.701L384.66 149.637C378.664 151.993 375.282 150.13 378.627 153.808C380.617 146.796 395.862 156.293 397.875 149.176L400.48 151.196C399.642 151.008 399.459 151.409 398.633 151.169C403.604 155.654 403.827 146.809 410.92 149.063C413.328 150.1 415.013 151.473 412.992 152.014L418.998 151.262C420.63 151.628 419.938 152.854 418.362 152.445L427.088 153.408C429.06 152.313 431.093 151.402 433.167 150.683C435.16 152.124 431.919 151.287 432.304 152.257L437.416 151.36C439.012 153.541 434.726 154.679 431.485 153.841C434.572 161.771 435.771 152.703 444.606 158.552L439.947 158.668C442.074 163.233 445.88 162.374 450.534 165.794C449.538 164.244 441.477 157.63 447.01 156.716C448.922 157.818 451.182 157.968 453.31 157.135C452.744 159.66 455.688 159.546 459.168 159.94L458.401 163.359C462.289 162.961 462.314 161.198 464.753 160.033C466.075 160.246 467.274 160.951 468.177 162.047C469.08 163.142 469.641 164.573 469.779 166.132C476.352 167.607 465.964 161.244 473.958 161.545C479.192 163.234 484.798 163.353 490.282 161.892C493.919 163.647 489.237 163.867 490.448 165.078L494.373 162.864C495.167 163.043 494.758 163.835 494.563 164.288C497.626 163.649 495.33 160.869 500.013 160.649C501.865 157.142 508.391 167.5 514.703 163.944C515.925 165.102 513.701 165.929 513.947 167.31C518.658 166.692 523.324 165.342 527.821 163.295L532.846 166.301C529.283 163.181 534.858 160.84 539.674 158.992C538.466 157.561 537.399 156.328 536.711 155.676L544.036 154.833C544.812 155.504 543.923 156.575 542.522 157.863L543.704 157.963C545.983 159.579 544.376 161.373 542.26 163.164L540.026 160.729C537.954 162.529 535.956 164.622 536.016 166.625C536.803 166.258 537.633 166.069 538.458 166.068C537.931 166.557 537.548 167.024 537.742 167.399C537.936 167.774 538.775 167.133 540.046 166.424L541.052 170.406L541.703 168.95L550.592 172.491C557.815 169.415 564.422 164.543 575.158 164.189C572.147 166.663 573.922 168.663 573.411 171.974C571.031 168.125 565.052 172.475 559.706 171.11C562.529 171.743 561.666 173.317 560.862 173.8L571.047 171.775C570.445 174.458 572.851 174.058 575.221 175.474C574.107 169.699 582.99 172.852 587.191 171.474C587.199 173.299 585.968 175.067 581.181 174.103C585.984 178.717 588.958 168.555 593.738 172.445C592.591 172.188 591.974 172.049 591.364 172.907C594.348 171.587 600.914 173.502 599.172 174.658L598.07 174.411C605.816 175.817 621.998 176.795 623.698 172.314C623.158 174.494 622.389 176.605 621.409 178.596L637.318 164.265C635.628 168.084 639.254 177.737 632.47 179.475C635.04 180.602 637.905 180.743 640.673 179.879C639.433 179.214 638.148 173.787 639.907 173.795C642.438 176.516 645.321 178.763 648.464 180.466C646.641 179.505 649.469 173.509 652.483 173.909C651.906 174.829 652.044 179.998 650.985 180.589L659.171 175.078C657.2 176.017 658.256 180.397 659.805 181.96C659.135 180.815 666.382 182.386 668.435 181.907L665.359 180.333C673.871 181.634 674.676 172.257 683.097 172.931C681.952 174.11 679.827 180.484 684.106 181.444C686.361 178.414 694.175 167.128 701.717 164.897L702.987 166.674L708.888 164.738C702.581 171.479 695.648 177.346 688.244 182.206C691.32 183.78 688.922 184.348 693.778 184.387C695.292 186.108 690.924 186.785 689.485 186.794L700.626 188.354C700.423 184.717 709.526 184.825 709.313 181.849C705.171 182.965 700.982 184.29 696.819 185.29C696.636 181.768 704.702 175.346 712.57 176.005C714.463 177.48 710.577 182.409 710.859 183.633C713.532 182.208 716.448 181.727 719.231 182.251L715.753 184.123C720.07 185.533 723.285 179.459 728.38 182.977C730.145 183.373 733.536 187.669 734.02 185.513C732.786 182.511 732.132 179.186 732.102 175.76C732.071 172.334 732.665 168.884 733.844 165.639C737.748 167.268 741.515 169.258 745.112 171.592C747.966 174.774 740.124 179.368 742.752 182.112C742.965 181.166 744.686 179.894 745.377 179.497C747.28 180.31 744.417 182.541 748.65 182.054C749.475 178.372 757.156 182.139 750.796 178.889C754.938 177.774 755.207 179.878 759.972 179.29C758.544 176.981 764.666 171.171 768.772 170.214C768.56 171.161 769.318 172.325 769.753 172.865C778.092 173.078 782.529 174.57 790.368 174.119C791.064 174.938 794.638 175.739 793.142 177.448C794.514 176.244 796.111 175.475 797.764 175.225C802.404 178.089 792.399 176.011 795.856 179.604C796.328 177.5 802.196 176.33 805.647 174.784C804.652 171.577 797.718 174.607 794.223 176.144C794.352 171.642 800.464 166.494 808.619 164.014C815.067 162.532 811.335 166.778 812.462 166.091C824.618 166.221 822.894 157.382 832.952 159.638C837.021 162.153 833.14 165.204 834.018 167.28C828.74 168.914 825.912 166.235 822.332 166.703L826.744 167.692C824.505 169.088 821.994 169.63 819.587 169.236C822.974 171.488 840.174 167.721 849.611 169.231C851.297 168.117 854.137 166.82 852.746 165.79L849.804 166.511C847.023 164.451 855.277 162.767 851.548 162.041C855.888 159.174 860.706 157.627 865.528 157.552L866.635 160.673C866.515 159.763 862.971 159.244 861.406 160.44C863.698 158.689 869.945 163.681 872.51 159.063L868.54 157.344C872.498 155.193 877.28 151.017 882.241 151.412C879.893 148.454 881.106 151.93 877.49 148.633C880.661 152.88 864.868 150.167 869.898 154.389C866.136 150.506 863.628 153.424 858.859 150.311C859.044 151.347 860.558 152.239 856.423 152.085C856.174 152.472 855.878 152.816 855.545 153.103C856.368 153.334 857.105 153.824 857.683 154.522C855.687 157.223 849.074 157.784 846.841 159.272C844.415 158.728 847.889 157.905 846.498 156.875L843.215 159.122C842.816 156.767 836.646 155.77 842.415 153.804L837.176 154.232C834.041 153.092 830.614 153.112 827.34 154.291C824.914 153.746 821.1 157.532 823.275 155.478C820.554 156.249 817.812 156.905 815.07 157.56L815.2 156.982C807.144 157.164 798.482 161.906 789.375 158.095C786.076 159.243 782.666 159.642 779.336 159.269L778.502 157.203C774.983 158.016 768.161 155.381 766.56 157.563C763.163 152.05 749.745 156.72 743.772 155.877L743.182 158.507C738.646 158.538 734.09 159.07 729.574 160.096L729.773 162.516C725.077 164.446 718.283 160.657 711.112 160.817C711.689 159.896 713.477 160.187 714.697 160.737C706.641 155.339 696.414 164.371 689.052 160.012C688.292 160.345 687.494 160.499 686.705 160.464C685.917 160.43 685.154 160.208 684.464 159.812L684.905 159.911L684.156 159.743C683.332 159.282 682.521 158.768 681.597 158.34C682.237 158.913 682.94 159.386 683.691 159.749C681.693 159.726 679.683 159.96 677.696 160.448L676.992 157.804L676.507 157.696C674.463 156.685 674.676 158.832 675.799 160.852C674.738 161.188 673.708 161.681 672.736 162.319C671.412 158.1 666.779 163.469 664.885 158.901C663.163 161.001 653.61 159.797 651.966 164.235C652.084 163.709 651.337 163.321 652.531 163.367C650.283 162.394 647.778 162.296 645.367 163.086L644.716 159.791L638.772 163.983C635.749 161.758 634.55 160.494 638.055 158.297C629.811 161.586 631.58 159.276 624.431 162.645L624.903 160.541C622.526 160.394 618.354 162.884 617.152 161.012C612.393 156.409 590.986 158.071 578.006 152.729C579.696 159.24 572.081 149.19 570.875 153.947C570.3 152.381 568.501 151.315 570.904 150.307C563.771 150.917 560.865 146.729 555.495 150.221C554.919 148.655 557.282 148.246 556.709 147.289C556.141 147.548 554.349 148.306 553.776 147.349C553.203 146.392 554.953 146.232 556.133 145.723C549.083 145.136 547.675 149.351 546.451 153.772C545.426 152.579 544.027 151.912 542.529 151.903C541.031 151.894 539.542 152.544 538.354 153.724C537.314 152.165 535.479 150.427 539.947 150.546C537.521 150.001 525.214 146.412 524.415 149.769C523.798 148.802 521.018 149.007 520.294 149.342C516.536 148.496 512.72 147.917 508.868 147.608L510.274 148.365C507.477 152.157 505.591 148.585 501.003 148.385L501.097 147.964C491.591 143.456 496.529 148.707 487.249 143.808L487.313 146.419C485.515 151.541 479.08 141.81 473.02 143.213L474.798 144.993C471.338 146.372 467.51 136.176 464.407 134.928C463.796 134.349 465.599 134.366 466.62 134.153C459.028 129.578 464.982 137.322 458.691 137.071C457.889 135.068 461.008 132.729 456.93 131.704C455.151 129.924 443.933 135.529 438.95 131.096C439.934 132.698 440.874 134.29 437.88 134.834C433.303 134.581 427.084 127.606 422.308 131.341C421.817 130.844 421.679 130.427 421.706 130.101C418.158 130.631 410.555 130.031 408.072 132.015C406.73 122.709 386.556 132.714 388.232 124.416L377.953 122.939L378.142 122.098C376.269 121.34 374.253 121.057 372.221 121.266C370.189 121.476 368.184 122.174 366.332 123.316C364.938 122.506 366.218 121.965 366.4 121.563C360.584 118.344 353.746 118.041 347.362 120.719L347.058 117.943C344.586 119.046 334.132 111.121 324.169 112.367C324.309 112.112 324.493 111.891 324.707 111.719C324.922 111.548 325.162 111.431 325.411 111.375C314.29 112.416 301.742 99.16 295.933 107.912L288.485 108.894C297.189 111.399 286.318 112.772 289.649 115.066C286.022 114.916 281.107 110.388 285.572 110.726L286.171 111.358C288.792 106.697 275.341 107.382 276.317 104.065C258.53 100.738 241.99 94.5421 225.615 90.7035L226.65 94.9688L220.96 93.6924C219.616 92.4519 219.603 90.239 223.638 91.2545C221.948 88.6656 216.376 91.6145 216.11 92.3837C208.48 89.0148 220.201 88.6052 217.799 87.9558L214.387 87.4668L215.031 88.1084C211.986 89.0829 211.4 90.6641 206.538 89.408C203.583 87.9165 205.493 86.6321 204.293 86.1973C204.352 85.9343 203.979 85.74 202.441 85.7817L195.356 83.6955L197.483 87.4322C193.989 88.14 190.805 85.6027 193.279 89.8592C189.65 83.5206 167.116 81.1179 164.561 78.6665C159.527 79.2659 154.529 78.5041 149.956 76.4404C151.115 77.4736 151.009 81.0411 146.443 79.2986C150.094 72.9353 138.878 73.5688 136.653 67.3791C138.947 71.8163 123.513 63.9899 127.186 70.3384C123.54 68.4157 127.776 67.7084 125.369 65.0138C120.18 64.4038 115.196 62.7059 110.648 59.9992C105.656 56.7135 100.398 53.9629 94.9318 51.778C94.4225 52.603 95.7536 54.7247 92.9503 55.0352L88.8986 48.1043C86.6047 47.5898 84.99 52.3104 82.2694 47.5014C82.554 48.5044 82.9649 49.9778 81.421 49.6315C71.3613 43.2501 60.9543 37.5771 50.2512 32.6402C44.9136 30.0374 39.8063 26.8959 34.983 23.2488C30.0265 19.6897 25.6232 15.2179 21.9263 9.98876C23.6595 13.4162 21.8601 12.3496 19.8109 10.9507C20.9101 12.247 18.6655 12.959 18.2824 14.2542C16.1783 11.2409 13.9711 8.48064 11.9907 5.32928C8.80119 7.15528 3.54157 -1.20668 0.92245 0.968245L3.73332 2.48269C-1.69671 3.14316 3.84392 13.5571 0.755937 17.6158C6.69481 16.9589 7.73591 31.1149 17.4075 30.1351C18.3533 32.1152 15.4188 30.7388 15.6178 32.3304C18.339 31.5595 20.459 32.6428 23.8541 35.8905L23.1657 36.0675C27.6886 38.6302 31.9841 41.664 36.0045 45.1351C39.9792 48.0708 43.895 51.2695 49.6455 55.377L49.7621 52.5855C51.2257 53.6296 52.4896 54.9998 53.489 56.6258C58.0727 54.7811 46.0591 52.3626 50.5843 49.9523C51.9594 56.8352 69.52 59.7244 69.7804 66.4125C73.9912 68.2962 69.5943 63.1111 73.8491 65.0047L74.3743 67.001L76.1753 65.5817C78.8421 67.1191 79.5817 69.6054 79.1867 70.9533C78.2641 70.6064 77.3018 70.3906 76.3194 70.3101C79.3144 73.6891 86.7612 74.3649 87.843 75.3258C86.5494 74.4832 85.3236 73.5452 84.0417 72.65C90.1114 74.5086 96.6569 77.137 103.126 79.693C109.357 82.1767 115.857 83.8199 122.506 84.5925L121.951 83.142C131.398 83.9903 128.661 86.6912 138.598 88.8649L138.245 88.7857C140.83 88.2697 143.436 88.4755 145.848 89.3861C143.018 90.022 149.599 93.3212 146.128 93.9238C156.386 94.457 151.41 93.5066 158.821 91.2462L159.613 93.9101C162.147 92.3264 165.027 91.8865 167.673 92.6793C163.229 93.2845 170.021 96.4655 164.949 97.5931C174.178 104.58 181.271 97.3314 184.443 104.673C190.475 100.501 176.328 99.5376 179.223 99.0267C177.43 96.6909 184.078 95.9721 187.168 97.273C190.258 98.5739 191.101 105.558 199.394 107.419C198.6 107.24 198.43 107.589 197.635 107.411C200.417 109.471 204.136 106.935 207.434 109.995C210.327 107.219 212.419 111.113 213.877 107.297L206.078 106.542C210.737 106.427 215.736 102.521 222.331 106.376C220.853 107.288 219.26 107.869 217.639 108.085C219.441 109.76 221.842 108.144 223.688 109.829C222.17 113.908 214.244 108.76 208.904 110.878C210.765 113.118 218.4 109.858 215.003 113.848C219.609 108.804 223.066 116.319 229.615 113.147L228.708 115.541C230.273 115.022 231.884 114.84 233.462 115.005L229.818 117.613C234.855 115.814 238.134 121.854 242.887 121.318C233.756 119.269 241.486 117.854 237.994 115.248C250.001 114.184 243.127 123.139 256.03 124.487C254.215 124.521 249.884 121.727 252.814 121.058C255.228 121.958 257.435 123.41 259.315 125.334C267.773 126.458 258.569 122.46 262.452 121.673C264.659 125.262 266.818 121.216 270.671 120.975L270.105 123.5C279.314 127.057 273.711 118.784 281.891 122.387L277.548 125.225L282.183 125.215L280.696 127.92C284.592 126.898 288.57 127.402 292.004 129.351C291.247 127.358 293.572 124.841 297.798 125.623C300.391 127.697 295.711 127.697 301.773 128.559C300.084 129.893 298.18 131.565 296.084 128.72C295.631 129.502 294.395 130.053 293.954 130.783C297.028 132.382 300.416 133.142 303.879 133.009C303.083 132.818 302.332 132.462 301.659 131.959L311.055 130.144C312.266 131.355 310.986 131.896 309.75 132.448C311.719 132.111 313.695 131.927 315.666 131.896C314.588 133.809 314.28 136.005 310.427 136.246L319.199 135.561C319.572 136.584 323.079 138.918 321.711 139.44C325.874 141.534 333.795 137.62 339.552 140.458C340.314 139.944 341.176 139.713 342.017 139.796C347.637 141.388 352.179 144.893 359.745 143.385L362.825 147.833C368.342 148.021 358.59 142.132 367.69 142.46C374.229 142.435 369.432 146.055 371.425 147.497C373.817 146.164 376.399 145.475 378.969 145.486C381.538 145.497 384.026 146.207 386.238 147.56C384.351 147.506 382.49 147.218 380.685 146.701ZM446.678 156.752C445.301 157.106 442.43 158.34 441.79 156.65C443.874 153.968 444.758 155.603 446.678 156.752ZM548.244 165.611C547.149 166.36 545.752 165.77 544.185 164.7C545.638 164.596 547.063 164.916 548.332 165.631L548.244 165.611ZM832.316 156.07C829.334 155.732 830.348 155.96 832.404 156.089L832.316 156.07ZM838.304 156.639C838.907 156.222 838.858 155.824 838.564 155.482C838.122 156.212 836.792 156.355 835.266 156.344C835.774 157.177 836.612 157.365 838.392 156.659L838.304 156.639ZM202.996 86.4035L203.99 87.3446C201.366 87.4743 202.237 86.8962 202.996 86.4035Z" fill="#FDC00F"/>
</svg>
