<svg width="20" height="20" viewBox="0 0 20 20" fill="none" xmlns="http://www.w3.org/2000/svg">
<rect width="20" height="20" fill="#4F16F2"/>
<path d="M11 9.5C10.7239 9.5 10.5 9.72385 10.5 9.99999C10.5 10.2761 10.7239 10.5 11 10.5L11 9.5ZM11.484 10.3536C11.6792 10.1583 11.6793 9.84172 11.484 9.64645L8.30206 6.46443C8.1068 6.26916 7.79022 6.26916 7.59495 6.46442C7.39969 6.65968 7.39968 6.97626 7.59494 7.17152L10.4233 9.99999L7.59486 12.8284C7.3996 13.0236 7.39959 13.3402 7.59485 13.5355C7.79011 13.7308 8.10669 13.7308 8.30196 13.5355L11.484 10.3536ZM11 10.5L11.1304 10.5L11.1304 9.5L11 9.5L11 10.5Z" fill="white"/>
</svg>
