<svg width="36" height="36" viewBox="0 0 36 36" fill="none" xmlns="http://www.w3.org/2000/svg">
<path d="M9.92411 10.9118V15.8063V15.8065H9.77411L9.92411 10.9118ZM9.92411 10.9118L22.8947 23.8823H18.0001H17.9999V24.0323C16.1365 24.0298 14.325 24.6454 12.8489 25.7828L9.92411 10.9118ZM6.53838 32.752L6.5384 32.752C6.66937 32.8829 6.84697 32.9564 7.03216 32.9564C7.21735 32.9564 7.39495 32.8829 7.52592 32.752L7.52594 32.752L8.67734 31.6006L11.5682 34.4909C11.9901 34.9127 12.5622 35.1497 13.1588 35.1497C13.7553 35.1497 14.3275 34.9127 14.7493 34.4909C15.1712 34.069 15.4081 33.4969 15.4081 32.9003C15.4081 32.3038 15.1712 31.7316 14.7493 31.3098L14.6433 31.4158L14.7493 31.3098L11.8585 28.4195L12.8771 27.4013L12.8774 27.401C13.5484 26.7261 14.3466 26.1911 15.2259 25.8269C16.1051 25.4626 17.0478 25.2765 17.9995 25.2791H17.9999H24.5806H24.5806C24.7187 25.2791 24.8537 25.2381 24.9686 25.1614C25.0834 25.0846 25.1729 24.9756 25.2257 24.848C25.2786 24.7204 25.2924 24.58 25.2655 24.4445C25.2385 24.3091 25.172 24.1846 25.0744 24.087L25.0744 24.087L9.71949 8.73206L9.71948 8.73204C9.62181 8.6344 9.49738 8.56791 9.36193 8.54097C9.22647 8.51404 9.08607 8.52787 8.95848 8.58072C8.83088 8.63356 8.72182 8.72305 8.64508 8.83788C8.56833 8.9527 8.52736 9.0877 8.52733 9.2258V9.22583L8.52733 15.8065L8.52733 15.8069C8.52992 16.7586 8.34377 17.7014 7.97964 18.5807C7.61551 19.46 7.08063 20.2584 6.40595 20.9296L6.40568 20.9299L1.0545 26.2805L1.05448 26.2805C0.923551 26.4115 0.85 26.5891 0.85 26.7743C0.85 26.9595 0.923551 27.1371 1.05448 27.268L1.05449 27.2681L6.53838 32.752ZM11.803 26.5004L9.22573 29.0771L4.72939 24.5807L7.30635 22.0043L11.803 26.5004ZM26.226 0.85H26.2258C24.4607 0.85 22.7353 1.3734 21.2677 2.354C19.8002 3.33461 18.6563 4.72838 17.9809 6.35907C17.3054 7.98976 17.1287 9.78412 17.473 11.5153C17.8174 13.2464 18.6673 14.8365 19.9154 16.0846C21.1635 17.3327 22.7536 18.1826 24.4847 18.527C26.2159 18.8713 28.0102 18.6946 29.6409 18.0191C31.2716 17.3437 32.6654 16.1998 33.646 14.7323C34.6266 13.2647 35.15 11.5393 35.15 9.77422V9.77405C35.1472 7.4081 34.2061 5.13987 32.5331 3.46689C30.8601 1.79391 28.5919 0.852805 26.226 0.85ZM13.7617 32.2973C13.7618 32.2973 13.7618 32.2973 13.7618 32.2973C13.881 32.4166 13.9622 32.5686 13.9951 32.734C14.028 32.8994 14.0111 33.0709 13.9465 33.2267C13.882 33.3826 13.7727 33.5158 13.6325 33.6095C13.4922 33.7032 13.3274 33.7533 13.1587 33.7533C12.9326 33.7526 12.7158 33.6627 12.5555 33.5031L9.66489 30.613L10.8709 29.407L13.7617 32.2973ZM12.8625 25.5842L8.22165 20.9434L12.8625 25.5842ZM3.74183 25.5683L8.23816 30.0646L7.03216 31.2706L2.53583 26.7743L3.74183 25.5683ZM26.2256 17.3017C24.7369 17.3016 23.2816 16.8602 22.0438 16.0331C20.8059 15.2059 19.8411 14.0303 19.2713 12.6549C18.7016 11.2794 18.5525 9.76587 18.843 8.30569C19.1334 6.84551 19.8503 5.50425 20.9031 4.45152C21.9558 3.39878 23.2971 2.68186 24.7572 2.39142C26.2174 2.10097 27.7309 2.25004 29.1064 2.81977C30.4819 3.38951 31.6575 4.35432 32.4846 5.5922C33.3117 6.83004 33.7532 8.28533 33.7532 9.77406C33.7511 11.7699 32.9573 13.6833 31.5461 15.0945C30.1348 16.5058 28.2214 17.2995 26.2256 17.3017Z" fill="#121212" stroke="#121212" stroke-width="0.3"/>
<path d="M28.4193 8.82764H28.4194C28.8829 8.82764 29.336 8.69019 29.7214 8.43268C30.1068 8.17517 30.4072 7.80915 30.5846 7.38092C30.7619 6.9527 30.8083 6.48148 30.7179 6.02688C30.6275 5.57227 30.4043 5.15469 30.0765 4.82694C29.7488 4.49919 29.3312 4.27599 28.8766 4.18556C28.422 4.09513 27.9508 4.14154 27.5226 4.31892C27.0943 4.4963 26.7283 4.79668 26.4708 5.18207C26.2133 5.56747 26.0758 6.02057 26.0758 6.48408L26.0759 6.48632C26.0786 6.67047 26.1033 6.8535 26.1493 7.03154L24.4909 8.02578C24.1762 7.74538 23.7911 7.55453 23.3758 7.4744C22.9222 7.38688 22.4529 7.43537 22.0267 7.6138C21.6006 7.79223 21.2367 8.09262 20.9808 8.47724C20.7248 8.86185 20.5883 9.31353 20.5883 9.77552C20.5883 10.2375 20.7248 10.6892 20.9808 11.0738C21.2367 11.4584 21.6006 11.7588 22.0267 11.9372C22.4529 12.1157 22.9222 12.1642 23.3758 12.0766C23.7911 11.9965 24.1762 11.8057 24.4909 11.5253L26.1484 12.5196C26.1028 12.6969 26.0785 12.8792 26.0759 13.0626H26.0758L26.0758 13.0643C26.074 13.6073 26.2604 14.1342 26.6032 14.5553C26.946 14.9764 27.4242 15.2658 27.9562 15.3743C28.4883 15.4827 29.0416 15.4035 29.5218 15.1501C30.0021 14.8967 30.3798 14.4847 30.5906 13.9843C30.8015 13.4839 30.8325 12.9259 30.6784 12.4052C30.5243 11.8845 30.1946 11.4332 29.7453 11.1282C29.2961 10.8231 28.755 10.6831 28.2142 10.7319C27.7122 10.7772 27.2392 10.9826 26.8641 11.3162L25.2079 10.3226C25.3042 9.96353 25.3042 9.58531 25.2079 9.2262L26.8638 8.23288C27.2905 8.61474 27.844 8.82739 28.4193 8.82764ZM28.4194 5.53731C28.6066 5.53731 28.7897 5.59283 28.9454 5.69687C29.1011 5.8009 29.2224 5.94877 29.2941 6.12177C29.3658 6.29477 29.3845 6.48513 29.348 6.66879C29.3114 6.85245 29.2213 7.02115 29.0889 7.15356C28.9565 7.28597 28.7878 7.37614 28.6041 7.41267C28.4204 7.4492 28.2301 7.43045 28.0571 7.35879C27.8841 7.28713 27.7362 7.16578 27.6322 7.01009C27.5281 6.85439 27.4726 6.67134 27.4726 6.48408C27.4726 6.23298 27.5724 5.99217 27.7499 5.81461C27.9275 5.63706 28.1683 5.53731 28.4194 5.53731ZM22.9355 10.7212C22.7482 10.7212 22.5652 10.6657 22.4095 10.5616C22.2538 10.4576 22.1325 10.3097 22.0608 10.1367C21.9891 9.96373 21.9704 9.77337 22.0069 9.58971C22.0434 9.40605 22.1336 9.23735 22.266 9.10495C22.3984 8.97254 22.5671 8.88236 22.7508 8.84583C22.9345 8.8093 23.1248 8.82805 23.2978 8.89971C23.4708 8.97137 23.6187 9.09272 23.7227 9.24842C23.8268 9.40411 23.8823 9.58716 23.8823 9.77442C23.8823 10.0255 23.7825 10.2663 23.605 10.4439C23.4274 10.6214 23.1866 10.7212 22.9355 10.7212ZM28.4194 12.118C28.6066 12.118 28.7897 12.1735 28.9454 12.2775C29.1011 12.3816 29.2224 12.5294 29.2941 12.7024C29.3658 12.8754 29.3845 13.0658 29.348 13.2495C29.3114 13.4331 29.2213 13.6018 29.0889 13.7342C28.9565 13.8666 28.7878 13.9568 28.6041 13.9933C28.4204 14.0299 28.2301 14.0111 28.0571 13.9395C27.8841 13.8678 27.7362 13.7464 27.6322 13.5908C27.5281 13.4351 27.4726 13.252 27.4726 13.0648C27.4726 12.8137 27.5724 12.5728 27.7499 12.3953C27.9275 12.2177 28.1683 12.118 28.4194 12.118Z" fill="#121212" stroke="#121212" stroke-width="0.3"/>
</svg>
