<svg width="26" height="26" viewBox="0 0 26 26" fill="none" xmlns="http://www.w3.org/2000/svg">
<path d="M24.0682 7.07252C24.0417 6.97002 23.9927 6.87467 23.925 6.79329C21.7974 2.75786 17.5618 0 12.6923 0C7.82281 0 3.58721 2.75822 1.45962 6.79292C1.39174 6.87427 1.3427 6.96963 1.31601 7.07215C0.475055 8.76821 0 10.6757 0 12.6923C0 14.7089 0.475055 16.6168 1.31637 18.3121C1.34321 18.4169 1.39253 18.5108 1.45962 18.5913C3.58721 22.6268 7.82281 25.3846 12.6923 25.3846C17.5618 25.3846 21.7974 22.6264 23.925 18.5917C23.9917 18.5108 24.0414 18.4169 24.0686 18.3125C24.9096 16.6164 25.3846 14.7089 25.3846 12.6923C25.3846 10.6757 24.9096 8.76785 24.0682 7.07252ZM22.8944 17.4066H18.431C18.6657 16.1664 18.81 14.8264 18.847 13.4176H23.9087C23.8209 14.7987 23.477 16.1514 22.8944 17.4066ZM1.47666 13.4176H6.53763C6.57462 14.8264 6.71895 16.1664 6.95357 17.4066H2.49059C1.90786 16.1514 1.56451 14.7987 1.47666 13.4176ZM2.49059 7.97802H6.95357C6.71895 9.21824 6.57462 10.5582 6.53763 11.967H1.47593C1.56367 10.586 1.90798 9.23326 2.49059 7.97802ZM13.4176 6.52747V1.60286C14.6567 2.10801 15.8614 3.87188 16.6168 6.52747H13.4176ZM16.9653 7.97802C17.2046 9.17944 17.3576 10.5168 17.3961 11.967H13.4176V7.97802H16.9653ZM11.967 1.60286V6.52747H8.76785C9.52286 3.87188 10.7279 2.10801 11.967 1.60286ZM11.967 7.97802V11.967H7.9889C8.02698 10.5168 8.18001 9.17944 8.41935 7.97802H11.967ZM7.9889 13.4176H11.967V17.4066H8.41935C8.18001 16.2052 8.02734 14.8678 7.9889 13.4176ZM11.967 18.8571V23.7818C10.7279 23.2766 9.52322 21.5127 8.76785 18.8571H11.967ZM13.4176 23.7818V18.8571H16.6168C15.8618 21.5127 14.6567 23.2766 13.4176 23.7818ZM13.4176 17.4066V13.4176H17.3957C17.3576 14.8678 17.2046 16.2052 16.9653 17.4066H13.4176ZM18.847 11.967C18.81 10.5582 18.6657 9.21824 18.431 7.97802H22.894C23.4766 9.23326 23.8206 10.586 23.9083 11.967H18.847ZM22.0861 6.52747H18.105C17.6097 4.65518 16.8916 3.08532 16.0199 1.95353C18.5322 2.73356 20.6682 4.37413 22.0861 6.52747ZM9.36475 1.95353C8.49297 3.08496 7.77494 4.65518 7.27958 6.52747H3.29855C4.71646 4.37413 6.8524 2.73356 9.36475 1.95353ZM3.29855 18.8571H7.27958C7.77494 20.7294 8.49297 22.2993 9.36475 23.4311C6.8524 22.6511 4.71646 21.0105 3.29855 18.8571ZM16.0199 23.4311C16.8916 22.2997 17.6097 20.7294 18.105 18.8571H22.0861C20.6682 21.0105 18.5322 22.6511 16.0199 23.4311Z" fill="#121212"/>
</svg>
