<svg width="31" height="33" viewBox="0 0 31 33" fill="none" xmlns="http://www.w3.org/2000/svg">
<path d="M9.13699 3.40764C9.14764 3.4185 9.15664 3.4307 9.16381 3.44386C9.15671 3.45637 9.14792 3.46796 9.13761 3.47829C9.12756 3.48836 9.11631 3.49698 9.10417 3.50401C9.09094 3.49674 9.07866 3.48766 9.06772 3.47693C9.05758 3.46699 9.04883 3.45587 9.04162 3.44388C9.04893 3.43124 9.0579 3.41951 9.06839 3.40904C9.07913 3.39832 9.09118 3.38919 9.10419 3.38181C9.1161 3.38893 9.12713 3.39759 9.13699 3.40764ZM15.0916 3.38507L15.82 3.10994L15.0916 3.38507C15.0954 3.39509 15.0971 3.40577 15.0966 3.41648C15.0958 3.43695 15.087 3.4563 15.0723 3.47049C15.0575 3.48467 15.0378 3.49259 15.0173 3.49259C14.9968 3.49259 14.9771 3.48467 14.9623 3.47049C14.9475 3.45631 14.9388 3.43696 14.9379 3.41648C14.9374 3.40577 14.9392 3.39509 14.9429 3.38507L14.1945 3.10239L14.9429 3.38507C14.9467 3.37504 14.9525 3.36589 14.9599 3.35816C14.9673 3.35042 14.9762 3.34427 14.9861 3.34006L14.6756 2.61222L14.9861 3.34006C14.9959 3.33586 15.0066 3.33369 15.0173 3.33369C15.028 3.33369 15.0386 3.33586 15.0484 3.34006C15.0583 3.34427 15.0672 3.35042 15.0746 3.35815L15.6521 2.80449L15.0746 3.35816C15.082 3.36589 15.0878 3.37505 15.0916 3.38507ZM12.0951 3.4084C12.1056 3.41906 12.1145 3.431 12.1217 3.44387C12.1146 3.45608 12.1059 3.46742 12.0958 3.47755C12.0853 3.48801 12.0735 3.49693 12.0608 3.50416C12.0477 3.49694 12.0356 3.48793 12.0247 3.47729C12.0145 3.46725 12.0057 3.45601 11.9985 3.44387C12.0058 3.43109 12.0148 3.41924 12.0254 3.40868L11.4597 2.84299L12.0254 3.40868C12.036 3.39804 12.048 3.38898 12.0608 3.38166C12.0733 3.38898 12.0848 3.39795 12.0951 3.4084Z" fill="#121212" stroke="#121212" stroke-width="1.6"/>
<path d="M6.0293 8.87301V2.55655C6.0293 2.14372 6.19329 1.74781 6.4852 1.4559C6.77711 1.16399 7.17302 1 7.58584 1H28.4436C28.8564 1 29.2523 1.16399 29.5442 1.4559C29.8361 1.74781 30.0001 2.14372 30.0001 2.55655V21.8904C30.0001 22.0948 29.9598 22.2972 29.8816 22.4861C29.8034 22.6749 29.6887 22.8465 29.5442 22.991C29.3997 23.1356 29.2281 23.2502 29.0392 23.3285C28.8504 23.4067 28.648 23.4469 28.4436 23.4469H24.9631M6.0293 5.88444H29.9923" stroke="#121212" stroke-width="1.6" stroke-linecap="round" stroke-linejoin="round"/>
<path d="M7.09333 11.3198C7.0861 11.3319 7.07733 11.343 7.06716 11.353C7.0566 11.3634 7.04479 11.3722 7.03207 11.3793C7.02053 11.3724 7.00981 11.3641 7.00021 11.3544C6.98994 11.3441 6.98119 11.3325 6.97412 11.3201C6.9813 11.3068 6.99032 11.2946 7.001 11.2837L6.42983 10.7236L7.001 11.2837C7.0105 11.274 7.02108 11.2656 7.03249 11.2587C7.04489 11.2659 7.05639 11.2748 7.06668 11.2851L7.5972 10.7555L7.06668 11.2851C7.07712 11.2955 7.08605 11.3072 7.09333 11.3198ZM10.0232 11.2844C10.0338 11.295 10.0429 11.307 10.0502 11.3199C10.043 11.3322 10.0341 11.3436 10.0238 11.3537C10.0047 11.3725 9.98139 11.3861 9.95604 11.3937C9.94452 11.3898 9.93394 11.3833 9.92518 11.3746L9.3595 11.9403L9.92518 11.3746C9.91029 11.3597 9.90191 11.3395 9.90191 11.3184C9.90191 11.2973 9.91028 11.2771 9.92518 11.2622C9.93372 11.2537 9.94399 11.2473 9.95517 11.2434C9.98066 11.2513 10.004 11.2653 10.0232 11.2844ZM4.13647 11.3199C4.12936 11.3324 4.12057 11.344 4.11026 11.3544C4.10022 11.3644 4.08896 11.373 4.07683 11.3801C4.06359 11.3728 4.05131 11.3637 4.04037 11.353C4.03024 11.3431 4.02149 11.3319 4.01427 11.3199C4.02158 11.3073 4.03056 11.2956 4.04104 11.2851C4.05178 11.2744 4.06384 11.2653 4.07684 11.2579C4.08875 11.265 4.09979 11.2737 4.10965 11.2837C4.12029 11.2946 4.12929 11.3068 4.13647 11.3199Z" fill="#121212" stroke="#121212" stroke-width="1.6"/>
<path d="M19.2318 31.3231H23.4034C23.8162 31.3231 24.2121 31.1591 24.504 30.8672C24.7959 30.5753 24.9599 30.1794 24.9599 29.7666V10.4296C24.9599 10.0168 24.7959 9.62086 24.504 9.32895C24.2121 9.03704 23.8162 8.87305 23.4034 8.87305H2.55655C2.14372 8.87305 1.74781 9.03704 1.4559 9.32895C1.16399 9.62086 1 10.0168 1 10.4296V29.7666C1 30.1794 1.16399 30.5753 1.4559 30.8672C1.74781 31.1591 2.14372 31.3231 2.55655 31.3231H13.0056M1 13.7575H24.963" stroke="#121212" stroke-width="1.6" stroke-linecap="round" stroke-linejoin="round"/>
<path d="M12.8124 17.7358H4.17822V22.2343H11.2994" stroke="#121212" stroke-width="1.6" stroke-linecap="round" stroke-linejoin="round"/>
<path d="M12.8124 17.7358H21.4481V22.2343H11.2994M4.17822 26.6611H21.4481" stroke="#121212" stroke-width="1.6" stroke-linecap="round" stroke-linejoin="round"/>
<path d="M16.3544 31.328C16.3459 31.377 16.322 31.4224 16.2857 31.4573C16.2419 31.4994 16.1835 31.5229 16.1227 31.5229C16.0619 31.5229 16.0035 31.4994 15.9597 31.4573C15.9235 31.4224 15.8995 31.377 15.8911 31.328C15.8995 31.2789 15.9235 31.2336 15.9597 31.1987C16.0035 31.1565 16.0619 31.133 16.1227 31.133C16.1835 31.133 16.2419 31.1565 16.2857 31.1987C16.322 31.2336 16.3459 31.2789 16.3544 31.328Z" fill="#121212" stroke="#121212" stroke-width="1.6"/>
</svg>
