<svg width="36" height="35" viewBox="0 0 36 35" fill="none" xmlns="http://www.w3.org/2000/svg">
<path d="M34.4889 31.2609L31.4532 28.2252C30.8999 27.6719 30.0454 27.543 29.3647 27.8367L28.632 27.104C29.5932 25.9465 30.1929 24.4322 30.1929 22.857C30.1929 19.1258 27.1955 16.1284 23.4643 16.1284C22.9877 16.1284 22.5104 16.1864 22.0886 16.3028C19.8923 13.1501 16.3656 11.2713 12.5357 11.2713C6.1331 11.2713 0.95 16.4544 0.95 22.857C0.95 29.2596 6.1331 34.4427 12.5357 34.4427C16.366 34.4427 19.893 32.5635 22.0893 29.4103C22.5644 29.527 22.9851 29.5856 23.4643 29.5856C25.0998 29.5856 26.5552 28.9858 27.7113 28.0247L28.444 28.7574C28.1503 29.4382 28.2792 30.2926 28.8325 30.8459L31.8682 33.8816C32.2419 34.2553 32.7403 34.4427 33.1786 34.4427C33.6781 34.4427 34.1153 34.2549 34.4881 33.8824C35.2384 33.1938 35.2359 32.0079 34.4889 31.2609ZM3.7517 28.0749C2.9273 26.7084 2.39583 25.1692 2.32697 23.5141H6.47736C6.53809 24.7557 6.6566 25.8833 6.83288 27.0095C5.71074 27.3067 4.64619 27.6617 3.7517 28.0749ZM6.47725 22.2606H2.32683C2.39516 20.4845 2.92829 18.8841 3.81172 17.5162C4.76124 17.9294 5.76913 18.2848 6.89136 18.5825C6.65705 19.7137 6.53791 20.9587 6.47725 22.2606ZM16.7968 22.1999H13.1929V19.2012C14.4959 19.1405 15.7413 19.0219 16.929 18.8455C17.0424 19.3701 17.1012 19.8951 17.1598 20.423C16.9831 20.9538 16.8055 21.5473 16.7968 22.1999ZM16.6009 17.5923C15.5393 17.7098 14.3667 17.8262 13.1929 17.8865V12.7246C13.8843 12.9466 14.551 13.491 15.1361 14.3102C15.7307 15.1426 16.2387 16.2556 16.6009 17.5923ZM9.93545 14.3024C10.5216 13.4745 11.1884 12.9168 11.8786 12.722V17.8866C10.7002 17.8276 9.52844 17.7663 8.46962 17.5374C8.83188 16.2575 9.34025 15.1431 9.93545 14.3024ZM8.1418 18.8454C9.32973 19.0219 10.5753 19.1405 11.8786 19.2012V22.1999H7.73117C7.79178 21.0219 7.91034 19.8486 8.1418 18.8454ZM11.8786 26.3307C10.5761 26.3914 9.32985 26.5106 8.08382 26.7448C7.90936 25.6872 7.79187 24.6287 7.73132 23.5141H11.8786V26.3307ZM11.8786 27.6428V33.0508C11.1587 32.8272 10.4765 32.2393 9.88274 31.3742C9.27963 30.4956 8.77082 29.3356 8.40844 27.9951C9.52715 27.7635 10.7024 27.646 11.8786 27.6428ZM13.1929 32.9927V27.5846C14.369 27.6451 15.5441 27.7626 16.6629 27.9371C16.3004 29.3364 15.7916 30.5109 15.1888 31.3817C14.5949 32.2396 13.9127 32.7985 13.1929 32.9927ZM13.1929 26.3285V23.5141H16.8009C16.8627 24.1621 16.9835 24.7557 17.2201 25.2931C17.1617 25.7599 17.1032 26.2236 16.9908 26.6868C15.747 26.5092 14.4988 26.3329 13.1929 26.3285ZM18.2797 18.5739C18.2762 18.5585 18.2716 18.5425 18.2656 18.5269C18.2912 18.5215 18.3143 18.5144 18.3357 18.5073C18.3154 18.5296 18.2969 18.5514 18.2797 18.5739ZM17.9137 17.2716C17.4479 15.6032 16.7631 14.2062 15.9093 13.1864C17.6937 13.7973 19.305 14.9044 20.53 16.4013C19.714 16.7471 18.8419 17.0372 17.9137 17.2716ZM4.60067 16.4026C5.7697 14.9589 7.32657 13.7974 9.16402 13.1842C8.30932 14.2042 7.62384 15.602 7.15772 17.2716C6.23009 17.0373 5.36002 16.7476 4.60067 16.4026ZM9.2216 32.5271C7.26651 31.859 5.65019 30.6935 4.4792 29.1919C5.29612 28.8456 6.17084 28.5537 7.15785 28.2623C7.62458 29.9916 8.31184 31.4488 9.2216 32.5271ZM17.9748 28.2603C18.9078 28.4955 19.8367 28.7872 20.6549 29.1888C19.4248 30.7506 17.7497 31.919 15.8993 32.5325C16.7618 31.4545 17.5058 29.9951 17.9748 28.2603ZM18.05 22.857C18.05 19.8489 20.4562 17.4427 23.4643 17.4427C26.4724 17.4427 28.8786 19.8489 28.8786 22.857C28.8786 25.8651 26.4724 28.2713 23.4643 28.2713C20.4562 28.2713 18.05 25.8651 18.05 22.857ZM33.5682 32.9609C33.3449 33.1843 33.0123 33.1843 32.7889 32.9609L29.7532 29.9252C29.5299 29.7019 29.5299 29.3693 29.7532 29.1459C29.8647 29.0345 30.0338 28.9784 30.1429 28.9784C30.2281 28.9784 30.2969 28.9926 30.3578 29.0197C30.419 29.0468 30.4747 29.0882 30.5325 29.1459L33.5682 32.1816C33.7915 32.405 33.7915 32.7376 33.5682 32.9609Z" fill="#121212" stroke="#121212" stroke-width="0.1"/>
<path d="M27.1069 22.2001C26.9134 22.2001 26.7483 22.2649 26.6314 22.3817C26.5145 22.4986 26.4498 22.6638 26.4498 22.8573C26.4498 24.5297 25.1365 25.843 23.4641 25.843C23.2706 25.843 23.1054 25.9077 22.9885 26.0246C22.8717 26.1415 22.8069 26.3066 22.8069 26.5001C22.8069 26.6936 22.8717 26.8588 22.9885 26.9757C23.1054 27.0926 23.2706 27.1573 23.4641 27.1573C25.8595 27.1573 27.7641 25.2528 27.7641 22.8573C27.7641 22.6638 27.6994 22.4986 27.5825 22.3817C27.4656 22.2649 27.3004 22.2001 27.1069 22.2001ZM14.9641 4.693H27.7141C27.9076 4.693 28.0727 4.62828 28.1896 4.51139C28.3065 4.3945 28.3712 4.22936 28.3712 4.03585C28.3712 3.84235 28.3065 3.67721 28.1896 3.56032C28.0727 3.44343 27.9076 3.37871 27.7141 3.37871H14.9641C14.7706 3.37871 14.6054 3.44343 14.4885 3.56032C14.3717 3.67721 14.3069 3.84235 14.3069 4.03585C14.3069 4.22936 14.3717 4.3945 14.4885 4.51139C14.6054 4.62828 14.7706 4.693 14.9641 4.693ZM31.3569 4.693H31.9641C32.1576 4.693 32.3227 4.62828 32.4396 4.51139C32.5565 4.3945 32.6212 4.22936 32.6212 4.03585C32.6212 3.84235 32.5565 3.67721 32.4396 3.56032C32.3227 3.44343 32.1576 3.37871 31.9641 3.37871H31.3569C31.1634 3.37871 30.9983 3.44343 30.8814 3.56032C30.7645 3.67721 30.6998 3.84235 30.6998 4.03585C30.6998 4.22936 30.7645 4.3945 30.8814 4.51139C30.9983 4.62828 31.1634 4.693 31.3569 4.693ZM29.5355 4.693C29.6324 4.693 29.7154 4.67679 29.7911 4.64315C29.8665 4.60961 29.9322 4.55988 29.9959 4.49621C30.0595 4.43254 30.1093 4.36689 30.1428 4.29143C30.1764 4.21575 30.1926 4.13276 30.1926 4.03585C30.1926 3.93895 30.1764 3.85596 30.1428 3.78028C30.1093 3.70482 30.0595 3.63916 29.9959 3.5755C29.7335 3.31312 29.3375 3.31312 29.0751 3.5755C29.0115 3.63916 28.9617 3.70482 28.9282 3.78028C28.8946 3.85596 28.8784 3.93895 28.8784 4.03585C28.8784 4.13276 28.8946 4.21575 28.9282 4.29143C28.9617 4.36689 29.0115 4.43254 29.0751 4.49621C29.1388 4.55988 29.2045 4.60961 29.2799 4.64315C29.3556 4.67679 29.4386 4.693 29.5355 4.693Z" fill="#121212" stroke="#121212" stroke-width="0.1"/>
<path d="M7.0715 10.7643C7.265 10.7643 7.43014 10.6996 7.54703 10.5827C7.66392 10.4658 7.72864 10.3006 7.72864 10.1071V5.85714C7.72864 5.32752 7.94781 5.04012 8.19855 4.88251C8.45296 4.7226 8.7458 4.69286 8.89293 4.69286H11.9493C12.2718 6.09126 13.4964 7.12143 14.9644 7.12143H19.1644V10.1071C19.1644 10.3589 19.289 10.6253 19.5539 10.6988C19.5943 10.7332 19.6469 10.7485 19.6918 10.756C19.7415 10.7643 19.7904 10.7643 19.8206 10.7643H19.8215C19.9184 10.7643 20.0014 10.7481 20.0771 10.7144C20.1525 10.6809 20.2182 10.6312 20.2819 10.5675L23.7279 7.12143H30.0929V10.1071C30.0929 10.6368 29.8738 10.9242 29.623 11.0818C29.3686 11.2417 29.0758 11.2714 28.9286 11.2714H25.2858C25.0923 11.2714 24.9271 11.3361 24.8103 11.453C24.6934 11.5699 24.6286 11.7351 24.6286 11.9286C24.6286 12.1221 24.6934 12.2872 24.8103 12.4041C24.9271 12.521 25.0923 12.5857 25.2858 12.5857H28.9286C29.4244 12.5857 30.0428 12.4157 30.5384 12.0208C31.0356 11.6245 31.4072 11.0032 31.4072 10.1071V7.12143H31.9644C33.692 7.12143 35.0501 5.76333 35.0501 4.03571C35.0501 2.3081 33.692 0.95 31.9644 0.95H14.9644C13.4964 0.95 12.2718 1.98017 11.9493 3.37857H8.89293C8.39718 3.37857 7.77872 3.54861 7.2832 3.94349C6.78593 4.33975 6.41436 4.96112 6.41436 5.85714V10.1071C6.41436 10.3006 6.47908 10.4658 6.59596 10.5827C6.71285 10.6996 6.87799 10.7643 7.0715 10.7643ZM14.9644 2.26429H31.9644C32.9689 2.26429 33.7358 3.03119 33.7358 4.03571C33.7358 5.04024 32.9689 5.80714 31.9644 5.80714H23.4644C23.3675 5.80714 23.2845 5.82335 23.2088 5.85699C23.1333 5.89053 23.0677 5.94026 23.004 6.00393L20.4786 8.52929V6.46429C20.4786 6.27078 20.4139 6.10564 20.297 5.98875C20.1801 5.87186 20.015 5.80714 19.8215 5.80714H14.9644C13.9598 5.80714 13.1929 5.04024 13.1929 4.03571C13.1929 3.03119 13.9598 2.26429 14.9644 2.26429Z" fill="#121212" stroke="#121212" stroke-width="0.1"/>
</svg>
