<svg width="26" height="30" viewBox="0 0 26 30" fill="none" xmlns="http://www.w3.org/2000/svg">
<path d="M12.8611 0C5.76874 0 0 5.75749 0 12.8386C0 19.6085 4.87446 24.706 12.0624 25.5047C12.0774 25.8515 12.0812 26.3352 12.0718 26.8302C12.0531 27.8538 11.9968 28.8868 11.9968 28.8868C11.9944 28.9043 11.9926 28.9218 11.9912 28.9393C11.9912 29.258 12.2293 29.6574 12.4749 29.813C12.6527 29.9298 12.8602 29.9936 13.0729 29.9967C13.386 30.0155 13.6241 29.9517 13.8979 29.8655C14.4397 29.693 15.0696 29.3705 15.7389 28.8793C16.9781 27.9682 18.2586 26.369 18.8829 24.1549C21.5489 23.09 23.3637 21.5301 24.3761 19.6047C25.4447 17.5687 25.7166 15.244 25.7166 12.8367C25.7166 5.75937 19.9497 0 12.8611 0ZM12.8611 1.87479C14.3025 1.87183 15.7303 2.15328 17.0628 2.70301C18.3953 3.25273 19.6062 4.05994 20.6262 5.07839C21.6462 6.09684 22.4553 7.30653 23.0071 8.63815C23.5589 9.96978 23.8425 11.3972 23.8418 12.8386C23.8418 15.0996 23.5718 17.1037 22.7169 18.7292C21.8639 20.3546 20.4446 21.6745 17.8499 22.6138C17.701 22.6679 17.5681 22.7588 17.4639 22.8782C17.3596 22.9975 17.2873 23.1413 17.2537 23.2962C16.9081 24.9306 15.974 26.3811 14.629 27.372C14.3441 27.5801 14.1547 27.6382 13.9147 27.7601C13.9297 27.3926 13.9391 27.3158 13.9466 26.8658C13.9578 26.3296 13.9597 25.7934 13.9372 25.3528C13.9295 25.149 13.9069 24.946 13.8697 24.7454C13.851 24.646 13.8322 24.5448 13.7572 24.3873C13.7071 24.2764 13.6365 24.1759 13.5491 24.0911C13.3783 23.926 13.1559 23.8247 12.9192 23.8043C6.07433 23.3637 1.87479 18.9654 1.87479 12.8367C1.87454 11.3951 2.15872 9.96751 2.71104 8.63584C3.26337 7.30418 4.07299 6.09456 5.09353 5.07629C6.11407 4.05801 7.32548 3.25108 8.65837 2.70171C9.99125 2.15235 11.4194 1.87134 12.8611 1.87479ZM13.3804 3.74209V3.75334H13.3279C13.3917 3.75334 13.1686 3.70272 12.7467 3.75334L11.9218 3.85645V6.96111C11.9237 7.75227 11.7268 8.41033 11.425 8.82091C11.3039 8.97983 11.153 9.11357 10.9807 9.21461C10.9664 8.97652 10.8618 8.75284 10.6884 8.58913C10.5149 8.42542 10.2855 8.33399 10.047 8.33346H6.29743C6.04882 8.33346 5.81039 8.43222 5.63459 8.60802C5.4588 8.78381 5.36004 9.02225 5.36004 9.27086V19.6853C5.36004 19.934 5.4588 20.1724 5.63459 20.3482C5.81039 20.524 6.04882 20.6227 6.29743 20.6227H10.047C10.2956 20.6227 10.5341 20.524 10.7099 20.3482C10.8857 20.1724 10.9844 19.934 10.9844 19.6853V18.6167C11.2281 18.6917 11.4831 18.7442 11.7512 18.7442H18.3636C19.106 18.7442 19.7697 18.3767 20.1803 17.9062C20.589 17.4375 20.8102 16.8938 20.9752 16.3707C20.9977 16.3088 21.7026 14.5259 22.1319 12.9998C22.2641 12.5508 22.2842 12.0762 22.1904 11.6177C22.0966 11.1591 21.8918 10.7305 21.5939 10.3695C21.3386 10.064 21.0199 9.81765 20.6599 9.64768C20.2999 9.47771 19.9072 9.38815 19.5091 9.38522H16.6294V6.39305C16.6294 5.63001 16.2488 4.91009 15.6602 4.44514C15.0715 3.98019 14.2953 3.74209 13.4329 3.74209H13.3804ZM13.7966 5.72C14.0628 5.77437 14.3684 5.81374 14.4959 5.9131C14.6909 6.06683 14.7528 6.20369 14.7528 6.39305V11.26H19.5091C19.6741 11.26 19.9928 11.3838 20.1728 11.5937C20.3509 11.8 20.4559 12.0306 20.3265 12.4936C19.9978 13.5918 19.625 14.6763 19.2091 15.7445L19.1979 15.7783L19.1866 15.8083C19.0667 16.1926 18.9054 16.5094 18.7667 16.6707C18.6261 16.8338 18.5736 16.8694 18.3636 16.8694H11.7512C11.5609 16.8745 11.3758 16.807 11.2334 16.6806C11.091 16.5542 11.002 16.3784 10.9844 16.1889V11.215C11.7943 11.0088 12.4768 10.5495 12.9342 9.93079C13.5491 9.09463 13.8004 8.04287 13.7966 6.95361V5.72ZM7.23483 10.2083H9.10963V14.9946H9.09088V16.0895C9.09088 16.1495 9.10588 16.2057 9.10963 16.2657V18.7479H7.23483V10.2083Z" fill="#121212"/>
</svg>
