<svg width="32" height="32" viewBox="0 0 32 32" fill="none" xmlns="http://www.w3.org/2000/svg">
<path d="M25.1071 2.99258H24.0357C23.6572 2.99258 23.35 3.29974 23.35 3.67829C23.35 4.05685 23.6572 4.36401 24.0357 4.36401H25.1071C25.4857 4.36401 25.7929 4.05685 25.7929 3.67829C25.7929 3.29974 25.4857 2.99258 25.1071 2.99258ZM21.8929 2.99258H20.8214C20.4429 2.99258 20.1357 3.29974 20.1357 3.67829C20.1357 4.05685 20.4429 4.36401 20.8214 4.36401H21.8929C22.2714 4.36401 22.5786 4.05685 22.5786 3.67829C22.5786 3.29974 22.2714 2.99258 21.8929 2.99258ZM18.6786 2.99258H17.6071C17.2286 2.99258 16.9214 3.29974 16.9214 3.67829C16.9214 4.05685 17.2286 4.36401 17.6071 4.36401H18.6786C19.0571 4.36401 19.3643 4.05685 19.3643 3.67829C19.3643 3.29974 19.0571 2.99258 18.6786 2.99258ZM27.25 5.13544H4.75C4.37144 5.13544 4.06429 5.44259 4.06429 5.82115C4.06429 5.96414 4.10811 6.09695 4.18306 6.20686H2.60714C1.63716 6.20686 0.85 6.99402 0.85 7.96401V25.1069C0.85 26.0768 1.63716 26.864 2.60714 26.864H29.3929C30.3628 26.864 31.15 26.0768 31.15 25.1069V7.96401C31.15 6.99402 30.3628 6.20686 29.3929 6.20686H27.8169C27.8919 6.09695 27.9357 5.96414 27.9357 5.82115C27.9357 5.44259 27.6286 5.13544 27.25 5.13544ZM5.31694 6.50686H26.6831C26.6081 6.61678 26.5643 6.74958 26.5643 6.89258C26.5643 7.27114 26.8714 7.57829 27.25 7.57829H29.3929C29.6057 7.57829 29.7786 7.75113 29.7786 7.96401V25.1069C29.7786 25.3197 29.6057 25.4926 29.3929 25.4926H2.60714C2.39427 25.4926 2.22143 25.3197 2.22143 25.1069V7.96401C2.22143 7.75113 2.39427 7.57829 2.60714 7.57829H4.75C5.12856 7.57829 5.43571 7.27114 5.43571 6.89258C5.43571 6.74958 5.39189 6.61678 5.31694 6.50686Z" fill="#121212" stroke="#121212" stroke-width="0.3"/>
<path d="M11.6082 30.2233L13.2152 25.9378C13.2153 25.9377 13.2153 25.9377 13.2153 25.9376L13.2153 25.9376L13.3558 25.9902C13.4592 25.7133 13.7683 25.5729 14.0452 25.6769L11.6082 30.2233ZM11.6082 30.2233C11.6082 30.2233 11.6082 30.2233 11.6082 30.2233M11.6082 30.2233L11.6082 30.2233M11.6082 30.2233C11.4752 30.5776 11.6547 30.9734 12.0094 31.1059M11.6082 30.2233L12.0094 31.1059M12.0094 31.1059C12.3637 31.2388 12.7594 31.0594 12.8919 30.7047L12.0094 31.1059ZM17.9024 25.5363C17.5476 25.6688 17.3681 26.0646 17.501 26.419C17.501 26.419 17.501 26.419 17.5011 26.419L19.1081 30.7045L18.6443 25.9902L18.7848 25.9376M17.9024 25.5363L17.9549 25.6769L17.9022 25.5364C17.9023 25.5364 17.9023 25.5364 17.9024 25.5363ZM17.9024 25.5363C18.2567 25.4035 18.6523 25.5829 18.7848 25.9376M18.7848 25.9376L18.7849 25.9378M18.7848 25.9376L18.7849 25.9378M18.7849 25.9378L20.3919 30.2233C20.3919 30.2233 20.3919 30.2233 20.3919 30.2233C20.5249 30.5777 20.3455 30.9734 19.9907 31.1059M18.7849 25.9378L19.1082 30.7047C19.2407 31.0594 19.6364 31.2388 19.9907 31.1059M19.9907 31.1059C19.9907 31.1059 19.9906 31.1059 19.9906 31.106L19.9381 30.9654L19.9908 31.1059C19.9908 31.1059 19.9907 31.1059 19.9907 31.1059ZM14.4991 26.419C14.632 26.0647 14.4526 25.6689 14.0978 25.5364L12.892 30.7045L14.4991 26.419Z" fill="#121212" stroke="#121212" stroke-width="0.3"/>
<path d="M11.1786 31.15H20.8215C21.2001 31.15 21.5072 30.8428 21.5072 30.4643C21.5072 30.0857 21.2001 29.7786 20.8215 29.7786H11.1786C10.8001 29.7786 10.4929 30.0857 10.4929 30.4643C10.4929 30.8428 10.8001 31.15 11.1786 31.15ZM27.9358 22.9643V2.60714C27.9358 1.63716 27.1486 0.85 26.1786 0.85H5.8215C4.85151 0.85 4.06436 1.63716 4.06436 2.60714V22.9643C4.06436 23.3428 4.37151 23.65 4.75007 23.65C5.12863 23.65 5.43578 23.3428 5.43578 22.9643V2.60714C5.43578 2.39427 5.60863 2.22143 5.8215 2.22143H26.1786C26.3915 2.22143 26.5644 2.39427 26.5644 2.60714V22.9643C26.5644 23.3428 26.8715 23.65 27.2501 23.65C27.6286 23.65 27.9358 23.3428 27.9358 22.9643Z" fill="#121212" stroke="#121212" stroke-width="0.3"/>
<mask id="path-4-outside-1_97_986" maskUnits="userSpaceOnUse" x="0" y="6.42871" width="32" height="18" fill="black">
<rect fill="white" y="6.42871" width="32" height="18"/>
<path fill-rule="evenodd" clip-rule="evenodd" d="M1.53571 23.5001H30.4643C30.76 23.5001 31 23.2601 31 22.9644C31 22.6687 30.76 22.4287 30.4643 22.4287H1.53571C1.24 22.4287 1 22.6687 1 22.9644C1 23.2601 1.24 23.5001 1.53571 23.5001ZM14.3929 9.28175V7.96443C14.3929 7.66871 14.6329 7.42871 14.9286 7.42871H17.0714C17.3671 7.42871 17.6071 7.66871 17.6071 7.96443V9.28175C17.9098 9.3771 18.2007 9.49817 18.4771 9.64282L19.4093 8.71068C19.6182 8.50175 19.9579 8.50175 20.1668 8.71068L21.6823 10.2262C21.8912 10.4351 21.8912 10.7748 21.6823 10.9837L20.7502 11.9159C20.8948 12.1923 21.0164 12.4832 21.1112 12.7859H22.4286C22.7243 12.7859 22.9643 13.0259 22.9643 13.3216V15.4644C22.9643 15.7601 22.7243 16.0001 22.4286 16.0001H21.1112C21.0159 16.3028 20.8948 16.5937 20.7502 16.8701L21.6823 17.8023C21.8912 18.0112 21.8912 18.3509 21.6823 18.5598L20.1668 20.0753C19.9579 20.2842 19.6182 20.2842 19.4093 20.0753L18.4771 19.1432C18.2007 19.2878 17.9098 19.4094 17.6071 19.5042V20.8216C17.6071 21.1173 17.3671 21.3573 17.0714 21.3573H14.9286C14.6329 21.3573 14.3929 21.1173 14.3929 20.8216V19.5042C14.0902 19.4089 13.7993 19.2878 13.5229 19.1432L12.5907 20.0753C12.3818 20.2842 12.0421 20.2842 11.8332 20.0753L10.3177 18.5598C10.1087 18.3509 10.1087 18.0112 10.3177 17.8023L11.2498 16.8701C11.1052 16.5937 10.9836 16.3028 10.8887 16.0001H9.57143C9.27571 16.0001 9.03571 15.7601 9.03571 15.4644V13.3216C9.03571 13.0259 9.27571 12.7859 9.57143 12.7859H10.8887C10.9841 12.4832 11.1052 12.1923 11.2498 11.9159L10.3177 10.9837C10.1087 10.7748 10.1087 10.4351 10.3177 10.2262L11.8332 8.71068C12.0421 8.50175 12.3818 8.50175 12.5907 8.71068L13.5229 9.64282C13.7993 9.49817 14.0902 9.37657 14.3929 9.28175ZM16.5357 8.50014H15.4643V9.69103C15.4643 9.94121 15.2912 10.1582 15.0475 10.2139C14.5696 10.3221 14.1218 10.5107 13.7195 10.7646C13.5079 10.898 13.232 10.8675 13.0546 10.6901L12.212 9.84746L11.4545 10.605L12.2971 11.4476C12.4745 11.625 12.505 11.9009 12.3716 12.1125C12.1177 12.5148 11.9291 12.9626 11.8209 13.4405C11.7652 13.6842 11.5482 13.8573 11.298 13.8573H10.1071V14.9287H11.298C11.5482 14.9287 11.7652 15.1017 11.8209 15.3455C11.9291 15.8234 12.1177 16.2712 12.3716 16.6735C12.505 16.8851 12.4745 17.161 12.2971 17.3384L11.4545 18.181L12.212 18.9385L13.0546 18.0959C13.232 17.9185 13.5079 17.888 13.7195 18.0214C14.1218 18.2753 14.5696 18.4639 15.0475 18.5721C15.2912 18.6278 15.4643 18.8448 15.4643 19.095V20.2859H16.5357V19.095C16.5357 18.8448 16.7087 18.6278 16.9525 18.5721C17.4304 18.4639 17.8782 18.2753 18.2805 18.0214C18.4921 17.888 18.768 17.9185 18.9454 18.0959L19.788 18.9385L20.5455 18.181L19.7029 17.3384C19.5255 17.161 19.495 16.8851 19.6284 16.6735C19.8823 16.2712 20.0709 15.8234 20.1791 15.3455C20.2348 15.1017 20.4518 14.9287 20.702 14.9287H21.8929V13.8573H20.702C20.4518 13.8573 20.2348 13.6842 20.1791 13.4405C20.0709 12.9626 19.8823 12.5148 19.6284 12.1125C19.495 11.9009 19.5255 11.625 19.7029 11.4476L20.5455 10.605L19.788 9.84746L18.9454 10.6901C18.768 10.8675 18.4921 10.898 18.2805 10.7646C17.8782 10.5107 17.4304 10.3221 16.9525 10.2139C16.7087 10.1582 16.5357 9.94121 16.5357 9.69103V8.50014Z"/>
</mask>
<path fill-rule="evenodd" clip-rule="evenodd" d="M1.53571 23.5001H30.4643C30.76 23.5001 31 23.2601 31 22.9644C31 22.6687 30.76 22.4287 30.4643 22.4287H1.53571C1.24 22.4287 1 22.6687 1 22.9644C1 23.2601 1.24 23.5001 1.53571 23.5001ZM14.3929 9.28175V7.96443C14.3929 7.66871 14.6329 7.42871 14.9286 7.42871H17.0714C17.3671 7.42871 17.6071 7.66871 17.6071 7.96443V9.28175C17.9098 9.3771 18.2007 9.49817 18.4771 9.64282L19.4093 8.71068C19.6182 8.50175 19.9579 8.50175 20.1668 8.71068L21.6823 10.2262C21.8912 10.4351 21.8912 10.7748 21.6823 10.9837L20.7502 11.9159C20.8948 12.1923 21.0164 12.4832 21.1112 12.7859H22.4286C22.7243 12.7859 22.9643 13.0259 22.9643 13.3216V15.4644C22.9643 15.7601 22.7243 16.0001 22.4286 16.0001H21.1112C21.0159 16.3028 20.8948 16.5937 20.7502 16.8701L21.6823 17.8023C21.8912 18.0112 21.8912 18.3509 21.6823 18.5598L20.1668 20.0753C19.9579 20.2842 19.6182 20.2842 19.4093 20.0753L18.4771 19.1432C18.2007 19.2878 17.9098 19.4094 17.6071 19.5042V20.8216C17.6071 21.1173 17.3671 21.3573 17.0714 21.3573H14.9286C14.6329 21.3573 14.3929 21.1173 14.3929 20.8216V19.5042C14.0902 19.4089 13.7993 19.2878 13.5229 19.1432L12.5907 20.0753C12.3818 20.2842 12.0421 20.2842 11.8332 20.0753L10.3177 18.5598C10.1087 18.3509 10.1087 18.0112 10.3177 17.8023L11.2498 16.8701C11.1052 16.5937 10.9836 16.3028 10.8887 16.0001H9.57143C9.27571 16.0001 9.03571 15.7601 9.03571 15.4644V13.3216C9.03571 13.0259 9.27571 12.7859 9.57143 12.7859H10.8887C10.9841 12.4832 11.1052 12.1923 11.2498 11.9159L10.3177 10.9837C10.1087 10.7748 10.1087 10.4351 10.3177 10.2262L11.8332 8.71068C12.0421 8.50175 12.3818 8.50175 12.5907 8.71068L13.5229 9.64282C13.7993 9.49817 14.0902 9.37657 14.3929 9.28175ZM16.5357 8.50014H15.4643V9.69103C15.4643 9.94121 15.2912 10.1582 15.0475 10.2139C14.5696 10.3221 14.1218 10.5107 13.7195 10.7646C13.5079 10.898 13.232 10.8675 13.0546 10.6901L12.212 9.84746L11.4545 10.605L12.2971 11.4476C12.4745 11.625 12.505 11.9009 12.3716 12.1125C12.1177 12.5148 11.9291 12.9626 11.8209 13.4405C11.7652 13.6842 11.5482 13.8573 11.298 13.8573H10.1071V14.9287H11.298C11.5482 14.9287 11.7652 15.1017 11.8209 15.3455C11.9291 15.8234 12.1177 16.2712 12.3716 16.6735C12.505 16.8851 12.4745 17.161 12.2971 17.3384L11.4545 18.181L12.212 18.9385L13.0546 18.0959C13.232 17.9185 13.5079 17.888 13.7195 18.0214C14.1218 18.2753 14.5696 18.4639 15.0475 18.5721C15.2912 18.6278 15.4643 18.8448 15.4643 19.095V20.2859H16.5357V19.095C16.5357 18.8448 16.7087 18.6278 16.9525 18.5721C17.4304 18.4639 17.8782 18.2753 18.2805 18.0214C18.4921 17.888 18.768 17.9185 18.9454 18.0959L19.788 18.9385L20.5455 18.181L19.7029 17.3384C19.5255 17.161 19.495 16.8851 19.6284 16.6735C19.8823 16.2712 20.0709 15.8234 20.1791 15.3455C20.2348 15.1017 20.4518 14.9287 20.702 14.9287H21.8929V13.8573H20.702C20.4518 13.8573 20.2348 13.6842 20.1791 13.4405C20.0709 12.9626 19.8823 12.5148 19.6284 12.1125C19.495 11.9009 19.5255 11.625 19.7029 11.4476L20.5455 10.605L19.788 9.84746L18.9454 10.6901C18.768 10.8675 18.4921 10.898 18.2805 10.7646C17.8782 10.5107 17.4304 10.3221 16.9525 10.2139C16.7087 10.1582 16.5357 9.94121 16.5357 9.69103V8.50014Z" fill="#121212"/>
<path fill-rule="evenodd" clip-rule="evenodd" d="M1.53571 23.5001H30.4643C30.76 23.5001 31 23.2601 31 22.9644C31 22.6687 30.76 22.4287 30.4643 22.4287H1.53571C1.24 22.4287 1 22.6687 1 22.9644C1 23.2601 1.24 23.5001 1.53571 23.5001ZM14.3929 9.28175V7.96443C14.3929 7.66871 14.6329 7.42871 14.9286 7.42871H17.0714C17.3671 7.42871 17.6071 7.66871 17.6071 7.96443V9.28175C17.9098 9.3771 18.2007 9.49817 18.4771 9.64282L19.4093 8.71068C19.6182 8.50175 19.9579 8.50175 20.1668 8.71068L21.6823 10.2262C21.8912 10.4351 21.8912 10.7748 21.6823 10.9837L20.7502 11.9159C20.8948 12.1923 21.0164 12.4832 21.1112 12.7859H22.4286C22.7243 12.7859 22.9643 13.0259 22.9643 13.3216V15.4644C22.9643 15.7601 22.7243 16.0001 22.4286 16.0001H21.1112C21.0159 16.3028 20.8948 16.5937 20.7502 16.8701L21.6823 17.8023C21.8912 18.0112 21.8912 18.3509 21.6823 18.5598L20.1668 20.0753C19.9579 20.2842 19.6182 20.2842 19.4093 20.0753L18.4771 19.1432C18.2007 19.2878 17.9098 19.4094 17.6071 19.5042V20.8216C17.6071 21.1173 17.3671 21.3573 17.0714 21.3573H14.9286C14.6329 21.3573 14.3929 21.1173 14.3929 20.8216V19.5042C14.0902 19.4089 13.7993 19.2878 13.5229 19.1432L12.5907 20.0753C12.3818 20.2842 12.0421 20.2842 11.8332 20.0753L10.3177 18.5598C10.1087 18.3509 10.1087 18.0112 10.3177 17.8023L11.2498 16.8701C11.1052 16.5937 10.9836 16.3028 10.8887 16.0001H9.57143C9.27571 16.0001 9.03571 15.7601 9.03571 15.4644V13.3216C9.03571 13.0259 9.27571 12.7859 9.57143 12.7859H10.8887C10.9841 12.4832 11.1052 12.1923 11.2498 11.9159L10.3177 10.9837C10.1087 10.7748 10.1087 10.4351 10.3177 10.2262L11.8332 8.71068C12.0421 8.50175 12.3818 8.50175 12.5907 8.71068L13.5229 9.64282C13.7993 9.49817 14.0902 9.37657 14.3929 9.28175ZM16.5357 8.50014H15.4643V9.69103C15.4643 9.94121 15.2912 10.1582 15.0475 10.2139C14.5696 10.3221 14.1218 10.5107 13.7195 10.7646C13.5079 10.898 13.232 10.8675 13.0546 10.6901L12.212 9.84746L11.4545 10.605L12.2971 11.4476C12.4745 11.625 12.505 11.9009 12.3716 12.1125C12.1177 12.5148 11.9291 12.9626 11.8209 13.4405C11.7652 13.6842 11.5482 13.8573 11.298 13.8573H10.1071V14.9287H11.298C11.5482 14.9287 11.7652 15.1017 11.8209 15.3455C11.9291 15.8234 12.1177 16.2712 12.3716 16.6735C12.505 16.8851 12.4745 17.161 12.2971 17.3384L11.4545 18.181L12.212 18.9385L13.0546 18.0959C13.232 17.9185 13.5079 17.888 13.7195 18.0214C14.1218 18.2753 14.5696 18.4639 15.0475 18.5721C15.2912 18.6278 15.4643 18.8448 15.4643 19.095V20.2859H16.5357V19.095C16.5357 18.8448 16.7087 18.6278 16.9525 18.5721C17.4304 18.4639 17.8782 18.2753 18.2805 18.0214C18.4921 17.888 18.768 17.9185 18.9454 18.0959L19.788 18.9385L20.5455 18.181L19.7029 17.3384C19.5255 17.161 19.495 16.8851 19.6284 16.6735C19.8823 16.2712 20.0709 15.8234 20.1791 15.3455C20.2348 15.1017 20.4518 14.9287 20.702 14.9287H21.8929V13.8573H20.702C20.4518 13.8573 20.2348 13.6842 20.1791 13.4405C20.0709 12.9626 19.8823 12.5148 19.6284 12.1125C19.495 11.9009 19.5255 11.625 19.7029 11.4476L20.5455 10.605L19.788 9.84746L18.9454 10.6901C18.768 10.8675 18.4921 10.898 18.2805 10.7646C17.8782 10.5107 17.4304 10.3221 16.9525 10.2139C16.7087 10.1582 16.5357 9.94121 16.5357 9.69103V8.50014Z" stroke="#121212" stroke-width="0.6" mask="url(#path-4-outside-1_97_986)"/>
<path d="M15.9999 11.0287C14.1433 11.0287 12.6356 12.5364 12.6356 14.393C12.6356 16.2496 14.1433 17.7573 15.9999 17.7573C17.8565 17.7573 19.3642 16.2496 19.3642 14.393C19.3642 12.5364 17.8565 11.0287 15.9999 11.0287ZM15.9999 12.4001C17.0999 12.4001 17.9928 13.293 17.9928 14.393C17.9928 15.493 17.0999 16.3859 15.9999 16.3859C14.8999 16.3859 14.0071 15.493 14.0071 14.393C14.0071 13.293 14.8999 12.4001 15.9999 12.4001Z" fill="#121212" stroke="#121212" stroke-width="0.3"/>
</svg>
