<svg width="24" height="43" viewBox="0 0 24 43" fill="none" xmlns="http://www.w3.org/2000/svg">
<path d="M22.9919 2.53936V40.4607C22.9919 41.3064 22.3062 41.9922 21.4603 41.9922H2.74639C1.90062 41.9922 1.21484 41.3066 1.21484 40.4607V2.53936C1.21484 1.69359 1.90049 1.00781 2.74639 1.00781H21.4605C22.3062 1.00781 22.9919 1.69356 22.9919 2.53936Z" stroke="#121212"/>
<path d="M3.92334 39.2834V3.71631H20.2834V39.2834H3.92334Z" stroke="#121212"/>
<path d="M16.5715 20.4519L16.6626 20.8365H17.058H18.3395C18.4538 20.8365 18.5478 20.93 18.5478 21.0448V21.9498C18.5478 22.0646 18.4538 22.1581 18.3395 22.1581H17.058H16.6617L16.5712 22.5439C16.4544 23.0419 16.2619 23.5012 16.0005 23.9136L15.7855 24.2528L16.0704 24.5359L16.9799 25.4398C16.98 25.4399 16.9801 25.4401 16.9802 25.4402C17.0598 25.5202 17.0599 25.6524 16.9805 25.7325C16.9803 25.7328 16.9801 25.733 16.9799 25.7332L16.3351 26.3724L16.3335 26.374C16.2533 26.4541 16.1259 26.4541 16.0457 26.374L16.0446 26.3729L15.1341 25.4679L14.8509 25.1865L14.5138 25.4003C14.1017 25.6616 13.6423 25.854 13.1442 25.9709L12.7584 26.0614V26.4577V27.7336C12.7584 27.8535 12.6649 27.9418 12.5557 27.9418H11.6451C11.536 27.9418 11.4425 27.8535 11.4425 27.7336V26.4577V26.0574L11.052 25.9698C10.5605 25.8595 10.1015 25.6633 9.67907 25.3988L9.34165 25.1874L9.06012 25.469L8.15512 26.374C8.07495 26.4541 7.94751 26.4541 7.86734 26.374L7.8658 26.3724L7.22099 25.7332C7.22078 25.733 7.22057 25.7328 7.22037 25.7326C7.14081 25.6523 7.14102 25.5198 7.22099 25.4398L8.12599 24.5348L8.40663 24.2542L8.197 23.9172C7.93765 23.5002 7.74022 23.039 7.62406 22.5439L7.53355 22.1581H7.13728H5.86136C5.7522 22.1581 5.65869 22.0697 5.65869 21.9498V21.0448C5.65869 20.9249 5.7522 20.8365 5.86136 20.8365H7.14287H7.53915L7.62965 20.4507C7.7465 19.9527 7.93891 19.4935 8.20033 19.0811L8.41536 18.7418L8.13049 18.4587L7.22099 17.5548C7.22087 17.5547 7.22075 17.5546 7.22063 17.5544C7.141 17.4744 7.14094 17.3421 7.22043 17.262C7.22062 17.2618 7.2208 17.2616 7.22099 17.2614L7.8658 16.6222L7.86734 16.6207C7.94751 16.5405 8.07494 16.5405 8.15512 16.6207L8.15621 16.6218L9.06681 17.5268L9.34742 17.8056L9.68336 17.5967C10.0995 17.3378 10.565 17.1408 11.053 17.0302L11.4425 16.9419V16.5426V15.2666C11.4425 15.1467 11.536 15.0584 11.6451 15.0584H12.5557C12.6649 15.0584 12.7584 15.1467 12.7584 15.2666V16.5426V16.9388L13.1442 17.0293C13.6423 17.1462 14.1017 17.3386 14.5138 17.6L14.852 17.8144L15.1351 17.5313L16.0457 16.6207C16.1259 16.5405 16.2533 16.5405 16.3335 16.6207L16.3351 16.6222L16.9799 17.2614C16.98 17.2616 16.9802 17.2618 16.9804 17.262C17.06 17.3422 17.0599 17.4748 16.9799 17.5548L16.0693 18.4654L15.7862 18.7485L16.0005 19.0866C16.2621 19.4993 16.4546 19.9589 16.5715 20.4519ZM6.20994 1.00781H17.9969V2.60631C17.9969 3.07815 17.6143 3.46073 17.1425 3.46073H7.06436C6.59252 3.46073 6.20994 3.07815 6.20994 2.60631V1.00781ZM9.05988 21.5C9.05988 23.1813 10.4192 24.5407 12.1005 24.5407C13.7804 24.5407 15.1468 23.1827 15.1468 21.5C15.1468 19.8171 13.7804 18.4594 12.1005 18.4594C10.4192 18.4594 9.05988 19.8187 9.05988 21.5Z" fill="white" stroke="#121212"/>
<path d="M16.5715 20.4521L16.6626 20.8368H17.058H18.3395C18.4538 20.8368 18.5478 20.9303 18.5478 21.045V21.95C18.5478 22.0648 18.4538 22.1583 18.3395 22.1583H17.058H16.6617L16.5712 22.5441C16.4544 23.0422 16.2619 23.5014 16.0005 23.9138L15.7855 24.253L16.0704 24.5361L16.9799 25.44C16.98 25.4402 16.9801 25.4403 16.9802 25.4404C17.0599 25.5204 17.0599 25.6528 16.9803 25.7329C16.9802 25.7331 16.98 25.7333 16.9799 25.7334L16.3351 26.3726L16.3335 26.3742C16.2533 26.4543 16.1259 26.4543 16.0457 26.3742L16.0446 26.3731L15.1341 25.4681L14.8509 25.1867L14.5138 25.4005C14.1017 25.6618 13.6423 25.8542 13.1442 25.9711L12.7584 26.0616V26.4579V27.7338C12.7584 27.8537 12.6649 27.9421 12.5557 27.9421H11.6451C11.536 27.9421 11.4425 27.8537 11.4425 27.7338V26.4579V26.0577L11.052 25.97C10.5605 25.8597 10.1015 25.6635 9.67907 25.399L9.34165 25.1876L9.06012 25.4692L8.15512 26.3742C8.07494 26.4543 7.94751 26.4543 7.86734 26.3742L7.8658 26.3726L7.22099 25.7334C7.22082 25.7333 7.22066 25.7331 7.22049 25.7329C7.14081 25.6527 7.14098 25.5201 7.22099 25.44L8.12599 24.535L8.40663 24.2544L8.19701 23.9174C7.93765 23.5004 7.74022 23.0393 7.62406 22.5441L7.53355 22.1583H7.13728H5.86136C5.7522 22.1583 5.65869 22.07 5.65869 21.95V21.045C5.65869 20.9251 5.7522 20.8368 5.86136 20.8368H7.14287H7.53915L7.62965 20.451C7.7465 19.9529 7.93891 19.4937 8.20033 19.0813L8.41536 18.7421L8.13049 18.4589L7.22099 17.555C7.22086 17.5549 7.22073 17.5548 7.2206 17.5546C7.14099 17.4746 7.14094 17.3423 7.22045 17.2622L7.8658 16.6224L7.8658 16.6224L7.86734 16.6209C7.94751 16.5407 8.07495 16.5407 8.15512 16.6209L8.15621 16.622L9.06681 17.527L9.34742 17.8059L9.68336 17.5969C10.0995 17.3381 10.565 17.141 11.053 17.0304L11.4425 16.9421V16.5428V15.2669C11.4425 15.1469 11.536 15.0586 11.6451 15.0586H12.5557C12.6649 15.0586 12.7584 15.1469 12.7584 15.2669V16.5428V16.939L13.1442 17.0296C13.6423 17.1464 14.1017 17.3388 14.5138 17.6002L14.852 17.8146L15.1351 17.5315L16.0457 16.6209C16.1259 16.5407 16.2533 16.5407 16.3335 16.6209L16.3351 16.6224L16.9799 17.2616C16.98 17.2618 16.9802 17.262 16.9804 17.2621C17.06 17.3424 17.0599 17.475 16.9799 17.555L16.0693 18.4656L15.7862 18.7487L16.0005 19.0869C16.2621 19.4995 16.4546 19.9591 16.5715 20.4521ZM9.05988 21.5002C9.05988 23.1815 10.4192 24.5409 12.1005 24.5409C13.7804 24.5409 15.1468 23.183 15.1468 21.5002C15.1468 19.8173 13.7804 18.4596 12.1005 18.4596C10.4192 18.4596 9.05988 19.8189 9.05988 21.5002Z" fill="white" stroke="#121212"/>
<path d="M6.21812 0.515586H5.71812V1.01559V2.60666C5.71812 3.34975 6.32147 3.95311 7.06457 3.95311H17.1425C17.8856 3.95311 18.4889 3.34976 18.4889 2.60666V1.01559V0.515586H17.9889H6.21812ZM5.70235 1.01577V0.515773H5.20235H2.74637C1.63008 0.515773 0.722804 1.42332 0.722804 2.53934V40.4607C0.722804 41.5765 1.63004 42.4842 2.74637 42.4842H21.4607C22.5765 42.4842 23.4843 41.5768 23.4843 40.4607V2.53934C23.4843 1.4235 22.5768 0.515773 21.4607 0.515773H19.0047H18.5047V1.01577V2.60685C18.5047 3.35767 17.8933 3.96907 17.1425 3.96907H7.06457C6.31406 3.96907 5.70235 3.3576 5.70235 2.60685V1.01577ZM21.4607 42.5H2.74637C1.62226 42.5 0.707031 41.5845 0.707031 40.4607V2.53934C0.707031 1.41551 1.62226 0.5 2.74637 0.5H2.79271H2.83893H2.88504H2.93103H2.9769H3.02266H3.06831H3.11384H3.15926H3.20457H3.24976H3.29484H3.33981H3.38467H3.42942H3.47406H3.51859H3.563H3.60732H3.65152H3.69561H3.7396H3.78348H3.82725H3.87092H3.91448H3.95794H4.00129H4.04454H4.08769H4.13073H4.17367H4.2165H4.25924H4.30187H4.3444H4.38684H4.42917H4.4714H4.51353H4.55557H4.5975H4.63934H4.68109H4.72273H4.76428H4.80573H4.84709H4.88835H4.92952H4.97059H5.01157H5.05246H5.09325H5.13396H5.17457H5.21509H5.25551H5.29585H5.3361H5.37626H5.41633H5.45631H5.4962H5.53601H5.57573H5.61536H5.65491H5.69437H5.73374H5.77303H5.81224H5.85136H5.8904H5.92935H5.96823H6.00702H6.04573H6.08435H6.1229H6.16137H6.19976H6.23806H6.27629H6.31445H6.35252H6.39051H6.42843H6.46627H6.50404H6.54173H6.57935H6.61689H6.65435H6.69175H6.72907H6.76631H6.80349H6.84059H6.87762H6.91458H6.95147H6.98829H7.02504H7.06172H7.09833H7.13487H7.17135H7.20776H7.2441H7.28038H7.31658H7.35273H7.38881H7.42482H7.46077H7.49666H7.53248H7.56824H7.60394H7.63958H7.67515H7.71067H7.74612H7.78151H7.81685H7.85212H7.88734H7.9225H7.9576H7.99265H8.02763H8.06256H8.09744H8.13226H8.16702H8.20174H8.23639H8.271H8.30554H8.34004H8.37449H8.40888H8.44322H8.47752H8.51176H8.54595H8.58009H8.61419H8.64823H8.68223H8.71618H8.75008H8.78394H8.81775H8.85151H8.88523H8.9189H8.95253H8.98612H9.01966H9.05316H9.08662H9.12003H9.15341H9.18674H9.22003H9.25328H9.2865H9.31967H9.3528H9.3859H9.41896H9.45198H9.48496H9.51791H9.55082H9.5837H9.61654H9.64934H9.68211H9.71485H9.74756H9.78023H9.81287H9.84548H9.87805H9.9106H9.94312H9.9756H10.0081H10.0405H10.0729H10.1053H10.1376H10.1699H10.2022H10.2345H10.2667H10.2989H10.3311H10.3632H10.3954H10.4275H10.4596H10.4917H10.5237H10.5557H10.5877H10.6197H10.6517H10.6836H10.7155H10.7474H10.7793H10.8112H10.843H10.8749H10.9067H10.9385H10.9703H11.002H11.0338H11.0655H11.0972H11.129H11.1607H11.1923H11.224H11.2557H11.2873H11.319H11.3506H11.3822H11.4138H11.4454H11.477H11.5086H11.5402H11.5718H11.6033H11.6349H11.6664H11.698H11.7295H11.7611H11.7926H11.8241H11.8557H11.8872H11.9187H11.9502H11.9818H12.0133H12.0448H12.0763H12.1078H12.1394H12.1709H12.2024H12.234H12.2655H12.297H12.3286H12.3601H12.3917H12.4232H12.4548H12.4864H12.5179H12.5495H12.5811H12.6127H12.6443H12.6759H12.7076H12.7392H12.7708H12.8025H12.8342H12.8658H12.8975H12.9292H12.961H12.9927H13.0244H13.0562H13.088H13.1198H13.1516H13.1834H13.2152H13.2471H13.279H13.3109H13.3428H13.3747H13.4067H13.4387H13.4706H13.5027H13.5347H13.5668H13.5988H13.6309H13.6631H13.6952H13.7274H13.7596H13.7918H13.8241H13.8563H13.8887H13.921H13.9533H13.9857H14.0181H14.0506H14.0831H14.1156H14.1481H14.1807H14.2133H14.2459H14.2785H14.3112H14.344H14.3767H14.4095H14.4423H14.4752H14.5081H14.541H14.574H14.607H14.6401H14.6731H14.7063H14.7394H14.7726H14.8058H14.8391H14.8724H14.9058H14.9392H14.9726H15.0061H15.0396H15.0732H15.1068H15.1405H15.1742H15.2079H15.2417H15.2756H15.3094H15.3434H15.3773H15.4114H15.4455H15.4796H15.5137H15.548H15.5822H15.6166H15.6509H15.6854H15.7198H15.7544H15.7889H15.8236H15.8583H15.893H15.9278H15.9627H15.9976H16.0325H16.0676H16.1026H16.1378H16.173H16.2082H16.2435H16.2789H16.3143H16.3498H16.3854H16.421H16.4567H16.4924H16.5282H16.5641H16.6H16.636H16.672H16.7081H16.7443H16.7806H16.8169H16.8533H16.8897H16.9262H16.9628H16.9995H17.0362H17.073H17.1099H17.1468H17.1838H17.2209H17.258H17.2952H17.3325H17.3699H17.4073H17.4448H17.4824H17.5201H17.5578H17.5956H17.6335H17.6715H17.7095H17.7476H17.7858H17.8241H17.8625H17.9009H17.9394H17.978H18.0167H18.0555H18.0943H18.1332H18.1722H18.2113H18.2505H18.2898H18.3291H18.3685H18.408H18.4476H18.4873H18.5271H18.5669H18.6069H18.6469H18.687H18.7273H18.7676H18.808H18.8484H18.889H18.9297H18.9704H19.0113H19.0522H19.0933H19.1344H19.1756H19.2169H19.2584H19.2999H19.3415H19.3832H19.425H19.4669H19.5089H19.551H19.5932H19.6355H19.6778H19.7203H19.7629H19.8056H19.8484H19.8913H19.9343H19.9774H20.0206H20.0639H20.1074H20.1509H20.1945H20.2382H20.2821H20.326H20.3701H20.4142H20.4585H20.5029H20.5474H20.592H20.6367H20.6815H20.7264H20.7714H20.8166H20.8619H20.9072H20.9527H20.9983H21.044H21.0899H21.1358H21.1819H21.228H21.2743H21.3208H21.3673H21.4139H21.4607C22.5845 0.5 23.5 1.41555 23.5 2.53934V40.4607C23.5 41.5844 22.5845 42.5 21.4607 42.5Z" fill="#121212" stroke="#121212"/>
<mask id="path-6-inside-1_97_1033" fill="white">
<path d="M16.8126 39.2763H7.39442C7.11395 39.2763 6.88662 39.5038 6.88662 39.7841C6.88662 40.0646 7.11413 40.2919 7.39442 40.2919H16.8126C17.093 40.2919 17.3203 40.0644 17.3203 39.7841C17.3205 39.5038 17.093 39.2763 16.8126 39.2763ZM5.8619 23.1659H6.75068C6.85156 23.4859 6.98117 23.7975 7.13912 24.097L6.50862 24.7271C6.03663 25.2004 6.03216 25.97 6.51067 26.4472L7.15572 27.0867C7.62789 27.5589 8.39639 27.5589 8.86856 27.0867L9.49776 26.4579C9.80061 26.6179 10.1141 26.7488 10.4352 26.848V27.7334C10.4352 28.404 10.9781 28.9495 11.6457 28.9495H12.5563C13.2239 28.9495 13.7667 28.4038 13.7667 27.7334V26.8454C14.0921 26.7441 14.4041 26.6145 14.7001 26.4579L15.3336 27.0874C15.8063 27.5583 16.5744 27.5576 17.0453 27.0882L17.692 26.4467C18.1642 25.976 18.1709 25.2054 17.6913 24.726L17.0583 24.0977C17.215 23.8022 17.3446 23.4907 17.4459 23.1659H18.3398C19.0104 23.1659 19.5559 22.6202 19.5559 21.9498V21.0452C19.5559 20.3746 19.0103 19.8291 18.3398 19.8291H17.4451C17.3433 19.5063 17.2142 19.1962 17.0583 18.9027L17.6918 18.2685C18.164 17.7978 18.1707 17.0272 17.6911 16.5478L17.0457 15.9076C16.5735 15.4367 15.8061 15.4367 15.3328 15.9083L14.6986 16.5426C14.4026 16.3859 14.0912 16.2563 13.7662 16.1556V15.2668C13.7662 14.5962 13.2233 14.0508 12.5557 14.0508H11.6451C10.9775 14.0508 10.4346 14.5964 10.4346 15.2668V16.1536C10.1143 16.252 9.80284 16.3816 9.50279 16.5398L8.86763 15.9082C8.39583 15.436 7.62696 15.436 7.15646 15.9068L6.50806 16.5489C6.03477 17.0235 6.03309 17.7927 6.50937 18.269L7.14229 18.8978C6.98583 19.1934 6.85623 19.5043 6.75534 19.829H5.86134C5.19373 19.829 4.65088 20.3746 4.65088 21.045V21.9496C4.65144 22.6202 5.19429 23.1659 5.8619 23.1659ZM5.66702 21.045C5.66702 20.9326 5.75262 20.8447 5.86171 20.8447H7.14322C7.37894 20.8447 7.5837 20.6827 7.63759 20.4526C7.75358 19.9593 7.9451 19.4989 8.2073 19.0856C8.33485 18.8846 8.30557 18.6215 8.13662 18.4535L7.22658 17.5494C7.14826 17.4705 7.15199 17.3422 7.22528 17.2684L7.87293 16.6263C7.95088 16.5497 8.07228 16.5483 8.15098 16.6276L9.0612 17.533C9.22848 17.6989 9.48731 17.7288 9.68778 17.6037C10.1156 17.3372 10.5756 17.1468 11.0551 17.0382C11.2861 16.986 11.4506 16.7803 11.4506 16.5429V15.2666C11.4506 15.1542 11.5362 15.0664 11.6453 15.0664H12.5559C12.665 15.0664 12.7506 15.1544 12.7506 15.2666V16.5429C12.7506 16.779 12.913 16.9834 13.1428 17.0377C13.6364 17.1535 14.0964 17.3444 14.5097 17.607C14.7116 17.7346 14.9736 17.7049 15.1409 17.5369L16.051 16.6269C16.1289 16.5489 16.252 16.5502 16.3297 16.6276L16.9746 17.2671C17.0524 17.3459 17.052 17.4722 16.9746 17.5494L16.064 18.46C15.8958 18.628 15.8669 18.8906 15.9943 19.0909C16.2557 19.5035 16.4476 19.9617 16.5647 20.4544C16.619 20.6832 16.8234 20.8445 17.0587 20.8445H18.3402C18.4506 20.8445 18.5405 20.9344 18.5405 21.0448V21.9495C18.5405 22.0599 18.4506 22.1497 18.3402 22.1497H17.0587C16.8234 22.1497 16.6182 22.3118 16.564 22.5412C16.4476 23.0359 16.2561 23.4961 15.9943 23.9094C15.8667 24.1104 15.896 24.3735 16.0649 24.5416L16.9746 25.4449C17.0531 25.5243 17.0509 25.651 16.9759 25.7259L16.3292 26.3674C16.2512 26.4461 16.1295 26.4461 16.0504 26.3667L15.1402 25.462C14.972 25.2948 14.7096 25.2662 14.51 25.3932C14.0968 25.6558 13.6367 25.8469 13.1431 25.9626C12.9134 26.0168 12.751 26.2212 12.751 26.4573V27.733C12.751 27.8455 12.6654 27.9333 12.5563 27.9333H11.6457C11.5366 27.9333 11.451 27.8453 11.451 27.733V26.4573C11.451 26.2199 11.2863 26.0137 11.0541 25.962C10.5773 25.855 10.1161 25.6631 9.68368 25.3919C9.6007 25.3397 9.50708 25.3145 9.41459 25.3145C9.2833 25.3145 9.15295 25.3655 9.05523 25.4634L8.15098 26.368C8.07359 26.4454 7.95125 26.4459 7.87219 26.3667L7.22714 25.7272C7.14994 25.6495 7.15087 25.5215 7.22751 25.4449L8.13252 24.5403C8.29942 24.3735 8.32926 24.1138 8.20469 23.9127C7.9382 23.4842 7.74575 23.0232 7.63274 22.5419C7.57885 22.3118 7.37409 22.1497 7.13838 22.1497H5.86246C5.75337 22.1497 5.66777 22.0617 5.66777 21.9495V21.045H5.66702Z"/>
</mask>
<path d="M16.8126 39.2763H7.39442C7.11395 39.2763 6.88662 39.5038 6.88662 39.7841C6.88662 40.0646 7.11413 40.2919 7.39442 40.2919H16.8126C17.093 40.2919 17.3203 40.0644 17.3203 39.7841C17.3205 39.5038 17.093 39.2763 16.8126 39.2763ZM5.8619 23.1659H6.75068C6.85156 23.4859 6.98117 23.7975 7.13912 24.097L6.50862 24.7271C6.03663 25.2004 6.03216 25.97 6.51067 26.4472L7.15572 27.0867C7.62789 27.5589 8.39639 27.5589 8.86856 27.0867L9.49776 26.4579C9.80061 26.6179 10.1141 26.7488 10.4352 26.848V27.7334C10.4352 28.404 10.9781 28.9495 11.6457 28.9495H12.5563C13.2239 28.9495 13.7667 28.4038 13.7667 27.7334V26.8454C14.0921 26.7441 14.4041 26.6145 14.7001 26.4579L15.3336 27.0874C15.8063 27.5583 16.5744 27.5576 17.0453 27.0882L17.692 26.4467C18.1642 25.976 18.1709 25.2054 17.6913 24.726L17.0583 24.0977C17.215 23.8022 17.3446 23.4907 17.4459 23.1659H18.3398C19.0104 23.1659 19.5559 22.6202 19.5559 21.9498V21.0452C19.5559 20.3746 19.0103 19.8291 18.3398 19.8291H17.4451C17.3433 19.5063 17.2142 19.1962 17.0583 18.9027L17.6918 18.2685C18.164 17.7978 18.1707 17.0272 17.6911 16.5478L17.0457 15.9076C16.5735 15.4367 15.8061 15.4367 15.3328 15.9083L14.6986 16.5426C14.4026 16.3859 14.0912 16.2563 13.7662 16.1556V15.2668C13.7662 14.5962 13.2233 14.0508 12.5557 14.0508H11.6451C10.9775 14.0508 10.4346 14.5964 10.4346 15.2668V16.1536C10.1143 16.252 9.80284 16.3816 9.50279 16.5398L8.86763 15.9082C8.39583 15.436 7.62696 15.436 7.15646 15.9068L6.50806 16.5489C6.03477 17.0235 6.03309 17.7927 6.50937 18.269L7.14229 18.8978C6.98583 19.1934 6.85623 19.5043 6.75534 19.829H5.86134C5.19373 19.829 4.65088 20.3746 4.65088 21.045V21.9496C4.65144 22.6202 5.19429 23.1659 5.8619 23.1659ZM5.66702 21.045C5.66702 20.9326 5.75262 20.8447 5.86171 20.8447H7.14322C7.37894 20.8447 7.5837 20.6827 7.63759 20.4526C7.75358 19.9593 7.9451 19.4989 8.2073 19.0856C8.33485 18.8846 8.30557 18.6215 8.13662 18.4535L7.22658 17.5494C7.14826 17.4705 7.15199 17.3422 7.22528 17.2684L7.87293 16.6263C7.95088 16.5497 8.07228 16.5483 8.15098 16.6276L9.0612 17.533C9.22848 17.6989 9.48731 17.7288 9.68778 17.6037C10.1156 17.3372 10.5756 17.1468 11.0551 17.0382C11.2861 16.986 11.4506 16.7803 11.4506 16.5429V15.2666C11.4506 15.1542 11.5362 15.0664 11.6453 15.0664H12.5559C12.665 15.0664 12.7506 15.1544 12.7506 15.2666V16.5429C12.7506 16.779 12.913 16.9834 13.1428 17.0377C13.6364 17.1535 14.0964 17.3444 14.5097 17.607C14.7116 17.7346 14.9736 17.7049 15.1409 17.5369L16.051 16.6269C16.1289 16.5489 16.252 16.5502 16.3297 16.6276L16.9746 17.2671C17.0524 17.3459 17.052 17.4722 16.9746 17.5494L16.064 18.46C15.8958 18.628 15.8669 18.8906 15.9943 19.0909C16.2557 19.5035 16.4476 19.9617 16.5647 20.4544C16.619 20.6832 16.8234 20.8445 17.0587 20.8445H18.3402C18.4506 20.8445 18.5405 20.9344 18.5405 21.0448V21.9495C18.5405 22.0599 18.4506 22.1497 18.3402 22.1497H17.0587C16.8234 22.1497 16.6182 22.3118 16.564 22.5412C16.4476 23.0359 16.2561 23.4961 15.9943 23.9094C15.8667 24.1104 15.896 24.3735 16.0649 24.5416L16.9746 25.4449C17.0531 25.5243 17.0509 25.651 16.9759 25.7259L16.3292 26.3674C16.2512 26.4461 16.1295 26.4461 16.0504 26.3667L15.1402 25.462C14.972 25.2948 14.7096 25.2662 14.51 25.3932C14.0968 25.6558 13.6367 25.8469 13.1431 25.9626C12.9134 26.0168 12.751 26.2212 12.751 26.4573V27.733C12.751 27.8455 12.6654 27.9333 12.5563 27.9333H11.6457C11.5366 27.9333 11.451 27.8453 11.451 27.733V26.4573C11.451 26.2199 11.2863 26.0137 11.0541 25.962C10.5773 25.855 10.1161 25.6631 9.68368 25.3919C9.6007 25.3397 9.50708 25.3145 9.41459 25.3145C9.2833 25.3145 9.15295 25.3655 9.05523 25.4634L8.15098 26.368C8.07359 26.4454 7.95125 26.4459 7.87219 26.3667L7.22714 25.7272C7.14994 25.6495 7.15087 25.5215 7.22751 25.4449L8.13252 24.5403C8.29942 24.3735 8.32926 24.1138 8.20469 23.9127C7.9382 23.4842 7.74575 23.0232 7.63274 22.5419C7.57885 22.3118 7.37409 22.1497 7.13838 22.1497H5.86246C5.75337 22.1497 5.66777 22.0617 5.66777 21.9495V21.045H5.66702Z" fill="#121212" stroke="#121212" stroke-width="2" mask="url(#path-6-inside-1_97_1033)"/>
<path d="M14.6551 21.5C14.6551 22.9041 13.5096 24.0487 12.1009 24.0487C10.6961 24.0487 9.55225 22.9048 9.55225 21.5C9.55225 20.0959 10.696 18.9521 12.1009 18.9521C13.5096 18.9521 14.6551 20.0967 14.6551 21.5ZM14.6393 21.5C14.6393 20.1023 13.4995 18.9679 12.1009 18.9679C10.7039 18.9679 9.56802 20.1036 9.56802 21.5C9.56802 22.8971 10.7038 24.0329 12.1009 24.0329C13.4996 24.0329 14.6393 22.8984 14.6393 21.5Z" fill="#121212" stroke="#121212"/>
</svg>
