<svg width="38" height="33" viewBox="0 0 38 33" fill="none" xmlns="http://www.w3.org/2000/svg">
<path d="M2.39675 19.3372L2.39936 19.3385C3.16868 19.7103 3.46968 20.76 3.01637 21.4825C2.37316 22.4637 2.47703 23.6602 3.0204 24.5801C3.56315 25.4989 4.55851 26.1656 5.72673 26.0736C6.59039 26.071 7.31177 26.783 7.2747 27.6784L7.27464 27.6807C7.21498 29.9976 9.94541 31.5373 11.9195 30.2475C12.6274 29.8002 13.646 30.0738 14.036 30.8142C14.5625 31.8473 15.6304 32.359 16.6861 32.3601C17.7423 32.3611 18.8109 31.8511 19.3378 30.813L19.3389 30.8105C19.7121 30.041 20.7617 29.7396 21.4847 30.1944L21.4871 30.1959C21.9683 30.486 22.4914 30.6341 23.0406 30.6341C24.3266 30.6341 25.5081 29.787 25.9156 28.572L25.9157 28.5718C26.0472 28.1784 25.8358 27.753 25.4424 27.621L25.4417 27.6208C25.0499 27.4913 24.6239 27.701 24.4918 28.0939L24.4917 28.094C24.2018 28.9591 23.0922 29.4092 22.2619 28.9093C20.8261 28.0084 18.7792 28.581 18.0192 30.0955C17.76 30.6041 17.2292 30.8654 16.6863 30.8653C16.1431 30.8652 15.6127 30.6038 15.3541 30.0951L15.3542 30.0951L15.3526 30.0921C14.5449 28.5877 12.5559 28.0653 11.0916 28.995L11.0915 28.995C10.113 29.617 8.73298 28.8388 8.77622 27.6592C8.84421 25.9576 7.32691 24.4915 5.63488 24.5722C5.06172 24.5943 4.56638 24.2665 4.29378 23.8003C4.02138 23.3345 3.9818 22.7489 4.29866 22.2639L4.29868 22.2639L4.30011 22.2616C5.18818 20.8475 4.6482 18.8293 3.1713 18.0492L3.17139 18.0491L3.16451 18.0459C2.63559 17.7998 2.35614 17.2653 2.34586 16.7132C2.33558 16.1612 2.59489 15.6176 3.11475 15.3533L3.11477 15.3533L3.11767 15.3518C4.62169 14.5452 5.14507 12.5557 4.21623 11.0922C3.92915 10.6109 3.92217 10.0359 4.19755 9.55002C4.47212 9.06618 4.96595 8.77607 5.55474 8.77546C7.2436 8.81801 8.70461 7.37491 8.63482 5.64542C8.62691 5.22124 8.78236 4.83281 9.06838 4.54307L9.06839 4.54306C9.55586 4.04917 10.3355 3.93018 10.949 4.2999C12.3845 5.20166 14.432 4.62724 15.1921 3.11376C15.4506 2.60513 15.9813 2.34389 16.5246 2.34397C17.068 2.34405 17.5986 2.60558 17.8568 3.11385L17.8568 3.11386L17.8583 3.1168C18.6654 4.62176 20.6549 5.144 22.1196 4.21429L22.1197 4.21424C23.0982 3.5923 24.4785 4.37098 24.4347 5.55025L24.4347 5.55118C24.3823 7.2463 25.839 8.7066 27.5665 8.63387L27.5665 8.63392L27.5701 8.63368C28.1463 8.59535 28.6413 8.92469 28.9145 9.3979C29.1879 9.87144 29.226 10.4665 28.913 10.9437L28.9129 10.9436L28.9099 10.9487C28.3726 11.844 28.3339 12.934 28.8065 13.8629L28.8069 13.8636C28.9156 14.0744 29.0835 14.2007 29.2712 14.2488C29.4553 14.296 29.648 14.2655 29.8096 14.1841C29.9712 14.1027 30.1105 13.9658 30.1816 13.7889C30.2542 13.6086 30.2514 13.3976 30.1456 13.1833L30.1459 13.1832L30.141 13.1748C29.8645 12.6956 29.9791 12.2583 30.1838 11.7686C30.2159 11.6919 30.2508 11.6126 30.2865 11.5315C30.3614 11.3614 30.4395 11.1838 30.5012 11.0079C30.5937 10.7444 30.6581 10.4632 30.6352 10.1637C30.6334 8.49294 29.2318 7.06558 27.4919 7.13274L27.4912 7.13277C26.64 7.16945 25.8967 6.42093 25.9363 5.53163L25.9363 5.52876C25.995 3.21065 23.267 1.67409 21.2913 2.96141C20.5836 3.40968 19.5654 3.13563 19.1752 2.39506C18.6417 1.34901 17.5586 0.839829 16.4932 0.850155C15.4282 0.860476 14.3559 1.39015 13.8434 2.44964C13.4548 3.18505 12.4296 3.45643 11.7264 3.01502L11.7242 3.01366C10.5305 2.29289 8.96207 2.51289 7.99966 3.48796L7.99965 3.48798C7.42705 4.0683 7.11938 4.84144 7.1335 5.71487L7.13351 5.71547C7.14207 6.14056 6.98181 6.53297 6.68447 6.82897L6.68443 6.82901C6.39743 7.11495 6.01931 7.27343 5.56432 7.27406C3.23248 7.18905 1.66694 9.92907 2.96134 11.9174C3.17679 12.2755 3.23577 12.6936 3.128 13.0966C3.02025 13.4996 2.76032 13.8325 2.39451 14.0356C1.36212 14.5624 0.851002 15.6301 0.850001 16.6855C0.849 17.7419 1.359 18.8107 2.39675 19.3372Z" fill="#121212" stroke="#121212" stroke-width="0.3"/>
<path d="M27.8653 16.205L27.8653 16.205C27.8803 16.6187 27.5574 16.9666 27.1436 16.9825M27.8653 16.205L17.4147 27.4077C17.7461 27.396 18.0055 27.1173 17.9935 26.7858L18.1434 26.7805C18.1434 26.7804 18.1434 26.7804 18.1434 26.7803C18.1287 26.3689 17.7781 26.0326 17.3629 26.0574C11.9945 26.3303 7.42865 21.9844 7.4426 16.6076C7.89465 4.27941 25.4911 3.94637 26.3645 16.262C26.3808 16.6722 26.7314 17.0057 27.1436 16.9825M27.8653 16.205L27.865 16.1998C26.8543 1.92284 6.46001 2.33958 5.94096 16.5994L5.94088 16.5994L5.94086 16.6044C5.92354 22.8309 11.2031 27.8665 17.421 27.5576L27.8653 16.205ZM27.1436 16.9825C27.143 16.9826 27.1425 16.9826 27.1419 16.9826L27.1365 16.8327L27.1453 16.9824C27.1447 16.9825 27.1441 16.9825 27.1436 16.9825Z" fill="#121212" stroke="#121212" stroke-width="0.3"/>
<path d="M23.2789 13.7867C24.0579 13.7655 24.6007 14.293 24.7865 14.9133C24.9722 15.5333 24.8101 16.275 24.1585 16.6896L21.3571 18.5352L21.357 18.5353C21.3312 18.5522 21.3142 18.5933 21.3279 18.6333C21.328 18.6335 21.3281 18.6337 21.3281 18.6339L21.6559 19.5394C21.6559 19.5394 21.6559 19.5395 21.6559 19.5395C21.7971 19.9292 21.5948 20.3594 21.2055 20.5008C20.8154 20.6424 20.3847 20.4398 20.2437 20.05L19.9133 19.137L19.9128 19.1355L19.9128 19.1355C19.6701 18.4418 19.9239 17.6818 20.5307 17.2814L20.5308 17.2813L23.3297 15.4374C23.3298 15.4373 23.3299 15.4372 23.3301 15.4371C23.3457 15.4266 23.3535 15.4175 23.3576 15.4115C23.3617 15.4054 23.3639 15.3996 23.3652 15.3935C23.3681 15.3797 23.3663 15.3622 23.3612 15.3452L23.5049 15.3021M23.2789 13.7867L10.5311 13.9367C9.16624 13.8992 8.58672 15.7328 9.66017 16.5127C9.62305 16.6019 9.65484 16.6904 9.655 16.6905L9.65528 16.6907L9.65576 16.691L9.65733 16.692L9.66335 16.696L9.68676 16.7114L9.77562 16.77L10.0928 16.9789L11.0552 17.613L12.0176 18.247L12.3347 18.456L12.4236 18.5145L12.447 18.5299L12.453 18.5339L12.4545 18.5349L12.4549 18.5351L12.455 18.5352L12.5376 18.41L12.455 18.5352L12.4551 18.5353C12.4823 18.5531 12.4974 18.595 12.4856 18.6294C12.4855 18.6295 12.4855 18.6297 12.4854 18.6298L11.3871 21.6968C11.1862 22.2018 11.2991 22.7399 11.5855 23.1445C11.8717 23.549 12.3417 23.8348 12.8737 23.8238C13.1748 23.8235 13.4759 23.7349 13.744 23.5586L13.744 23.5585L16.8683 21.5002L16.8683 21.5002L16.8713 21.4982C16.8896 21.4854 16.9169 21.4815 16.9482 21.5027L16.9497 21.5037L19.149 22.9513L19.1495 22.9516C19.3484 23.0813 19.557 23.1075 19.7439 23.0557C19.9272 23.0049 20.0792 22.8823 20.1791 22.7313C20.2789 22.5802 20.3322 22.3922 20.3066 22.2036C20.2805 22.0111 20.1736 21.8297 19.9752 21.6977L19.8796 21.8144C19.869 21.8074 19.8519 21.7961 19.829 21.781C19.8847 21.7111 19.9744 21.6972 19.9744 21.6972L19.9744 21.6972L19.9741 21.697L19.973 21.6962L19.9683 21.6931L19.9499 21.6811L19.8803 21.6353L19.6319 21.4717L18.8779 20.9753L18.124 20.4789L17.8755 20.3153L17.8059 20.2695L17.7876 20.2574L17.7829 20.2543L17.7828 20.2543C17.7826 20.2541 17.7823 20.254 17.782 20.2538C17.2503 19.8946 16.5624 19.8956 16.0358 20.2502C16.0356 20.2503 16.0353 20.2505 16.0351 20.2507L12.9183 22.3041L12.9175 22.3046C12.9023 22.3148 12.8911 22.3185 12.8842 22.32C12.8772 22.3215 12.8712 22.3214 12.8656 22.3204C12.8527 22.3182 12.8385 22.3108 12.8264 22.3012L12.8259 22.3008C12.8131 22.2908 12.8024 22.2785 12.797 22.2658C12.7945 22.2601 12.7928 22.2536 12.7926 22.2454C12.7924 22.2371 12.7936 22.2241 12.8003 22.2053C12.8003 22.2052 12.8003 22.2052 12.8003 22.2052L13.901 19.1306L13.9014 19.1296C14.1422 18.4415 13.8879 17.6816 13.2815 17.2814L13.2814 17.2813L10.4867 15.4402C10.4611 15.4216 10.4505 15.4032 10.4461 15.3896C10.4413 15.375 10.4414 15.3595 10.4464 15.3446C10.4561 15.3156 10.4839 15.2888 10.5315 15.2884H14.1603C14.8321 15.2884 15.4312 14.8645 15.6481 14.2381L16.8333 10.941L16.8333 10.941L16.8338 10.9397C16.8396 10.9232 16.8459 10.914 16.8503 10.9088C16.8548 10.9036 16.8594 10.9002 16.8643 10.8976C16.8754 10.8917 16.8905 10.8888 16.9061 10.8888C16.9214 10.8888 16.9359 10.8916 16.9467 10.8975C16.9515 10.9001 16.9565 10.9038 16.9615 10.9098C16.9666 10.9158 16.9736 10.9264 16.9801 10.9449L16.9801 10.9449L16.9806 10.9463L18.1611 14.2301C18.1612 14.2304 18.1613 14.2307 18.1614 14.231C18.3807 14.8641 18.9796 15.2884 19.6519 15.2884H23.281C23.3194 15.2884 23.333 15.2991 23.3382 15.3038C23.3464 15.3112 23.3549 15.3244 23.3613 15.3455L23.5049 15.3021M23.2789 13.7867H23.2784H23.2777H23.2769H23.276H23.2751H23.2741H23.273H23.2718H23.2706H23.2692H23.2678H23.2664H23.2648H23.2632H23.2615H23.2597H23.2578H23.2559H23.2539H23.2518H23.2496H23.2474H23.2451H23.2427H23.2402H23.2377H23.2351H23.2324H23.2297H23.2269H23.224H23.221H23.218H23.2149H23.2117H23.2085H23.2052H23.2018H23.1984H23.1949H23.1913H23.1876H23.1839H23.1801H23.1763H23.1724H23.1684H23.1644H23.1602H23.1561H23.1518H23.1475H23.1432H23.1387H23.1342H23.1297H23.1251H23.1204H23.1156H23.1108H23.106H23.101H23.096H23.091H23.0859H23.0807H23.0755H23.0702H23.0648H23.0594H23.054H23.0485H23.0429H23.0372H23.0315H23.0258H23.02H23.0141H23.0082H23.0022H22.9962H22.9901H22.984H22.9778H22.9716H22.9653H22.9589H22.9525H22.9461H22.9396H22.933H22.9264H22.9198H22.913H22.9063H22.8995H22.8926H22.8857H22.8787H22.8717H22.8647H22.8576H22.8504H22.8432H22.836H22.8287H22.8214H22.814H22.8065H22.7991H22.7916H22.784H22.7764H22.7687H22.761H22.7533H22.7455H22.7377H22.7298H22.7219H22.7139H22.7059H22.6979H22.6898H22.6817H22.6736H22.6654H22.6571H22.6488H22.6405H22.6322H22.6238H22.6154H22.6069H22.5984H22.5898H22.5813H22.5726H22.564H22.5553H22.5466H22.5378H22.529H22.5202H22.5114H22.5025H22.4935H22.4846H22.4756H22.4665H22.4575H22.4484H22.4393H22.4301H22.4209H22.4117H22.4025H22.3932H22.3839H22.3746H22.3652H22.3558H22.3464H22.337H22.3275H22.318H22.3085H22.2989H22.2893H22.2797H22.2701H22.2604H22.2507H22.241H22.2313H22.2215H22.2118H22.202H22.1921H22.1823H22.1724H22.1625H22.1526H22.1427H22.1327H22.1227H22.1127H22.1027H22.0927H22.0826H22.0725H22.0625H22.0523H22.0422H22.0321H22.0219H22.0117H22.0015H21.9913H21.981H21.9708H21.9605H21.9502H21.94H21.9296H21.9193H21.909H21.8986H21.8883H21.8779H21.8675H21.8571H21.8467H21.8362H21.8258H21.8153H21.8049H21.7944H21.7839H21.7734H21.7629H21.7524H21.7419H21.7314H21.7209H21.7103H21.6998H21.6892H21.6786H21.6681H21.6575H21.6469H21.6363H21.6257H21.6151H21.6045H21.5939H21.5833H21.5727H21.5621H21.5515H21.5408H21.5302H21.5196H21.509H21.4983H21.4877H21.4771H21.4664H21.4558H21.4452H21.4345H21.4239H21.4133H21.4026H21.392H21.3814H21.3708H21.3602H21.3495H21.3389H21.3283H21.3177H21.3071H21.2965H21.2859H21.2754H21.2648H21.2542H21.2437H21.2331H21.2225H21.212H21.2015H21.1909H21.1804H21.1699H21.1594H21.1489H21.1384H21.128H21.1175H21.1071H21.0966H21.0862H21.0758H21.0654H21.055H21.0446H21.0342H21.0239H21.0135H21.0032H20.9929H20.9826H20.9723H20.9621H20.9518H20.9416H20.9314H20.9212H20.911H20.9008H20.8906H20.8805H20.8704H20.8603H20.8502H20.8402H20.8301H20.8201H20.8101H20.8001H20.7902H20.7802H20.7703H20.7604H20.7506H20.7407H20.7309H20.7211H20.7113H20.7016H20.6918H20.6821H20.6724H20.6628H20.6531H20.6435H20.634H20.6244H20.6149H20.6054H20.5959H20.5864H20.577H20.5676H20.5583H20.5489H20.5396H20.5304H20.5211H20.5119H20.5027H20.4936H20.4845H20.4754H20.4663H20.4573H20.4483H20.4393H20.4304H20.4215H20.4126H20.4038H20.395H20.3863H20.3775H20.3689H20.3602H20.3516H20.343H20.3345H20.326H20.3175H20.3091H20.3007H20.2923H20.284H20.2757H20.2675H20.2593H20.2511H20.243H20.2349H20.2269H20.2189H20.211H20.203H20.1952H20.1873H20.1796H20.1718H20.1641H20.1565H20.1489H20.1413H20.1338H20.1263H20.1189H20.1115H20.1041H20.0969H20.0896H20.0824H20.0753H20.0682H20.0611H20.0541H20.0471H20.0402H20.0334H20.0266H20.0198H20.0131H20.0064H19.9998H19.9933H19.9868H19.9803H19.9739H19.9676H19.9613H19.955H19.9488H19.9427H19.9366H19.9306H19.9246H19.9187H19.9128H19.907H19.9013H19.8956H19.89H19.8844H19.8789H19.8734H19.868H19.8627H19.8574H19.8521H19.847H19.8419H19.8368H19.8318H19.8269H19.822H19.8172H19.8125H19.8078H19.8032H19.7986H19.7941H19.7897H19.7853H19.781H19.7768H19.7726H19.7685H19.7644H19.7605H19.7565H19.7527H19.7489H19.7452H19.7416H19.738H19.7345H19.731H19.7276H19.7243H19.7211H19.7179H19.7148H19.7118H19.7089H19.706H19.7032H19.7004H19.6977H19.6951H19.6926H19.6902H19.6878H19.6855H19.6832H19.6811H19.679H19.677H19.675H19.6732H19.6714H19.6697H19.668H19.6665H19.665H19.6636H19.6623H19.661H19.6598H19.6587H19.6577H19.6568H19.6559H19.6552H19.6545H19.6539H19.6533H19.6529H19.6525H19.6522H19.652H19.6519L19.6518 13.9367M23.2789 13.7867L19.6518 13.9367M23.5049 15.3021C23.4823 15.2273 23.4251 15.1384 23.281 15.1384H19.6519C19.0428 15.1384 18.5009 14.7538 18.3029 14.1811L23.413 15.5621C23.536 15.4799 23.5234 15.3638 23.5049 15.3021ZM10.5331 13.7867C9.75571 13.7663 9.21187 14.2935 9.02545 14.9137C8.83892 15.5342 9.0015 16.2765 9.65759 16.6922L9.73787 16.5655L10.5331 13.7867ZM10.5331 13.7867H14.1603C14.196 13.7867 14.2227 13.7651 14.2314 13.7397L14.2321 13.7378L14.3733 13.7886L14.2321 13.7378L14.2322 13.7377L14.2323 13.7372L14.233 13.7354L14.2355 13.7284L14.2454 13.7008L14.2831 13.596L14.4175 13.2222L14.8253 12.088L15.2332 10.9537L15.3676 10.5799L15.4052 10.4752L15.4152 10.4476L15.4177 10.4406C15.6436 9.73987 16.2834 9.39703 16.9079 9.39834C17.5324 9.39966 18.1714 9.74508 18.3962 10.4459L19.5774 13.7308L19.5779 13.7324L19.5779 13.7324C19.5902 13.7678 19.6191 13.7867 19.6518 13.7867V13.9367M10.5331 13.7867L19.6518 13.9367M23.281 13.7867V13.9367H23.281V13.936L23.281 13.7867ZM15.5517 10.5111C15.5471 10.5241 15.5404 10.5426 15.5319 10.5661C15.4913 10.5573 15.4484 10.535 15.4097 10.4889L15.5517 10.5111Z" fill="#121212" stroke="#121212" stroke-width="0.3"/>
<path d="M22.1856 26.8867L22.1832 26.8881L22.0653 26.9562L21.7076 27.1627L21.3499 27.3693L21.232 27.4373L21.1989 27.4564L21.1902 27.4614L21.1879 27.4627L21.1873 27.4631L21.1869 27.4633L21.1864 27.4636C21.1864 27.4636 21.185 27.4636 21.1824 27.4635L21.1834 27.4653C18.9141 28.6868 17.0381 25.4374 19.2309 24.0834L19.2347 24.0811L19.2347 24.0811L19.2348 24.0811L19.2349 24.081L19.2355 24.0807L19.2377 24.0794L19.2464 24.0744L19.2795 24.0553L19.3977 23.9871L19.7574 23.7799C19.8887 23.7044 20.0206 23.6286 20.1208 23.5713C20.1709 23.5427 20.2133 23.5186 20.2438 23.5014L20.2467 23.4998L21.1261 21.1088L22.1856 26.8867ZM22.1856 26.8867C22.2015 26.889 22.2215 26.892 22.2452 26.8956C22.3159 26.9064 22.4166 26.9226 22.5377 26.9425C22.7798 26.9822 23.1015 27.0365 23.423 27.0912C23.7444 27.1459 24.0655 27.2009 24.3061 27.2423L24.5969 27.2924L24.6783 27.3065L24.6997 27.3102L24.7052 27.3112L24.7066 27.3114L24.707 27.3115L24.707 27.3115C24.707 27.3115 24.707 27.3115 24.707 27.3115L24.707 27.3115L24.7326 27.1637C24.8705 27.1876 25.0136 27.1622 25.1355 27.0921L31.2498 23.562L31.3248 23.6919L22.1856 26.8867ZM22.2279 26.8623L22.1529 26.7324L22.2279 26.8623C22.2279 26.8623 22.2279 26.8623 22.2279 26.8623ZM33.9899 14.4885C33.4504 13.5099 32.1128 13.1511 31.1562 13.7293L30.3267 14.2081C30.3264 14.2082 30.3261 14.2084 30.3258 14.2086C29.6305 14.5981 29.221 15.4044 29.2966 16.1903L21.4554 20.7172L21.4553 20.7173C21.3032 20.8052 21.1866 20.9437 21.1261 21.1087L33.9899 14.4885ZM20.3759 25.1565L20.8267 25.937L20.4366 26.1622C20.4365 26.1622 20.4365 26.1622 20.4365 26.1622C20.3022 26.2391 20.1819 26.242 20.0829 26.2081C19.9803 26.173 19.8898 26.0943 19.8305 25.9917C19.7711 25.889 19.7482 25.7714 19.7691 25.665C19.7892 25.5624 19.8518 25.4596 19.9857 25.3816L19.9863 25.3813L19.991 25.3786L20.0076 25.369L20.0667 25.335L20.2456 25.2317L20.3759 25.1565ZM31.8334 14.899L31.9084 15.029L31.909 15.0286C32.1761 14.8729 32.5304 14.9632 32.6883 15.2378L32.6884 15.2381L35.5723 20.2332C35.5724 20.2332 35.5724 20.2332 35.5724 20.2332C35.7296 20.506 35.6358 20.8561 35.3635 21.0136L34.5309 21.4941L34.5309 21.4941L34.5287 21.4954C34.2687 21.6514 33.898 21.5529 33.7529 21.2879L33.7529 21.2879L33.7512 21.2849L30.8669 16.2898L30.867 16.2898L30.8653 16.287C30.7086 16.0285 30.8082 15.657 31.0731 15.5113L31.1508 15.4686V15.4664L31.2059 15.4345L31.4921 15.2693L31.7783 15.104L31.8726 15.0496L31.8991 15.0343L31.906 15.0303L31.9078 15.0293L31.9083 15.029L31.9084 15.029L31.9084 15.029L31.8334 14.899ZM32.1349 21.4899L24.695 25.7855L22.2269 25.3585L21.5769 24.2327L22.4416 21.8817L29.8815 17.5866L32.1349 21.4899Z" fill="#121212" stroke="#121212" stroke-width="0.3"/>
</svg>
