<svg width="50" height="51" viewBox="0 0 50 51" fill="none" xmlns="http://www.w3.org/2000/svg">
<rect y="0.316895" width="50" height="50" fill="#4F16F2"/>
<path d="M35.9983 29.8512L33.8553 27.7082C33.2165 27.0745 32.3542 26.7173 31.4544 26.7134C30.5546 26.7096 29.6894 27.0595 29.0452 27.6878C28.7015 28.0335 28.248 28.2485 27.7628 28.296C27.2777 28.3435 26.7911 28.2204 26.3869 27.9478C24.7915 26.8831 23.421 25.5152 22.3532 23.9219C22.0855 23.5132 21.9668 23.0247 22.0172 22.5387C22.0676 22.0527 22.284 21.5989 22.6298 21.2538C23.2524 20.609 23.5978 19.7462 23.5921 18.8499C23.5865 17.9537 23.2302 17.0952 22.5996 16.4583L20.4566 14.3153C19.8151 13.6759 18.9462 13.3169 18.0404 13.3169C17.1346 13.3169 16.2658 13.6759 15.6242 14.3153L15.0076 14.9329C11.7931 18.1474 12.0337 24.9057 18.7218 31.59C22.7545 35.6238 26.8136 37.3128 30.105 37.3128C31.0739 37.3451 32.0395 37.1842 32.9456 36.8395C33.8517 36.4949 34.6802 35.9733 35.3826 35.3052L36.0002 34.6876C36.6408 34.0458 37.0004 33.1759 37 32.269C36.9996 31.3622 36.6393 30.4926 35.9983 29.8512ZM34.6209 33.3103L34.0033 33.9278C31.4707 36.4605 25.8804 35.9978 20.0972 30.2136C14.314 24.4294 13.8503 18.8351 16.383 16.3025L16.9957 15.6859C17.2716 15.411 17.6451 15.2567 18.0346 15.2567C18.424 15.2567 18.7976 15.411 19.0734 15.6859L21.2164 17.8289C21.4873 18.1011 21.641 18.4684 21.6449 18.8524C21.6487 19.2364 21.5023 19.6067 21.2369 19.8842C20.5787 20.5467 20.1681 21.4152 20.0739 22.3442C19.9798 23.2733 20.2077 24.2065 20.7196 24.9876C21.9329 26.8032 23.4931 28.3611 25.3105 29.5717C26.0892 30.0837 27.02 30.313 27.9474 30.2213C28.8748 30.1297 29.7426 29.7226 30.406 29.0681C30.683 28.7995 31.0544 28.6504 31.4402 28.6528C31.826 28.6552 32.1954 28.8088 32.4691 29.0807L34.6121 31.2237C34.7503 31.3599 34.8601 31.522 34.9353 31.7007C35.0106 31.8794 35.0497 32.0713 35.0505 32.2652C35.0513 32.4591 35.0138 32.6513 34.9401 32.8306C34.8663 33.01 34.7579 33.173 34.6209 33.3103Z" fill="white"/>
</svg>
