<svg width="50" height="51" viewBox="0 0 50 51" fill="none" xmlns="http://www.w3.org/2000/svg">
<rect y="0.316895" width="50" height="50" fill="#4F16F2"/>
<path fill-rule="evenodd" clip-rule="evenodd" d="M33.5033 16.8046C31.2472 14.5567 28.2467 13.3182 25.0501 13.3169C18.4635 13.3169 13.1028 18.6515 13.1002 25.2087C13.0993 27.3047 13.6496 29.3507 14.6953 31.1542L13 37.3169L19.3348 35.6632C21.0802 36.6106 23.0453 37.1098 25.0453 37.1107H25.0502C31.6362 37.1107 36.9973 31.7754 37 25.2182C37.0013 22.0405 35.7595 19.0525 33.5033 16.8046ZM25.0502 35.1021H25.0462C23.264 35.1014 21.5159 34.6249 19.991 33.7243L19.6283 33.5101L15.8692 34.4914L16.8726 30.8439L16.6364 30.4699C15.6422 28.8961 15.117 27.0771 15.1178 25.2094C15.12 19.7594 19.5756 15.3255 25.0542 15.3255C27.707 15.3265 30.2008 16.356 32.0761 18.2244C33.9513 20.0927 34.9834 22.5762 34.9824 25.2174C34.9801 30.6678 30.5246 35.1021 25.0502 35.1021ZM30.4983 27.6991C30.1997 27.5503 28.7317 26.8314 28.458 26.7323C28.1843 26.6331 27.9853 26.5835 27.7862 26.881C27.5872 27.1785 27.0149 27.8478 26.8407 28.0461C26.6666 28.2445 26.4924 28.2693 26.1938 28.1205C25.8952 27.9718 24.9332 27.658 23.7927 26.6456C22.9051 25.8578 22.3058 24.8846 22.1316 24.5871C21.9575 24.2896 22.1131 24.1288 22.2626 23.9806C22.3969 23.8475 22.5611 23.6336 22.7104 23.46C22.8597 23.2865 22.9095 23.1626 23.009 22.9643C23.1085 22.7659 23.0588 22.5924 22.9841 22.4437C22.9095 22.2949 22.3124 20.8323 22.0635 20.2373C21.8212 19.6579 21.575 19.7363 21.3917 19.7272C21.2177 19.7186 21.0185 19.7168 20.8195 19.7168C20.6204 19.7168 20.2969 19.7911 20.0232 20.0886C19.7495 20.3861 18.9782 21.105 18.9782 22.5676C18.9782 24.0302 20.0481 25.4432 20.1974 25.6415C20.3467 25.8399 22.3029 28.8414 25.2981 30.1285C26.0105 30.4346 26.5666 30.6175 27.0003 30.7545C27.7156 30.9806 28.3665 30.9487 28.881 30.8722C29.4546 30.7869 30.6475 30.1533 30.8964 29.4592C31.1452 28.7651 31.1452 28.1701 31.0705 28.0462C30.9959 27.9222 30.7968 27.8478 30.4983 27.6991Z" fill="white"/>
</svg>
