<svg width="24" height="25" viewBox="0 0 24 25" fill="none" xmlns="http://www.w3.org/2000/svg">
<rect y="0.767578" width="24" height="24" fill="#121212"/>
<path d="M13.2002 12.2676C12.9241 12.2676 12.7002 12.4914 12.7002 12.7676C12.7002 13.0437 12.924 13.2676 13.2002 13.2676L13.2002 12.2676ZM13.7103 13.1211C13.9055 12.9259 13.9055 12.6093 13.7103 12.414L10.5283 9.23201C10.3331 9.03674 10.0165 9.03674 9.82123 9.232C9.62597 9.42726 9.62596 9.74384 9.82122 9.9391L12.6496 12.7676L9.82114 15.596C9.62588 15.7912 9.62587 16.1078 9.82113 16.3031C10.0164 16.4983 10.333 16.4983 10.5282 16.3031L13.7103 13.1211ZM13.2002 13.2676L13.3567 13.2676L13.3567 12.2676L13.2002 12.2676L13.2002 13.2676Z" fill="white"/>
</svg>
