<svg width="84" height="84" viewBox="0 0 84 84" fill="none" xmlns="http://www.w3.org/2000/svg">
<g clip-path="url(#clip0_56_203)">
<path d="M61.6808 31.6379L61.7197 17.1473C61.7195 16.633 61.5664 16.1303 61.2798 15.7032C60.9932 15.2761 60.586 14.9438 60.1102 14.7487C59.6343 14.5535 59.1111 14.5042 58.6071 14.6071C58.1032 14.71 57.6412 14.9604 57.2799 15.3265C53.9223 18.7554 45.3149 27.5301 26.0907 30.618C25.74 30.0663 25.2559 29.6119 24.683 29.2969C24.1102 28.982 23.4672 28.8165 22.8135 28.8159H11.1416C10.2978 28.8174 9.4772 29.0928 8.80338 29.6008C8.12956 30.1088 7.63893 30.8219 7.40532 31.6328C6.63044 31.6055 5.84907 31.5744 5.0489 31.529C4.51614 31.5007 3.98324 31.582 3.48313 31.7678C2.98303 31.9536 2.52634 32.24 2.1413 32.6093C1.7159 33.0125 1.37665 33.4977 1.14406 34.0357C0.911457 34.5737 0.790337 35.1532 0.788015 35.7393L0.766616 43.7378C0.765073 44.3325 0.885721 44.9211 1.12108 45.4672C1.35644 46.0133 1.70148 46.5053 2.13482 46.9125C2.51757 47.2794 2.97264 47.5623 3.47095 47.7433C3.96926 47.9243 4.49984 47.9994 5.0288 47.9637C5.81665 47.9085 6.58634 47.8677 7.3502 47.8314C7.54011 48.6636 7.99829 49.4102 8.65419 49.9565C9.31009 50.5027 10.1274 50.8182 10.9802 50.8544C11.4879 51.8945 11.9788 52.9294 12.397 53.8391C14.4785 57.8958 13.4468 63.2376 12.9067 65.3463C12.8167 65.6838 12.8205 66.0394 12.9176 66.3748C13.0147 66.7103 13.2015 67.0129 13.4578 67.2501C13.7031 67.4666 14.0013 67.6144 14.3221 67.6784C14.6429 67.7424 14.9749 67.7204 15.2845 67.6146L24.1337 64.4489C24.38 64.3588 24.6054 64.2195 24.7959 64.0393C24.9865 63.8591 25.1382 63.6419 25.2419 63.401C25.3498 63.1537 25.406 62.8869 25.4071 62.6171C25.4082 62.3472 25.3542 62.08 25.2484 61.8318L21.5361 53.251C21.1708 52.4742 20.851 51.6768 20.5783 50.8628H22.8135C23.524 50.8621 24.2207 50.6668 24.8281 50.2983C25.4355 49.9298 25.9305 49.402 26.2593 48.7723C45.0478 51.8653 53.7349 60.8202 57.1398 64.3361C57.5007 64.7049 57.9625 64.9589 58.4673 65.0659C58.9721 65.173 59.4972 65.1284 59.9767 64.9378C60.4546 64.7468 60.8643 64.4171 61.153 63.9911C61.4418 63.565 61.5962 63.0623 61.5965 62.5477L61.6354 48.0616C63.205 47.3409 64.5354 46.1861 65.4697 44.7335C66.4039 43.2809 66.9029 41.5913 66.9077 39.8643C66.9124 38.1372 66.4228 36.4449 65.4966 34.9872C64.5704 33.5294 63.2463 32.3673 61.6808 31.6379ZM7.25099 45.237C6.4599 45.2759 5.66167 45.3193 4.84788 45.3764C4.67472 45.3846 4.50172 45.357 4.33971 45.2953C4.17771 45.2336 4.03017 45.1391 3.90635 45.0178C3.73415 44.8536 3.59699 44.6562 3.50316 44.4376C3.40932 44.2189 3.36075 43.9835 3.36037 43.7456L3.38241 35.7464C3.38431 35.5128 3.4329 35.2819 3.52533 35.0673C3.61775 34.8527 3.75215 34.6588 3.92062 34.4969C4.04938 34.3696 4.20303 34.2702 4.37194 34.2049C4.54086 34.1396 4.72142 34.1099 4.90235 34.1176C5.6928 34.163 6.47352 34.1941 7.25099 34.2213V45.237ZM22.5995 62.2429L15.7125 64.707C16.296 61.8279 16.8291 56.796 14.7294 52.7057C14.5757 52.3711 14.2651 51.7006 13.867 50.8628H17.8516C18.2036 52.0468 18.6454 53.2022 19.1732 54.319L22.5995 62.2429ZM24.1104 46.9722C24.11 47.316 23.9733 47.6457 23.7301 47.8888C23.487 48.132 23.1573 48.2687 22.8135 48.2691H11.1416C10.7978 48.2687 10.4681 48.132 10.225 47.8888C9.98183 47.6457 9.84509 47.316 9.84474 46.9722V32.7066C9.84509 32.3627 9.98183 32.0331 10.225 31.7899C10.4681 31.5468 10.7978 31.41 11.1416 31.4097H22.8135C23.1573 31.41 23.487 31.5468 23.7301 31.7899C23.9733 32.0331 24.11 32.3627 24.1104 32.7066V46.9722ZM59.126 62.5347L59.0028 62.5315C55.4312 58.8438 46.3044 49.4363 26.7041 46.2116V33.1177C32.3777 32.2293 37.9128 30.6117 43.1718 28.305C49.1754 25.6759 54.598 21.8824 59.126 17.1441V62.5347ZM61.6439 45.0684L61.6724 34.6298C62.4935 35.2312 63.1607 36.0181 63.6198 36.9264C64.0789 37.8347 64.3167 38.8387 64.3139 39.8564C64.3111 40.8741 64.0678 41.8767 63.6038 42.7825C63.1398 43.6883 62.4682 44.4715 61.6439 45.0684ZM70.1494 35.9488C70.3198 35.949 70.4884 35.9155 70.6458 35.8503C70.8032 35.7851 70.9461 35.6894 71.0663 35.5688L74.9569 31.6782C75.1932 31.4336 75.3239 31.106 75.3209 30.7659C75.318 30.4259 75.1816 30.1006 74.9411 29.8602C74.7007 29.6197 74.3754 29.4833 74.0354 29.4804C73.6954 29.4774 73.3678 29.6081 73.1232 29.8444L69.2325 33.735C69.0512 33.9164 68.9277 34.1474 68.8777 34.399C68.8277 34.6505 68.8534 34.9112 68.9515 35.1481C69.0497 35.3851 69.2159 35.5876 69.4291 35.7301C69.6423 35.8726 69.893 35.9487 70.1494 35.9488ZM69.2325 45.9438L73.1232 49.8344C73.3678 50.0706 73.6954 50.2014 74.0354 50.1984C74.3754 50.1954 74.7007 50.0591 74.9411 49.8186C75.1816 49.5782 75.318 49.2529 75.3209 48.9128C75.3239 48.5728 75.1932 48.2452 74.9569 48.0006L71.0663 44.11C70.8217 43.8738 70.4941 43.743 70.1541 43.746C69.8141 43.749 69.4888 43.8853 69.2483 44.1258C69.0079 44.3662 68.8715 44.6915 68.8685 45.0316C68.8656 45.3716 68.9963 45.6992 69.2325 45.9438Z" fill="#121212"/>
<path d="M18.2744 39.842C18.2758 39.1257 17.6964 38.5439 16.9801 38.5424C16.2639 38.541 15.6821 39.1204 15.6806 39.8367C15.6792 40.5529 16.2586 41.1347 16.9749 41.1362C17.6911 41.1377 18.2729 40.5582 18.2744 39.842Z" fill="#121212"/>
<path d="M50.0493 11.3082C50.3212 11.3084 50.5862 11.2229 50.8066 11.0637L58.9212 5.21608C58.9077 5.52085 59.0023 5.82057 59.1884 6.06236C59.3744 6.30415 59.6398 6.47247 59.9378 6.53761C60.2358 6.60275 60.5473 6.56053 60.8172 6.4184C61.0872 6.27626 61.2982 6.04335 61.4131 5.76077L62.9207 2.07246C63.0069 1.86199 63.0362 1.63258 63.0057 1.40722C62.9752 1.18186 62.8859 0.96849 62.747 0.788502C62.608 0.608513 62.4241 0.46824 62.2137 0.381751C62.0034 0.295262 61.7741 0.2656 61.5486 0.295739L57.6444 0.816434C57.3716 0.852455 57.1173 0.974468 56.9185 1.16477C56.7197 1.35507 56.5867 1.60377 56.5387 1.87478C56.4908 2.14579 56.5305 2.42501 56.652 2.67195C56.7735 2.91888 56.9705 3.12068 57.2145 3.24807L49.2893 8.95886C49.0666 9.11922 48.9005 9.34608 48.8149 9.6068C48.7293 9.86753 48.7287 10.1487 48.813 10.4098C48.8973 10.671 49.0623 10.8986 49.2842 11.06C49.5061 11.2215 49.7735 11.3083 50.048 11.3082H50.0493ZM73.393 9.36284C73.6627 9.36274 73.9257 9.27841 74.1452 9.12162L80.1588 4.82637C80.2678 5.03385 80.4314 5.20756 80.632 5.32872C80.8326 5.44987 81.0625 5.51385 81.2968 5.51372C81.5476 5.51364 81.7931 5.44091 82.0034 5.30431C82.2138 5.16772 82.3801 4.97311 82.4822 4.74402L83.6545 2.10877C83.7479 1.89908 83.784 1.66836 83.7591 1.44016C83.7341 1.21197 83.6491 0.994485 83.5126 0.809922C83.3761 0.625358 83.1931 0.480331 82.9822 0.389653C82.7713 0.298975 82.5401 0.265895 82.3123 0.293793L79.2756 0.665997C79.0383 0.694199 78.8134 0.787686 78.6259 0.936063C78.4385 1.08444 78.2959 1.28189 78.214 1.50646C78.1321 1.73104 78.1141 1.97393 78.162 2.20813C78.2098 2.44233 78.3217 2.65866 78.4852 2.83307L72.6376 7.01031C72.4137 7.17005 72.2465 7.39681 72.1599 7.65783C72.0734 7.91886 72.072 8.20064 72.1561 8.46247C72.2402 8.7243 72.4053 8.95263 72.6277 9.11447C72.85 9.27631 73.118 9.36329 73.393 9.36284Z" fill="#121212"/>
<path d="M70.4528 11.2089C70.4543 10.4927 69.8749 9.91085 69.1586 9.90939C68.4424 9.90793 67.8606 10.4874 67.8591 11.2036C67.8576 11.9199 68.4371 12.5017 69.1533 12.5031C69.8696 12.5046 70.4514 11.9252 70.4528 11.2089Z" fill="#121212"/>
<path d="M46.8056 13.256C46.8071 12.5398 46.2276 11.958 45.5114 11.9565C44.7952 11.955 44.2133 12.5345 44.2119 13.2507C44.2104 13.967 44.7899 14.5488 45.5061 14.5503C46.2223 14.5517 46.8042 13.9723 46.8056 13.256Z" fill="#121212"/>
<path d="M61.413 77.808C61.2981 77.5254 61.0871 77.2925 60.8171 77.1504C60.5472 77.0082 60.2357 76.966 59.9377 77.0311C59.6397 77.0963 59.3743 77.2646 59.1883 77.5064C59.0022 77.7482 58.9076 78.0479 58.9211 78.3527L50.8065 72.5057C50.5274 72.3045 50.1798 72.2224 49.8402 72.2775C49.5005 72.3326 49.1967 72.5203 48.9954 72.7994C48.7942 73.0786 48.7121 73.4262 48.7672 73.7658C48.8223 74.1055 49.0101 74.4093 49.2892 74.6105L57.2144 80.3207C56.9704 80.4481 56.7734 80.6499 56.6519 80.8968C56.5304 81.1437 56.4907 81.423 56.5386 81.694C56.5866 81.965 56.7196 82.2137 56.9184 82.404C57.1172 82.5943 57.3715 82.7163 57.6443 82.7523L61.5479 83.273C61.7734 83.3033 62.0028 83.2737 62.2132 83.1873C62.4236 83.1008 62.6076 82.9606 62.7467 82.7806C62.8858 82.6006 62.9751 82.3871 63.0056 82.1617C63.0361 81.9363 63.0068 81.7068 62.9206 81.4963L61.413 77.808ZM82.4821 78.8254C82.3844 78.603 82.2261 78.4128 82.0252 78.2764C81.8242 78.14 81.5889 78.0632 81.3462 78.0546C81.1036 78.046 80.8634 78.106 80.6533 78.2278C80.4433 78.3496 80.2718 78.5282 80.1587 78.743L74.1457 74.4478C73.8658 74.2478 73.5178 74.1672 73.1784 74.2237C72.839 74.2803 72.536 74.4693 72.336 74.7493C72.136 75.0293 72.0554 75.3772 72.1119 75.7166C72.1684 76.056 72.3575 76.3591 72.6375 76.5591L78.4864 80.7357C78.2989 80.9341 78.1796 81.1871 78.146 81.458C78.1252 81.6271 78.1379 81.7986 78.1835 81.9628C78.229 82.1269 78.3064 82.2805 78.4113 82.4147C78.5162 82.5489 78.6465 82.6612 78.7948 82.745C78.9431 82.8289 79.1064 82.8827 79.2755 82.9034L82.3122 83.275C82.3645 83.2813 82.4171 83.2846 82.4697 83.2847C82.6859 83.2846 82.8985 83.2305 83.0884 83.1273C83.2783 83.0241 83.4394 82.875 83.5571 82.6937C83.6747 82.5124 83.7452 82.3046 83.7621 82.0891C83.779 81.8737 83.7417 81.6574 83.6538 81.46L82.4821 78.8254Z" fill="#121212"/>
<path d="M69.0095 73.7993C69.7258 73.7993 70.3064 73.2187 70.3064 72.5024C70.3064 71.7862 69.7258 71.2056 69.0095 71.2056C68.2933 71.2056 67.7126 71.7862 67.7126 72.5024C67.7126 73.2187 68.2933 73.7993 69.0095 73.7993Z" fill="#121212"/>
<path d="M45.3662 71.7041C46.0825 71.7041 46.6631 71.1235 46.6631 70.4072C46.6631 69.691 46.0825 69.1104 45.3662 69.1104C44.65 69.1104 44.0693 69.691 44.0693 70.4072C44.0693 71.1235 44.65 71.7041 45.3662 71.7041Z" fill="#121212"/>
<path d="M78.5791 39.8394C78.5791 39.4954 78.4425 39.1655 78.1993 38.9223C77.956 38.6791 77.6262 38.5425 77.2822 38.5425H70.7979C70.4539 38.5425 70.124 38.6791 69.8808 38.9223C69.6376 39.1655 69.501 39.4954 69.501 39.8394C69.501 40.1833 69.6376 40.5132 69.8808 40.7564C70.124 40.9996 70.4539 41.1362 70.7979 41.1362H77.2822C77.6262 41.1362 77.956 40.9996 78.1993 40.7564C78.4425 40.5132 78.5791 40.1833 78.5791 39.8394ZM39.0244 21.6831C39.7939 21.6831 40.5461 21.4549 41.1859 21.0274C41.8257 20.5999 42.3244 19.9923 42.6189 19.2814C42.9134 18.5704 42.9904 17.7882 42.8403 17.0335C42.6902 16.2788 42.3196 15.5855 41.7755 15.0414C41.2314 14.4973 40.5381 14.1267 39.7834 13.9766C39.0287 13.8265 38.2465 13.9035 37.5355 14.198C36.8246 14.4925 36.217 14.9912 35.7895 15.631C35.362 16.2708 35.1338 17.023 35.1338 17.7925C35.135 18.824 35.5453 19.8129 36.2747 20.5422C37.004 21.2716 37.9929 21.6819 39.0244 21.6831ZM39.0244 16.4956C39.2809 16.4956 39.5317 16.5717 39.7449 16.7142C39.9582 16.8567 40.1244 17.0592 40.2226 17.2962C40.3207 17.5332 40.3464 17.7939 40.2964 18.0455C40.2463 18.2971 40.1228 18.5281 39.9414 18.7095C39.7601 18.8909 39.529 19.0144 39.2774 19.0644C39.0259 19.1145 38.7651 19.0888 38.5281 18.9906C38.2912 18.8925 38.0886 18.7263 37.9461 18.513C37.8036 18.2997 37.7275 18.049 37.7275 17.7925C37.7279 17.4486 37.8646 17.119 38.1078 16.8758C38.3509 16.6327 38.6806 16.496 39.0244 16.4956ZM39.0244 61.8862C38.2549 61.8862 37.5027 62.1144 36.8629 62.5419C36.2231 62.9694 35.7244 63.5771 35.4299 64.288C35.1355 64.9989 35.0584 65.7812 35.2085 66.5359C35.3587 67.2906 35.7292 67.9838 36.2733 68.5279C36.8174 69.0721 37.5107 69.4426 38.2654 69.5927C39.0201 69.7428 39.8024 69.6658 40.5133 69.3713C41.2242 69.0769 41.8318 68.5782 42.2594 67.9384C42.6869 67.2986 42.915 66.5463 42.915 65.7769C42.9138 64.7454 42.5035 63.7565 41.7742 63.0271C41.0448 62.2977 40.0559 61.8874 39.0244 61.8862ZM39.0244 67.0737C38.7679 67.0737 38.5172 66.9977 38.3039 66.8552C38.0906 66.7127 37.9244 66.5101 37.8263 66.2731C37.7281 66.0362 37.7024 65.7754 37.7525 65.5238C37.8025 65.2723 37.926 65.0412 38.1074 64.8598C38.2888 64.6785 38.5198 64.5549 38.7714 64.5049C39.023 64.4549 39.2837 64.4805 39.5207 64.5787C39.7577 64.6769 39.9602 64.8431 40.1027 65.0564C40.2452 65.2696 40.3213 65.5204 40.3213 65.7769C40.3209 66.1207 40.1842 66.4504 39.9411 66.6935C39.6979 66.9366 39.3683 67.0734 39.0244 67.0737Z" fill="#121212"/>
</g>
<defs>
<clipPath id="clip0_56_203">
<rect width="83" height="83" fill="white" transform="translate(0.766602 0.284668)"/>
</clipPath>
</defs>
</svg>
