<svg width="83" height="83" viewBox="0 0 83 83" fill="none" xmlns="http://www.w3.org/2000/svg">
<mask id="path-1-outside-1_56_195" maskUnits="userSpaceOnUse" x="0.970703" y="0.48877" width="81" height="81" fill="black">
<rect fill="white" x="0.970703" y="0.48877" width="81" height="81"/>
<path d="M47.7961 81.0789H35.7373C35.4859 81.0804 35.2404 81.0033 35.035 80.8585C34.8296 80.7136 34.6746 80.5082 34.5917 80.2709L32.602 74.6033C30.5279 73.723 28.9843 73.108 27.3202 72.4086L24.7879 71.3595L19.3614 73.9762C19.1367 74.085 18.8838 74.1214 18.6376 74.0804C18.3914 74.0393 18.1639 73.9229 17.9867 73.7471C13.6937 69.4059 13.6937 69.4059 9.35256 65.113C9.17678 64.9358 9.06034 64.7083 9.0193 64.4621C8.97826 64.2159 9.01465 63.963 9.12345 63.7383L11.7402 58.3118L10.6308 55.7553C9.93139 54.0551 9.32845 52.5718 8.44815 50.5098L2.7805 48.5201C2.53316 48.434 2.32054 48.2698 2.17478 48.0523C2.02901 47.8347 1.95803 47.5756 1.97256 47.3142V35.2553C1.95803 34.9939 2.02901 34.7348 2.17478 34.5172C2.32054 34.2997 2.53316 34.1355 2.7805 34.0495L8.44815 32.0598C9.31639 30.0098 9.91933 28.5265 10.6187 26.8503L11.6799 24.2456L9.07521 18.8192C8.96642 18.5945 8.93003 18.3416 8.97107 18.0954C9.0121 17.8491 9.12855 17.6217 9.30433 17.4445C13.6455 13.1515 13.6455 13.1515 17.9384 8.81034C18.1143 8.63257 18.3411 8.51386 18.5874 8.47065C18.8337 8.42744 19.0873 8.46187 19.3132 8.56916L24.7396 11.1859L27.2961 10.1609C28.9964 9.46151 30.4917 8.84651 32.5658 7.96622L34.5314 2.29857C34.6174 2.05123 34.7816 1.8386 34.9992 1.69284C35.2167 1.54708 35.4758 1.4761 35.7373 1.49063H47.7961C48.0576 1.4761 48.3167 1.54708 48.5342 1.69284C48.7518 1.8386 48.916 2.05123 49.002 2.29857L50.9917 7.96622C53.0658 8.84651 54.6093 9.46151 56.2614 10.1609L58.8058 11.198L64.2323 8.59328C64.457 8.48448 64.7099 8.44809 64.9561 8.48913C65.2023 8.53017 65.4297 8.64661 65.607 8.82239C69.8999 13.1636 69.8999 13.1636 74.2411 17.4565C74.4189 17.6324 74.5376 17.8591 74.5808 18.1054C74.624 18.3517 74.5896 18.6054 74.4823 18.8312L71.9138 24.2577L72.8785 26.8142C73.5899 28.5386 74.2049 30.0339 75.0852 32.12L80.7529 34.0495C81.0002 34.1355 81.2128 34.2997 81.3586 34.5172C81.5044 34.7348 81.5753 34.9939 81.5608 35.2553V47.3142C81.5753 47.5756 81.5044 47.8347 81.3586 48.0523C81.2128 48.2698 81.0002 48.434 80.7529 48.5201L75.0852 50.5098C74.1929 52.608 73.5779 54.1274 72.8664 55.8639L71.8535 58.2756L74.4582 63.7021C74.567 63.9268 74.6034 64.1797 74.5623 64.4259C74.5213 64.6721 74.4048 64.8996 74.229 65.0768C69.8879 69.3698 69.8879 69.3698 65.5949 73.7109C65.4177 73.8867 65.1903 74.0032 64.944 74.0442C64.6978 74.0852 64.4449 74.0489 64.2202 73.9401L58.7938 71.3233L56.2614 72.3724C54.549 73.0718 53.0537 73.6868 50.9796 74.5671L49.002 80.2709C48.916 80.5183 48.7518 80.7309 48.5342 80.8767C48.3167 81.0224 48.0576 81.0934 47.7961 81.0789ZM36.4849 78.6671H46.952L48.8332 73.3009C48.8883 73.1428 48.9757 72.9979 49.0899 72.8754C49.2041 72.7529 49.3425 72.6555 49.4964 72.5895C51.8479 71.5886 53.4396 70.9374 55.2967 70.1777L58.3114 68.9718C58.4669 68.9019 58.6354 68.8658 58.8058 68.8658C58.9763 68.8658 59.1448 68.9019 59.3002 68.9718L64.4373 71.3836C67.9585 67.8383 68.3202 67.4765 71.8655 63.9553L69.4538 58.8183C69.3839 58.6628 69.3477 58.4943 69.3477 58.3239C69.3477 58.1534 69.3839 57.9849 69.4538 57.8295L70.6596 54.8871C71.4314 52.9939 72.0826 51.3901 73.0714 49.0145C73.1374 48.8606 73.2348 48.7221 73.3573 48.6079C73.4798 48.4937 73.6247 48.4063 73.7829 48.3512L79.1491 46.5183V36.0512L73.7829 34.17C73.4676 34.0514 73.2119 33.813 73.0714 33.5068C72.0705 31.095 71.4073 29.5515 70.6596 27.6824L69.4538 24.6918C69.3839 24.5364 69.3477 24.3678 69.3477 24.1974C69.3477 24.027 69.3839 23.8584 69.4538 23.703L71.8655 18.5659C68.3202 15.0447 67.9585 14.683 64.4373 11.1377L59.3002 13.6097C59.1448 13.6796 58.9763 13.7158 58.8058 13.7158C58.6354 13.7158 58.4669 13.6796 58.3114 13.6097L55.2846 12.4039C53.4396 11.6442 51.8479 10.993 49.4964 9.9921C49.3425 9.92606 49.2041 9.8287 49.0899 9.7062C48.9757 9.58371 48.8883 9.43877 48.8332 9.28063L47.0002 3.90239H36.5332L34.652 9.26857C34.5969 9.42671 34.5095 9.57165 34.3953 9.69414C34.2811 9.81664 34.1426 9.914 33.9887 9.98004C31.6373 10.9809 30.0455 11.6321 28.2005 12.3918L25.1737 13.5977C25.0183 13.6676 24.8498 13.7037 24.6793 13.7037C24.5089 13.7037 24.3404 13.6676 24.1849 13.5977L19.0479 11.1377C15.5267 14.683 15.1649 15.0447 11.6196 18.5659L14.0917 23.703C14.1616 23.8584 14.1977 24.027 14.1977 24.1974C14.1977 24.3678 14.1616 24.5364 14.0917 24.6918C13.6093 25.8977 13.1993 26.8503 12.8255 27.7789C12.0779 29.5998 11.4267 31.1915 10.4137 33.5068C10.2691 33.81 10.0149 34.047 9.70227 34.17L4.38433 36.0512V46.5183L9.7505 48.3995C9.90865 48.4546 10.0536 48.542 10.1761 48.6562C10.2986 48.7704 10.3959 48.9088 10.462 49.0627C11.4508 51.4021 12.102 52.9939 12.8737 54.8268L14.0796 57.8777C14.1495 58.0332 14.1856 58.2017 14.1856 58.3721C14.1856 58.5426 14.1495 58.7111 14.0796 58.8665L11.6196 64.0036C15.1649 67.5248 15.5267 67.8865 19.0479 71.4318L24.1849 69.0201C24.3404 68.9502 24.5089 68.914 24.6793 68.914C24.8498 68.914 25.0183 68.9502 25.1737 69.0201L28.1884 70.2259C30.0455 70.9856 31.6373 71.6368 33.9887 72.6377C34.1426 72.7037 34.2811 72.8011 34.3953 72.9236C34.5095 73.0461 34.5969 73.191 34.652 73.3492L36.4849 78.6671Z"/>
</mask>
<path d="M47.7961 81.0789H35.7373C35.4859 81.0804 35.2404 81.0033 35.035 80.8585C34.8296 80.7136 34.6746 80.5082 34.5917 80.2709L32.602 74.6033C30.5279 73.723 28.9843 73.108 27.3202 72.4086L24.7879 71.3595L19.3614 73.9762C19.1367 74.085 18.8838 74.1214 18.6376 74.0804C18.3914 74.0393 18.1639 73.9229 17.9867 73.7471C13.6937 69.4059 13.6937 69.4059 9.35256 65.113C9.17678 64.9358 9.06034 64.7083 9.0193 64.4621C8.97826 64.2159 9.01465 63.963 9.12345 63.7383L11.7402 58.3118L10.6308 55.7553C9.93139 54.0551 9.32845 52.5718 8.44815 50.5098L2.7805 48.5201C2.53316 48.434 2.32054 48.2698 2.17478 48.0523C2.02901 47.8347 1.95803 47.5756 1.97256 47.3142V35.2553C1.95803 34.9939 2.02901 34.7348 2.17478 34.5172C2.32054 34.2997 2.53316 34.1355 2.7805 34.0495L8.44815 32.0598C9.31639 30.0098 9.91933 28.5265 10.6187 26.8503L11.6799 24.2456L9.07521 18.8192C8.96642 18.5945 8.93003 18.3416 8.97107 18.0954C9.0121 17.8491 9.12855 17.6217 9.30433 17.4445C13.6455 13.1515 13.6455 13.1515 17.9384 8.81034C18.1143 8.63257 18.3411 8.51386 18.5874 8.47065C18.8337 8.42744 19.0873 8.46187 19.3132 8.56916L24.7396 11.1859L27.2961 10.1609C28.9964 9.46151 30.4917 8.84651 32.5658 7.96622L34.5314 2.29857C34.6174 2.05123 34.7816 1.8386 34.9992 1.69284C35.2167 1.54708 35.4758 1.4761 35.7373 1.49063H47.7961C48.0576 1.4761 48.3167 1.54708 48.5342 1.69284C48.7518 1.8386 48.916 2.05123 49.002 2.29857L50.9917 7.96622C53.0658 8.84651 54.6093 9.46151 56.2614 10.1609L58.8058 11.198L64.2323 8.59328C64.457 8.48448 64.7099 8.44809 64.9561 8.48913C65.2023 8.53017 65.4297 8.64661 65.607 8.82239C69.8999 13.1636 69.8999 13.1636 74.2411 17.4565C74.4189 17.6324 74.5376 17.8591 74.5808 18.1054C74.624 18.3517 74.5896 18.6054 74.4823 18.8312L71.9138 24.2577L72.8785 26.8142C73.5899 28.5386 74.2049 30.0339 75.0852 32.12L80.7529 34.0495C81.0002 34.1355 81.2128 34.2997 81.3586 34.5172C81.5044 34.7348 81.5753 34.9939 81.5608 35.2553V47.3142C81.5753 47.5756 81.5044 47.8347 81.3586 48.0523C81.2128 48.2698 81.0002 48.434 80.7529 48.5201L75.0852 50.5098C74.1929 52.608 73.5779 54.1274 72.8664 55.8639L71.8535 58.2756L74.4582 63.7021C74.567 63.9268 74.6034 64.1797 74.5623 64.4259C74.5213 64.6721 74.4048 64.8996 74.229 65.0768C69.8879 69.3698 69.8879 69.3698 65.5949 73.7109C65.4177 73.8867 65.1903 74.0032 64.944 74.0442C64.6978 74.0852 64.4449 74.0489 64.2202 73.9401L58.7938 71.3233L56.2614 72.3724C54.549 73.0718 53.0537 73.6868 50.9796 74.5671L49.002 80.2709C48.916 80.5183 48.7518 80.7309 48.5342 80.8767C48.3167 81.0224 48.0576 81.0934 47.7961 81.0789ZM36.4849 78.6671H46.952L48.8332 73.3009C48.8883 73.1428 48.9757 72.9979 49.0899 72.8754C49.2041 72.7529 49.3425 72.6555 49.4964 72.5895C51.8479 71.5886 53.4396 70.9374 55.2967 70.1777L58.3114 68.9718C58.4669 68.9019 58.6354 68.8658 58.8058 68.8658C58.9763 68.8658 59.1448 68.9019 59.3002 68.9718L64.4373 71.3836C67.9585 67.8383 68.3202 67.4765 71.8655 63.9553L69.4538 58.8183C69.3839 58.6628 69.3477 58.4943 69.3477 58.3239C69.3477 58.1534 69.3839 57.9849 69.4538 57.8295L70.6596 54.8871C71.4314 52.9939 72.0826 51.3901 73.0714 49.0145C73.1374 48.8606 73.2348 48.7221 73.3573 48.6079C73.4798 48.4937 73.6247 48.4063 73.7829 48.3512L79.1491 46.5183V36.0512L73.7829 34.17C73.4676 34.0514 73.2119 33.813 73.0714 33.5068C72.0705 31.095 71.4073 29.5515 70.6596 27.6824L69.4538 24.6918C69.3839 24.5364 69.3477 24.3678 69.3477 24.1974C69.3477 24.027 69.3839 23.8584 69.4538 23.703L71.8655 18.5659C68.3202 15.0447 67.9585 14.683 64.4373 11.1377L59.3002 13.6097C59.1448 13.6796 58.9763 13.7158 58.8058 13.7158C58.6354 13.7158 58.4669 13.6796 58.3114 13.6097L55.2846 12.4039C53.4396 11.6442 51.8479 10.993 49.4964 9.9921C49.3425 9.92606 49.2041 9.8287 49.0899 9.7062C48.9757 9.58371 48.8883 9.43877 48.8332 9.28063L47.0002 3.90239H36.5332L34.652 9.26857C34.5969 9.42671 34.5095 9.57165 34.3953 9.69414C34.2811 9.81664 34.1426 9.914 33.9887 9.98004C31.6373 10.9809 30.0455 11.6321 28.2005 12.3918L25.1737 13.5977C25.0183 13.6676 24.8498 13.7037 24.6793 13.7037C24.5089 13.7037 24.3404 13.6676 24.1849 13.5977L19.0479 11.1377C15.5267 14.683 15.1649 15.0447 11.6196 18.5659L14.0917 23.703C14.1616 23.8584 14.1977 24.027 14.1977 24.1974C14.1977 24.3678 14.1616 24.5364 14.0917 24.6918C13.6093 25.8977 13.1993 26.8503 12.8255 27.7789C12.0779 29.5998 11.4267 31.1915 10.4137 33.5068C10.2691 33.81 10.0149 34.047 9.70227 34.17L4.38433 36.0512V46.5183L9.7505 48.3995C9.90865 48.4546 10.0536 48.542 10.1761 48.6562C10.2986 48.7704 10.3959 48.9088 10.462 49.0627C11.4508 51.4021 12.102 52.9939 12.8737 54.8268L14.0796 57.8777C14.1495 58.0332 14.1856 58.2017 14.1856 58.3721C14.1856 58.5426 14.1495 58.7111 14.0796 58.8665L11.6196 64.0036C15.1649 67.5248 15.5267 67.8865 19.0479 71.4318L24.1849 69.0201C24.3404 68.9502 24.5089 68.914 24.6793 68.914C24.8498 68.914 25.0183 68.9502 25.1737 69.0201L28.1884 70.2259C30.0455 70.9856 31.6373 71.6368 33.9887 72.6377C34.1426 72.7037 34.2811 72.8011 34.3953 72.9236C34.5095 73.0461 34.5969 73.191 34.652 73.3492L36.4849 78.6671Z" fill="#121212"/>
<path d="M47.7961 81.0789H35.7373C35.4859 81.0804 35.2404 81.0033 35.035 80.8585C34.8296 80.7136 34.6746 80.5082 34.5917 80.2709L32.602 74.6033C30.5279 73.723 28.9843 73.108 27.3202 72.4086L24.7879 71.3595L19.3614 73.9762C19.1367 74.085 18.8838 74.1214 18.6376 74.0804C18.3914 74.0393 18.1639 73.9229 17.9867 73.7471C13.6937 69.4059 13.6937 69.4059 9.35256 65.113C9.17678 64.9358 9.06034 64.7083 9.0193 64.4621C8.97826 64.2159 9.01465 63.963 9.12345 63.7383L11.7402 58.3118L10.6308 55.7553C9.93139 54.0551 9.32845 52.5718 8.44815 50.5098L2.7805 48.5201C2.53316 48.434 2.32054 48.2698 2.17478 48.0523C2.02901 47.8347 1.95803 47.5756 1.97256 47.3142V35.2553C1.95803 34.9939 2.02901 34.7348 2.17478 34.5172C2.32054 34.2997 2.53316 34.1355 2.7805 34.0495L8.44815 32.0598C9.31639 30.0098 9.91933 28.5265 10.6187 26.8503L11.6799 24.2456L9.07521 18.8192C8.96642 18.5945 8.93003 18.3416 8.97107 18.0954C9.0121 17.8491 9.12855 17.6217 9.30433 17.4445C13.6455 13.1515 13.6455 13.1515 17.9384 8.81034C18.1143 8.63257 18.3411 8.51386 18.5874 8.47065C18.8337 8.42744 19.0873 8.46187 19.3132 8.56916L24.7396 11.1859L27.2961 10.1609C28.9964 9.46151 30.4917 8.84651 32.5658 7.96622L34.5314 2.29857C34.6174 2.05123 34.7816 1.8386 34.9992 1.69284C35.2167 1.54708 35.4758 1.4761 35.7373 1.49063H47.7961C48.0576 1.4761 48.3167 1.54708 48.5342 1.69284C48.7518 1.8386 48.916 2.05123 49.002 2.29857L50.9917 7.96622C53.0658 8.84651 54.6093 9.46151 56.2614 10.1609L58.8058 11.198L64.2323 8.59328C64.457 8.48448 64.7099 8.44809 64.9561 8.48913C65.2023 8.53017 65.4297 8.64661 65.607 8.82239C69.8999 13.1636 69.8999 13.1636 74.2411 17.4565C74.4189 17.6324 74.5376 17.8591 74.5808 18.1054C74.624 18.3517 74.5896 18.6054 74.4823 18.8312L71.9138 24.2577L72.8785 26.8142C73.5899 28.5386 74.2049 30.0339 75.0852 32.12L80.7529 34.0495C81.0002 34.1355 81.2128 34.2997 81.3586 34.5172C81.5044 34.7348 81.5753 34.9939 81.5608 35.2553V47.3142C81.5753 47.5756 81.5044 47.8347 81.3586 48.0523C81.2128 48.2698 81.0002 48.434 80.7529 48.5201L75.0852 50.5098C74.1929 52.608 73.5779 54.1274 72.8664 55.8639L71.8535 58.2756L74.4582 63.7021C74.567 63.9268 74.6034 64.1797 74.5623 64.4259C74.5213 64.6721 74.4048 64.8996 74.229 65.0768C69.8879 69.3698 69.8879 69.3698 65.5949 73.7109C65.4177 73.8867 65.1903 74.0032 64.944 74.0442C64.6978 74.0852 64.4449 74.0489 64.2202 73.9401L58.7938 71.3233L56.2614 72.3724C54.549 73.0718 53.0537 73.6868 50.9796 74.5671L49.002 80.2709C48.916 80.5183 48.7518 80.7309 48.5342 80.8767C48.3167 81.0224 48.0576 81.0934 47.7961 81.0789ZM36.4849 78.6671H46.952L48.8332 73.3009C48.8883 73.1428 48.9757 72.9979 49.0899 72.8754C49.2041 72.7529 49.3425 72.6555 49.4964 72.5895C51.8479 71.5886 53.4396 70.9374 55.2967 70.1777L58.3114 68.9718C58.4669 68.9019 58.6354 68.8658 58.8058 68.8658C58.9763 68.8658 59.1448 68.9019 59.3002 68.9718L64.4373 71.3836C67.9585 67.8383 68.3202 67.4765 71.8655 63.9553L69.4538 58.8183C69.3839 58.6628 69.3477 58.4943 69.3477 58.3239C69.3477 58.1534 69.3839 57.9849 69.4538 57.8295L70.6596 54.8871C71.4314 52.9939 72.0826 51.3901 73.0714 49.0145C73.1374 48.8606 73.2348 48.7221 73.3573 48.6079C73.4798 48.4937 73.6247 48.4063 73.7829 48.3512L79.1491 46.5183V36.0512L73.7829 34.17C73.4676 34.0514 73.2119 33.813 73.0714 33.5068C72.0705 31.095 71.4073 29.5515 70.6596 27.6824L69.4538 24.6918C69.3839 24.5364 69.3477 24.3678 69.3477 24.1974C69.3477 24.027 69.3839 23.8584 69.4538 23.703L71.8655 18.5659C68.3202 15.0447 67.9585 14.683 64.4373 11.1377L59.3002 13.6097C59.1448 13.6796 58.9763 13.7158 58.8058 13.7158C58.6354 13.7158 58.4669 13.6796 58.3114 13.6097L55.2846 12.4039C53.4396 11.6442 51.8479 10.993 49.4964 9.9921C49.3425 9.92606 49.2041 9.8287 49.0899 9.7062C48.9757 9.58371 48.8883 9.43877 48.8332 9.28063L47.0002 3.90239H36.5332L34.652 9.26857C34.5969 9.42671 34.5095 9.57165 34.3953 9.69414C34.2811 9.81664 34.1426 9.914 33.9887 9.98004C31.6373 10.9809 30.0455 11.6321 28.2005 12.3918L25.1737 13.5977C25.0183 13.6676 24.8498 13.7037 24.6793 13.7037C24.5089 13.7037 24.3404 13.6676 24.1849 13.5977L19.0479 11.1377C15.5267 14.683 15.1649 15.0447 11.6196 18.5659L14.0917 23.703C14.1616 23.8584 14.1977 24.027 14.1977 24.1974C14.1977 24.3678 14.1616 24.5364 14.0917 24.6918C13.6093 25.8977 13.1993 26.8503 12.8255 27.7789C12.0779 29.5998 11.4267 31.1915 10.4137 33.5068C10.2691 33.81 10.0149 34.047 9.70227 34.17L4.38433 36.0512V46.5183L9.7505 48.3995C9.90865 48.4546 10.0536 48.542 10.1761 48.6562C10.2986 48.7704 10.3959 48.9088 10.462 49.0627C11.4508 51.4021 12.102 52.9939 12.8737 54.8268L14.0796 57.8777C14.1495 58.0332 14.1856 58.2017 14.1856 58.3721C14.1856 58.5426 14.1495 58.7111 14.0796 58.8665L11.6196 64.0036C15.1649 67.5248 15.5267 67.8865 19.0479 71.4318L24.1849 69.0201C24.3404 68.9502 24.5089 68.914 24.6793 68.914C24.8498 68.914 25.0183 68.9502 25.1737 69.0201L28.1884 70.2259C30.0455 70.9856 31.6373 71.6368 33.9887 72.6377C34.1426 72.7037 34.2811 72.8011 34.3953 72.9236C34.5095 73.0461 34.5969 73.191 34.652 73.3492L36.4849 78.6671Z" stroke="#121212" stroke-width="0.2" mask="url(#path-1-outside-1_56_195)"/>
<path d="M41.7666 68.1535H41.7667C48.8898 68.1439 55.7183 65.31 60.7551 60.2732C65.7919 55.2364 68.6258 48.4078 68.6354 41.2847V41.2847C68.6354 35.9705 67.0596 30.7757 64.1072 26.3571C61.1548 21.9386 56.9585 18.4947 52.0488 16.4611C47.1392 14.4275 41.7368 13.8954 36.5247 14.9321C31.3127 15.9688 26.5251 18.5279 22.7675 22.2855C19.0098 26.0432 16.4508 30.8308 15.414 36.0428C14.3773 41.2549 14.9094 46.6573 16.943 51.5669C18.9767 56.4765 22.4205 60.6729 26.8391 63.6253C31.2576 66.5776 36.4524 68.1535 41.7666 68.1535ZM28.2345 21.0325C32.24 18.3561 36.9492 16.9276 41.7665 16.9276C48.2245 16.934 54.4161 19.5022 58.9826 24.0687C63.549 28.6351 66.1173 34.8268 66.1236 41.2847C66.1236 46.102 64.6951 50.8112 62.0187 54.8167C59.3424 58.8222 55.5383 61.9441 51.0876 63.7876C46.637 65.6312 41.7396 66.1135 37.0148 65.1737C32.29 64.2339 27.9499 61.9141 24.5435 58.5077C21.1372 55.1013 18.8174 50.7613 17.8775 46.0365C16.9377 41.3117 17.4201 36.4143 19.2636 31.9636C21.1071 27.5129 24.229 23.7089 28.2345 21.0325Z" fill="#121212" stroke="#121212" stroke-width="0.1"/>
<path d="M30.7694 51.416C31.0527 51.4143 31.327 51.3169 31.5479 51.1397L31.548 51.1396C31.677 51.036 31.7842 50.9079 31.8636 50.7627C31.9429 50.6174 31.9928 50.458 32.0103 50.2934C32.0278 50.1289 32.0126 49.9625 31.9656 49.8038C31.9186 49.6451 31.8407 49.4973 31.7364 49.3689L31.7363 49.3688C29.8774 47.0857 28.8672 44.2291 28.8775 41.285V41.2848C28.8775 37.8664 30.2355 34.588 32.6527 32.1708C35.0699 29.7536 38.3483 28.3957 41.7667 28.3957C45.1851 28.3957 48.4635 29.7536 50.8806 32.1708C53.2978 34.588 54.6558 37.8664 54.6558 41.2848C54.6558 41.6179 54.7881 41.9373 55.0236 42.1728C55.2591 42.4084 55.5786 42.5407 55.9117 42.5407C56.2447 42.5407 56.5642 42.4084 56.7997 42.1728C57.0352 41.9373 57.1675 41.6179 57.1675 41.2848C57.1681 38.8207 56.5773 36.3925 55.445 34.204C54.3126 32.0156 52.6716 30.1308 50.6599 28.7079C48.6482 27.285 46.3244 26.3656 43.8837 26.0269C41.4431 25.6881 38.9567 25.94 36.6336 26.7613C34.3104 27.5825 32.2182 28.9493 30.5326 30.7467C28.8471 32.5441 27.6174 34.7196 26.9469 37.0907C26.2764 39.4618 26.1846 41.9592 26.6793 44.3731C27.1739 46.787 28.2405 49.047 29.7895 50.9633L29.79 50.9638C29.9094 51.1073 30.0593 51.2222 30.2288 51.3004C30.3982 51.3786 30.5829 51.4181 30.7694 51.416ZM30.7694 51.416C30.7694 51.416 30.7693 51.416 30.7693 51.416L30.769 51.366L30.7696 51.416C30.7695 51.416 30.7695 51.416 30.7694 51.416Z" fill="#121212" stroke="#121212" stroke-width="0.1"/>
<mask id="path-4-outside-2_56_195" maskUnits="userSpaceOnUse" x="13.9478" y="13.4658" width="55" height="55" fill="black">
<rect fill="white" x="13.9478" y="13.4658" width="55" height="55"/>
<path d="M41.7666 45.2038C40.8611 45.2164 39.9792 44.9152 39.2707 44.3512C38.5623 43.7871 38.071 42.9952 37.8804 42.1099C37.6898 41.2247 37.8116 40.3007 38.2252 39.4951C38.6388 38.6895 39.3186 38.052 40.149 37.6909C40.9795 37.3299 41.9094 37.2675 42.7806 37.5145C43.6518 37.7615 44.4106 38.3025 44.9281 39.0457C45.4455 39.7889 45.6896 40.6883 45.6188 41.5911C45.5481 42.4939 45.1669 43.3443 44.5401 43.9979C44.1807 44.3726 43.7505 44.6721 43.2743 44.8791C42.7982 45.0861 42.2857 45.1965 41.7666 45.2038ZM41.7666 39.7773C41.5687 39.7758 41.3726 39.8146 41.1901 39.8913C41.0077 39.968 40.8428 40.081 40.7054 40.2235C40.5654 40.3625 40.4543 40.5278 40.3784 40.7099C40.3026 40.892 40.2636 41.0874 40.2636 41.2846C40.2636 41.4819 40.3026 41.6773 40.3784 41.8594C40.4543 42.0415 40.5654 42.2068 40.7054 42.3458C40.9892 42.6228 41.37 42.7778 41.7666 42.7778C42.1631 42.7778 42.544 42.6228 42.8278 42.3458C42.9678 42.2068 43.0789 42.0415 43.1547 41.8594C43.2305 41.6773 43.2696 41.4819 43.2696 41.2846C43.2696 41.0874 43.2305 40.892 43.1547 40.7099C43.0789 40.5278 42.9678 40.3625 42.8278 40.2235C42.6904 40.081 42.5255 39.968 42.343 39.8913C42.1606 39.8146 41.9645 39.7758 41.7666 39.7773ZM41.7666 19.9646C41.4468 19.9646 41.14 19.8376 40.9139 19.6114C40.6877 19.3853 40.5607 19.0786 40.5607 18.7588V15.6717C40.5607 15.3519 40.6877 15.0452 40.9139 14.819C41.14 14.5929 41.4468 14.4658 41.7666 14.4658C42.0864 14.4658 42.3931 14.5929 42.6193 14.819C42.8454 15.0452 42.9725 15.3519 42.9725 15.6717V18.7588C42.9725 19.0786 42.8454 19.3853 42.6193 19.6114C42.3931 19.8376 42.0864 19.9646 41.7666 19.9646ZM30.5036 22.9793C30.2911 22.9802 30.0822 22.9249 29.898 22.819C29.7137 22.7131 29.5608 22.5604 29.4545 22.3764L27.911 19.7114C27.8318 19.5736 27.7805 19.4216 27.7601 19.264C27.7397 19.1064 27.7505 18.9464 27.7919 18.793C27.8756 18.4832 28.0789 18.2193 28.3572 18.0593C28.4949 17.9802 28.647 17.9289 28.8045 17.9085C28.9621 17.888 29.1222 17.8989 29.2756 17.9403C29.5854 18.024 29.8493 18.2273 30.0092 18.5055L31.5528 21.1705C31.6588 21.3542 31.7145 21.5626 31.7143 21.7747C31.7141 21.9868 31.658 22.195 31.5516 22.3785C31.4452 22.5619 31.2922 22.7141 31.1083 22.8196C30.9243 22.9251 30.7157 22.9802 30.5036 22.9793ZM22.2554 31.2276C22.0442 31.229 21.8362 31.175 21.6525 31.0708L18.9875 29.5273C18.8497 29.4481 18.7289 29.3426 18.6319 29.2167C18.5349 29.0908 18.4637 28.9471 18.4222 28.7937C18.3808 28.6403 18.37 28.4802 18.3904 28.3226C18.4108 28.165 18.4621 28.013 18.5413 27.8752C18.6205 27.7375 18.726 27.6166 18.8519 27.5196C18.9778 27.4227 19.1215 27.3514 19.2749 27.31C19.5847 27.2263 19.9151 27.2691 20.1933 27.4291L22.8583 28.9726C23.0906 29.1042 23.2727 29.3092 23.3759 29.5555C23.4792 29.8017 23.4978 30.0753 23.4288 30.3332C23.3598 30.5912 23.2072 30.8189 22.9948 30.9808C22.7825 31.1426 22.5224 31.2295 22.2554 31.2276ZM19.2407 42.4905H16.1536C15.8338 42.4905 15.5271 42.3635 15.3009 42.1373C15.0748 41.9112 14.9478 41.6045 14.9478 41.2846C14.9478 40.9648 15.0748 40.6581 15.3009 40.432C15.5271 40.2058 15.8338 40.0788 16.1536 40.0788H19.2407C19.5605 40.0788 19.8672 40.2058 20.0934 40.432C20.3195 40.6581 20.4466 40.9648 20.4466 41.2846C20.4466 41.6045 20.3195 41.9112 20.0934 42.1373C19.8672 42.3635 19.5605 42.4905 19.2407 42.4905ZM19.5904 55.297C19.3234 55.2989 19.0633 55.2121 18.851 55.0502C18.6386 54.8883 18.486 54.6606 18.417 54.4026C18.348 54.1447 18.3666 53.8711 18.4699 53.6249C18.5731 53.3787 18.7552 53.1736 18.9875 53.042L21.6525 51.4985C21.9307 51.3386 22.2611 51.2957 22.5709 51.3794C22.8807 51.4631 23.1446 51.6664 23.3045 51.9446C23.4644 52.2229 23.5073 52.5533 23.4236 52.8631C23.3399 53.1729 23.1366 53.4368 22.8583 53.5967L20.1933 55.1402C20.0096 55.2444 19.8016 55.2985 19.5904 55.297ZM28.9601 64.6667C28.748 64.6675 28.5395 64.6124 28.3555 64.5069C28.1715 64.4015 28.0186 64.2493 27.9122 64.0658C27.8058 63.8824 27.7496 63.6741 27.7494 63.462C27.7492 63.2499 27.8049 63.0415 27.911 62.8579L29.4545 60.1929C29.6144 59.9146 29.8783 59.7113 30.1881 59.6276C30.498 59.544 30.8283 59.5868 31.1066 59.7467C31.3848 59.9066 31.5881 60.1705 31.6718 60.4803C31.7555 60.7901 31.7127 61.1205 31.5528 61.3988L30.0092 64.0638C29.903 64.2478 29.75 64.4005 29.5658 64.5063C29.3815 64.6122 29.1726 64.6675 28.9601 64.6667ZM41.7666 68.1035C41.4468 68.1035 41.14 67.9764 40.9139 67.7503C40.6877 67.5241 40.5607 67.2174 40.5607 66.8976V63.8105C40.5607 63.4907 40.6877 63.184 40.9139 62.9578C41.14 62.7317 41.4468 62.6046 41.7666 62.6046C42.0864 62.6046 42.3931 62.7317 42.6193 62.9578C42.8454 63.184 42.9725 63.4907 42.9725 63.8105V66.8976C42.9725 67.2174 42.8454 67.5241 42.6193 67.7503C42.3931 67.9764 42.0864 68.1035 41.7666 68.1035ZM54.573 64.6667C54.3606 64.6675 54.1516 64.6122 53.9674 64.5063C53.7831 64.4005 53.6302 64.2478 53.5239 64.0638L51.9804 61.3988C51.8205 61.1205 51.7777 60.7901 51.8613 60.4803C51.945 60.1705 52.1483 59.9066 52.4266 59.7467C52.7048 59.5868 53.0352 59.544 53.345 59.6276C53.6548 59.7113 53.9187 59.9146 54.0786 60.1929L55.6222 62.8579C55.7282 63.0415 55.7839 63.2499 55.7837 63.462C55.7835 63.6741 55.7274 63.8824 55.621 64.0658C55.5146 64.2493 55.3617 64.4015 55.1777 64.5069C54.9937 64.6124 54.7851 64.6675 54.573 64.6667ZM63.9427 55.297C63.7315 55.2985 63.5236 55.2444 63.3398 55.1402L60.6748 53.5967C60.3966 53.4368 60.1932 53.1729 60.1096 52.8631C60.0259 52.5533 60.0687 52.2229 60.2286 51.9446C60.3885 51.6664 60.6524 51.4631 60.9623 51.3794C61.2721 51.2957 61.6024 51.3386 61.8807 51.4985L64.5457 53.042C64.778 53.1736 64.96 53.3787 65.0633 53.6249C65.1665 53.8711 65.1851 54.1447 65.1161 54.4026C65.0472 54.6606 64.8945 54.8883 64.6822 55.0502C64.4698 55.2121 64.2098 55.2989 63.9427 55.297ZM67.3795 42.4905H64.2925C63.9726 42.4905 63.6659 42.3635 63.4398 42.1373C63.2136 41.9112 63.0866 41.6045 63.0866 41.2846C63.0866 40.9648 63.2136 40.6581 63.4398 40.432C63.6659 40.2058 63.9726 40.0788 64.2925 40.0788H67.3795C67.6993 40.0788 68.0061 40.2058 68.2322 40.432C68.4583 40.6581 68.5854 40.9648 68.5854 41.2846C68.5854 41.6045 68.4583 41.9112 68.2322 42.1373C68.0061 42.3635 67.6993 42.4905 67.3795 42.4905ZM61.2778 31.2276C61.0107 31.2295 60.7507 31.1426 60.5383 30.9808C60.326 30.8189 60.1733 30.5912 60.1044 30.3332C60.0354 30.0753 60.054 29.8017 60.1572 29.5555C60.2605 29.3092 60.4425 29.1042 60.6748 28.9726L63.3398 27.4291C63.618 27.2691 63.9484 27.2263 64.2583 27.31C64.5681 27.3937 64.832 27.597 64.9919 27.8752C65.1518 28.1535 65.1946 28.4838 65.1109 28.7937C65.0273 29.1035 64.8239 29.3674 64.5457 29.5273L61.8807 31.0708C61.6969 31.175 61.489 31.229 61.2778 31.2276ZM53.0295 22.9793C52.8174 22.9802 52.6089 22.9251 52.4249 22.8196C52.2409 22.7141 52.088 22.5619 51.9816 22.3785C51.8752 22.195 51.819 21.9868 51.8188 21.7747C51.8186 21.5626 51.8744 21.3542 51.9804 21.1705L53.5239 18.5055C53.6031 18.3678 53.7086 18.2469 53.8345 18.1499C53.9604 18.053 54.1041 17.9817 54.2576 17.9403C54.411 17.8989 54.571 17.888 54.7286 17.9085C54.8862 17.9289 55.0382 17.9802 55.176 18.0593C55.3138 18.1385 55.4346 18.2441 55.5316 18.3699C55.6286 18.4958 55.6998 18.6396 55.7412 18.793C55.7827 18.9464 55.7935 19.1064 55.773 19.264C55.7526 19.4216 55.7013 19.5736 55.6222 19.7114L54.0786 22.3764C53.9724 22.5604 53.8194 22.7131 53.6352 22.819C53.4509 22.9249 53.242 22.9802 53.0295 22.9793Z"/>
</mask>
<path d="M41.7666 45.2038C40.8611 45.2164 39.9792 44.9152 39.2707 44.3512C38.5623 43.7871 38.071 42.9952 37.8804 42.1099C37.6898 41.2247 37.8116 40.3007 38.2252 39.4951C38.6388 38.6895 39.3186 38.052 40.149 37.6909C40.9795 37.3299 41.9094 37.2675 42.7806 37.5145C43.6518 37.7615 44.4106 38.3025 44.9281 39.0457C45.4455 39.7889 45.6896 40.6883 45.6188 41.5911C45.5481 42.4939 45.1669 43.3443 44.5401 43.9979C44.1807 44.3726 43.7505 44.6721 43.2743 44.8791C42.7982 45.0861 42.2857 45.1965 41.7666 45.2038ZM41.7666 39.7773C41.5687 39.7758 41.3726 39.8146 41.1901 39.8913C41.0077 39.968 40.8428 40.081 40.7054 40.2235C40.5654 40.3625 40.4543 40.5278 40.3784 40.7099C40.3026 40.892 40.2636 41.0874 40.2636 41.2846C40.2636 41.4819 40.3026 41.6773 40.3784 41.8594C40.4543 42.0415 40.5654 42.2068 40.7054 42.3458C40.9892 42.6228 41.37 42.7778 41.7666 42.7778C42.1631 42.7778 42.544 42.6228 42.8278 42.3458C42.9678 42.2068 43.0789 42.0415 43.1547 41.8594C43.2305 41.6773 43.2696 41.4819 43.2696 41.2846C43.2696 41.0874 43.2305 40.892 43.1547 40.7099C43.0789 40.5278 42.9678 40.3625 42.8278 40.2235C42.6904 40.081 42.5255 39.968 42.343 39.8913C42.1606 39.8146 41.9645 39.7758 41.7666 39.7773ZM41.7666 19.9646C41.4468 19.9646 41.14 19.8376 40.9139 19.6114C40.6877 19.3853 40.5607 19.0786 40.5607 18.7588V15.6717C40.5607 15.3519 40.6877 15.0452 40.9139 14.819C41.14 14.5929 41.4468 14.4658 41.7666 14.4658C42.0864 14.4658 42.3931 14.5929 42.6193 14.819C42.8454 15.0452 42.9725 15.3519 42.9725 15.6717V18.7588C42.9725 19.0786 42.8454 19.3853 42.6193 19.6114C42.3931 19.8376 42.0864 19.9646 41.7666 19.9646ZM30.5036 22.9793C30.2911 22.9802 30.0822 22.9249 29.898 22.819C29.7137 22.7131 29.5608 22.5604 29.4545 22.3764L27.911 19.7114C27.8318 19.5736 27.7805 19.4216 27.7601 19.264C27.7397 19.1064 27.7505 18.9464 27.7919 18.793C27.8756 18.4832 28.0789 18.2193 28.3572 18.0593C28.4949 17.9802 28.647 17.9289 28.8045 17.9085C28.9621 17.888 29.1222 17.8989 29.2756 17.9403C29.5854 18.024 29.8493 18.2273 30.0092 18.5055L31.5528 21.1705C31.6588 21.3542 31.7145 21.5626 31.7143 21.7747C31.7141 21.9868 31.658 22.195 31.5516 22.3785C31.4452 22.5619 31.2922 22.7141 31.1083 22.8196C30.9243 22.9251 30.7157 22.9802 30.5036 22.9793ZM22.2554 31.2276C22.0442 31.229 21.8362 31.175 21.6525 31.0708L18.9875 29.5273C18.8497 29.4481 18.7289 29.3426 18.6319 29.2167C18.5349 29.0908 18.4637 28.9471 18.4222 28.7937C18.3808 28.6403 18.37 28.4802 18.3904 28.3226C18.4108 28.165 18.4621 28.013 18.5413 27.8752C18.6205 27.7375 18.726 27.6166 18.8519 27.5196C18.9778 27.4227 19.1215 27.3514 19.2749 27.31C19.5847 27.2263 19.9151 27.2691 20.1933 27.4291L22.8583 28.9726C23.0906 29.1042 23.2727 29.3092 23.3759 29.5555C23.4792 29.8017 23.4978 30.0753 23.4288 30.3332C23.3598 30.5912 23.2072 30.8189 22.9948 30.9808C22.7825 31.1426 22.5224 31.2295 22.2554 31.2276ZM19.2407 42.4905H16.1536C15.8338 42.4905 15.5271 42.3635 15.3009 42.1373C15.0748 41.9112 14.9478 41.6045 14.9478 41.2846C14.9478 40.9648 15.0748 40.6581 15.3009 40.432C15.5271 40.2058 15.8338 40.0788 16.1536 40.0788H19.2407C19.5605 40.0788 19.8672 40.2058 20.0934 40.432C20.3195 40.6581 20.4466 40.9648 20.4466 41.2846C20.4466 41.6045 20.3195 41.9112 20.0934 42.1373C19.8672 42.3635 19.5605 42.4905 19.2407 42.4905ZM19.5904 55.297C19.3234 55.2989 19.0633 55.2121 18.851 55.0502C18.6386 54.8883 18.486 54.6606 18.417 54.4026C18.348 54.1447 18.3666 53.8711 18.4699 53.6249C18.5731 53.3787 18.7552 53.1736 18.9875 53.042L21.6525 51.4985C21.9307 51.3386 22.2611 51.2957 22.5709 51.3794C22.8807 51.4631 23.1446 51.6664 23.3045 51.9446C23.4644 52.2229 23.5073 52.5533 23.4236 52.8631C23.3399 53.1729 23.1366 53.4368 22.8583 53.5967L20.1933 55.1402C20.0096 55.2444 19.8016 55.2985 19.5904 55.297ZM28.9601 64.6667C28.748 64.6675 28.5395 64.6124 28.3555 64.5069C28.1715 64.4015 28.0186 64.2493 27.9122 64.0658C27.8058 63.8824 27.7496 63.6741 27.7494 63.462C27.7492 63.2499 27.8049 63.0415 27.911 62.8579L29.4545 60.1929C29.6144 59.9146 29.8783 59.7113 30.1881 59.6276C30.498 59.544 30.8283 59.5868 31.1066 59.7467C31.3848 59.9066 31.5881 60.1705 31.6718 60.4803C31.7555 60.7901 31.7127 61.1205 31.5528 61.3988L30.0092 64.0638C29.903 64.2478 29.75 64.4005 29.5658 64.5063C29.3815 64.6122 29.1726 64.6675 28.9601 64.6667ZM41.7666 68.1035C41.4468 68.1035 41.14 67.9764 40.9139 67.7503C40.6877 67.5241 40.5607 67.2174 40.5607 66.8976V63.8105C40.5607 63.4907 40.6877 63.184 40.9139 62.9578C41.14 62.7317 41.4468 62.6046 41.7666 62.6046C42.0864 62.6046 42.3931 62.7317 42.6193 62.9578C42.8454 63.184 42.9725 63.4907 42.9725 63.8105V66.8976C42.9725 67.2174 42.8454 67.5241 42.6193 67.7503C42.3931 67.9764 42.0864 68.1035 41.7666 68.1035ZM54.573 64.6667C54.3606 64.6675 54.1516 64.6122 53.9674 64.5063C53.7831 64.4005 53.6302 64.2478 53.5239 64.0638L51.9804 61.3988C51.8205 61.1205 51.7777 60.7901 51.8613 60.4803C51.945 60.1705 52.1483 59.9066 52.4266 59.7467C52.7048 59.5868 53.0352 59.544 53.345 59.6276C53.6548 59.7113 53.9187 59.9146 54.0786 60.1929L55.6222 62.8579C55.7282 63.0415 55.7839 63.2499 55.7837 63.462C55.7835 63.6741 55.7274 63.8824 55.621 64.0658C55.5146 64.2493 55.3617 64.4015 55.1777 64.5069C54.9937 64.6124 54.7851 64.6675 54.573 64.6667ZM63.9427 55.297C63.7315 55.2985 63.5236 55.2444 63.3398 55.1402L60.6748 53.5967C60.3966 53.4368 60.1932 53.1729 60.1096 52.8631C60.0259 52.5533 60.0687 52.2229 60.2286 51.9446C60.3885 51.6664 60.6524 51.4631 60.9623 51.3794C61.2721 51.2957 61.6024 51.3386 61.8807 51.4985L64.5457 53.042C64.778 53.1736 64.96 53.3787 65.0633 53.6249C65.1665 53.8711 65.1851 54.1447 65.1161 54.4026C65.0472 54.6606 64.8945 54.8883 64.6822 55.0502C64.4698 55.2121 64.2098 55.2989 63.9427 55.297ZM67.3795 42.4905H64.2925C63.9726 42.4905 63.6659 42.3635 63.4398 42.1373C63.2136 41.9112 63.0866 41.6045 63.0866 41.2846C63.0866 40.9648 63.2136 40.6581 63.4398 40.432C63.6659 40.2058 63.9726 40.0788 64.2925 40.0788H67.3795C67.6993 40.0788 68.0061 40.2058 68.2322 40.432C68.4583 40.6581 68.5854 40.9648 68.5854 41.2846C68.5854 41.6045 68.4583 41.9112 68.2322 42.1373C68.0061 42.3635 67.6993 42.4905 67.3795 42.4905ZM61.2778 31.2276C61.0107 31.2295 60.7507 31.1426 60.5383 30.9808C60.326 30.8189 60.1733 30.5912 60.1044 30.3332C60.0354 30.0753 60.054 29.8017 60.1572 29.5555C60.2605 29.3092 60.4425 29.1042 60.6748 28.9726L63.3398 27.4291C63.618 27.2691 63.9484 27.2263 64.2583 27.31C64.5681 27.3937 64.832 27.597 64.9919 27.8752C65.1518 28.1535 65.1946 28.4838 65.1109 28.7937C65.0273 29.1035 64.8239 29.3674 64.5457 29.5273L61.8807 31.0708C61.6969 31.175 61.489 31.229 61.2778 31.2276ZM53.0295 22.9793C52.8174 22.9802 52.6089 22.9251 52.4249 22.8196C52.2409 22.7141 52.088 22.5619 51.9816 22.3785C51.8752 22.195 51.819 21.9868 51.8188 21.7747C51.8186 21.5626 51.8744 21.3542 51.9804 21.1705L53.5239 18.5055C53.6031 18.3678 53.7086 18.2469 53.8345 18.1499C53.9604 18.053 54.1041 17.9817 54.2576 17.9403C54.411 17.8989 54.571 17.888 54.7286 17.9085C54.8862 17.9289 55.0382 17.9802 55.176 18.0593C55.3138 18.1385 55.4346 18.2441 55.5316 18.3699C55.6286 18.4958 55.6998 18.6396 55.7412 18.793C55.7827 18.9464 55.7935 19.1064 55.773 19.264C55.7526 19.4216 55.7013 19.5736 55.6222 19.7114L54.0786 22.3764C53.9724 22.5604 53.8194 22.7131 53.6352 22.819C53.4509 22.9249 53.242 22.9802 53.0295 22.9793Z" fill="#121212"/>
<path d="M41.7666 45.2038C40.8611 45.2164 39.9792 44.9152 39.2707 44.3512C38.5623 43.7871 38.071 42.9952 37.8804 42.1099C37.6898 41.2247 37.8116 40.3007 38.2252 39.4951C38.6388 38.6895 39.3186 38.052 40.149 37.6909C40.9795 37.3299 41.9094 37.2675 42.7806 37.5145C43.6518 37.7615 44.4106 38.3025 44.9281 39.0457C45.4455 39.7889 45.6896 40.6883 45.6188 41.5911C45.5481 42.4939 45.1669 43.3443 44.5401 43.9979C44.1807 44.3726 43.7505 44.6721 43.2743 44.8791C42.7982 45.0861 42.2857 45.1965 41.7666 45.2038ZM41.7666 39.7773C41.5687 39.7758 41.3726 39.8146 41.1901 39.8913C41.0077 39.968 40.8428 40.081 40.7054 40.2235C40.5654 40.3625 40.4543 40.5278 40.3784 40.7099C40.3026 40.892 40.2636 41.0874 40.2636 41.2846C40.2636 41.4819 40.3026 41.6773 40.3784 41.8594C40.4543 42.0415 40.5654 42.2068 40.7054 42.3458C40.9892 42.6228 41.37 42.7778 41.7666 42.7778C42.1631 42.7778 42.544 42.6228 42.8278 42.3458C42.9678 42.2068 43.0789 42.0415 43.1547 41.8594C43.2305 41.6773 43.2696 41.4819 43.2696 41.2846C43.2696 41.0874 43.2305 40.892 43.1547 40.7099C43.0789 40.5278 42.9678 40.3625 42.8278 40.2235C42.6904 40.081 42.5255 39.968 42.343 39.8913C42.1606 39.8146 41.9645 39.7758 41.7666 39.7773ZM41.7666 19.9646C41.4468 19.9646 41.14 19.8376 40.9139 19.6114C40.6877 19.3853 40.5607 19.0786 40.5607 18.7588V15.6717C40.5607 15.3519 40.6877 15.0452 40.9139 14.819C41.14 14.5929 41.4468 14.4658 41.7666 14.4658C42.0864 14.4658 42.3931 14.5929 42.6193 14.819C42.8454 15.0452 42.9725 15.3519 42.9725 15.6717V18.7588C42.9725 19.0786 42.8454 19.3853 42.6193 19.6114C42.3931 19.8376 42.0864 19.9646 41.7666 19.9646ZM30.5036 22.9793C30.2911 22.9802 30.0822 22.9249 29.898 22.819C29.7137 22.7131 29.5608 22.5604 29.4545 22.3764L27.911 19.7114C27.8318 19.5736 27.7805 19.4216 27.7601 19.264C27.7397 19.1064 27.7505 18.9464 27.7919 18.793C27.8756 18.4832 28.0789 18.2193 28.3572 18.0593C28.4949 17.9802 28.647 17.9289 28.8045 17.9085C28.9621 17.888 29.1222 17.8989 29.2756 17.9403C29.5854 18.024 29.8493 18.2273 30.0092 18.5055L31.5528 21.1705C31.6588 21.3542 31.7145 21.5626 31.7143 21.7747C31.7141 21.9868 31.658 22.195 31.5516 22.3785C31.4452 22.5619 31.2922 22.7141 31.1083 22.8196C30.9243 22.9251 30.7157 22.9802 30.5036 22.9793ZM22.2554 31.2276C22.0442 31.229 21.8362 31.175 21.6525 31.0708L18.9875 29.5273C18.8497 29.4481 18.7289 29.3426 18.6319 29.2167C18.5349 29.0908 18.4637 28.9471 18.4222 28.7937C18.3808 28.6403 18.37 28.4802 18.3904 28.3226C18.4108 28.165 18.4621 28.013 18.5413 27.8752C18.6205 27.7375 18.726 27.6166 18.8519 27.5196C18.9778 27.4227 19.1215 27.3514 19.2749 27.31C19.5847 27.2263 19.9151 27.2691 20.1933 27.4291L22.8583 28.9726C23.0906 29.1042 23.2727 29.3092 23.3759 29.5555C23.4792 29.8017 23.4978 30.0753 23.4288 30.3332C23.3598 30.5912 23.2072 30.8189 22.9948 30.9808C22.7825 31.1426 22.5224 31.2295 22.2554 31.2276ZM19.2407 42.4905H16.1536C15.8338 42.4905 15.5271 42.3635 15.3009 42.1373C15.0748 41.9112 14.9478 41.6045 14.9478 41.2846C14.9478 40.9648 15.0748 40.6581 15.3009 40.432C15.5271 40.2058 15.8338 40.0788 16.1536 40.0788H19.2407C19.5605 40.0788 19.8672 40.2058 20.0934 40.432C20.3195 40.6581 20.4466 40.9648 20.4466 41.2846C20.4466 41.6045 20.3195 41.9112 20.0934 42.1373C19.8672 42.3635 19.5605 42.4905 19.2407 42.4905ZM19.5904 55.297C19.3234 55.2989 19.0633 55.2121 18.851 55.0502C18.6386 54.8883 18.486 54.6606 18.417 54.4026C18.348 54.1447 18.3666 53.8711 18.4699 53.6249C18.5731 53.3787 18.7552 53.1736 18.9875 53.042L21.6525 51.4985C21.9307 51.3386 22.2611 51.2957 22.5709 51.3794C22.8807 51.4631 23.1446 51.6664 23.3045 51.9446C23.4644 52.2229 23.5073 52.5533 23.4236 52.8631C23.3399 53.1729 23.1366 53.4368 22.8583 53.5967L20.1933 55.1402C20.0096 55.2444 19.8016 55.2985 19.5904 55.297ZM28.9601 64.6667C28.748 64.6675 28.5395 64.6124 28.3555 64.5069C28.1715 64.4015 28.0186 64.2493 27.9122 64.0658C27.8058 63.8824 27.7496 63.6741 27.7494 63.462C27.7492 63.2499 27.8049 63.0415 27.911 62.8579L29.4545 60.1929C29.6144 59.9146 29.8783 59.7113 30.1881 59.6276C30.498 59.544 30.8283 59.5868 31.1066 59.7467C31.3848 59.9066 31.5881 60.1705 31.6718 60.4803C31.7555 60.7901 31.7127 61.1205 31.5528 61.3988L30.0092 64.0638C29.903 64.2478 29.75 64.4005 29.5658 64.5063C29.3815 64.6122 29.1726 64.6675 28.9601 64.6667ZM41.7666 68.1035C41.4468 68.1035 41.14 67.9764 40.9139 67.7503C40.6877 67.5241 40.5607 67.2174 40.5607 66.8976V63.8105C40.5607 63.4907 40.6877 63.184 40.9139 62.9578C41.14 62.7317 41.4468 62.6046 41.7666 62.6046C42.0864 62.6046 42.3931 62.7317 42.6193 62.9578C42.8454 63.184 42.9725 63.4907 42.9725 63.8105V66.8976C42.9725 67.2174 42.8454 67.5241 42.6193 67.7503C42.3931 67.9764 42.0864 68.1035 41.7666 68.1035ZM54.573 64.6667C54.3606 64.6675 54.1516 64.6122 53.9674 64.5063C53.7831 64.4005 53.6302 64.2478 53.5239 64.0638L51.9804 61.3988C51.8205 61.1205 51.7777 60.7901 51.8613 60.4803C51.945 60.1705 52.1483 59.9066 52.4266 59.7467C52.7048 59.5868 53.0352 59.544 53.345 59.6276C53.6548 59.7113 53.9187 59.9146 54.0786 60.1929L55.6222 62.8579C55.7282 63.0415 55.7839 63.2499 55.7837 63.462C55.7835 63.6741 55.7274 63.8824 55.621 64.0658C55.5146 64.2493 55.3617 64.4015 55.1777 64.5069C54.9937 64.6124 54.7851 64.6675 54.573 64.6667ZM63.9427 55.297C63.7315 55.2985 63.5236 55.2444 63.3398 55.1402L60.6748 53.5967C60.3966 53.4368 60.1932 53.1729 60.1096 52.8631C60.0259 52.5533 60.0687 52.2229 60.2286 51.9446C60.3885 51.6664 60.6524 51.4631 60.9623 51.3794C61.2721 51.2957 61.6024 51.3386 61.8807 51.4985L64.5457 53.042C64.778 53.1736 64.96 53.3787 65.0633 53.6249C65.1665 53.8711 65.1851 54.1447 65.1161 54.4026C65.0472 54.6606 64.8945 54.8883 64.6822 55.0502C64.4698 55.2121 64.2098 55.2989 63.9427 55.297ZM67.3795 42.4905H64.2925C63.9726 42.4905 63.6659 42.3635 63.4398 42.1373C63.2136 41.9112 63.0866 41.6045 63.0866 41.2846C63.0866 40.9648 63.2136 40.6581 63.4398 40.432C63.6659 40.2058 63.9726 40.0788 64.2925 40.0788H67.3795C67.6993 40.0788 68.0061 40.2058 68.2322 40.432C68.4583 40.6581 68.5854 40.9648 68.5854 41.2846C68.5854 41.6045 68.4583 41.9112 68.2322 42.1373C68.0061 42.3635 67.6993 42.4905 67.3795 42.4905ZM61.2778 31.2276C61.0107 31.2295 60.7507 31.1426 60.5383 30.9808C60.326 30.8189 60.1733 30.5912 60.1044 30.3332C60.0354 30.0753 60.054 29.8017 60.1572 29.5555C60.2605 29.3092 60.4425 29.1042 60.6748 28.9726L63.3398 27.4291C63.618 27.2691 63.9484 27.2263 64.2583 27.31C64.5681 27.3937 64.832 27.597 64.9919 27.8752C65.1518 28.1535 65.1946 28.4838 65.1109 28.7937C65.0273 29.1035 64.8239 29.3674 64.5457 29.5273L61.8807 31.0708C61.6969 31.175 61.489 31.229 61.2778 31.2276ZM53.0295 22.9793C52.8174 22.9802 52.6089 22.9251 52.4249 22.8196C52.2409 22.7141 52.088 22.5619 51.9816 22.3785C51.8752 22.195 51.819 21.9868 51.8188 21.7747C51.8186 21.5626 51.8744 21.3542 51.9804 21.1705L53.5239 18.5055C53.6031 18.3678 53.7086 18.2469 53.8345 18.1499C53.9604 18.053 54.1041 17.9817 54.2576 17.9403C54.411 17.8989 54.571 17.888 54.7286 17.9085C54.8862 17.9289 55.0382 17.9802 55.176 18.0593C55.3138 18.1385 55.4346 18.2441 55.5316 18.3699C55.6286 18.4958 55.6998 18.6396 55.7412 18.793C55.7827 18.9464 55.7935 19.1064 55.773 19.264C55.7526 19.4216 55.7013 19.5736 55.6222 19.7114L54.0786 22.3764C53.9724 22.5604 53.8194 22.7131 53.6352 22.819C53.4509 22.9249 53.242 22.9802 53.0295 22.9793Z" stroke="#121212" stroke-width="0.2" mask="url(#path-4-outside-2_56_195)"/>
<path d="M36.0024 48.3047C36.1676 48.3056 36.3314 48.274 36.4843 48.2115C36.6373 48.149 36.7765 48.0569 36.8938 47.9405L36.894 47.9404L40.7407 44.0936C40.9772 43.8572 41.11 43.5365 41.11 43.2021C41.11 42.8677 40.9772 42.547 40.7407 42.3105C40.5043 42.0741 40.1836 41.9413 39.8492 41.9413C39.5148 41.9413 39.1941 42.0741 38.9577 42.3105L35.111 46.1572C35.111 46.1572 35.111 46.1572 35.111 46.1572C34.9933 46.2739 34.8999 46.4128 34.8361 46.5659C34.7724 46.7189 34.7396 46.883 34.7396 47.0488C34.7396 47.2146 34.7724 47.3788 34.8361 47.5318C34.8999 47.6849 34.9933 47.8238 35.111 47.9405C35.2284 48.0569 35.3676 48.149 35.5206 48.2115C35.6735 48.274 35.8372 48.3056 36.0024 48.3047ZM36.0024 48.3047C36.0023 48.3047 36.0022 48.3047 36.0021 48.3047L36.0024 48.2547L36.0027 48.3047C36.0026 48.3047 36.0025 48.3047 36.0024 48.3047ZM43.6839 40.6233C43.8491 40.6242 44.0128 40.5925 44.1657 40.53C44.3188 40.4675 44.4579 40.3754 44.5753 40.259L44.5754 40.2589L54.8964 29.9258C55.0272 29.8135 55.1335 29.6754 55.2086 29.5202C55.284 29.3644 55.3263 29.1946 55.333 29.0217C55.3397 28.8487 55.3105 28.6763 55.2474 28.5151C55.1843 28.3539 55.0885 28.2076 54.9661 28.0852C54.8437 27.9628 54.6973 27.867 54.5362 27.8039C54.375 27.7407 54.2025 27.7116 54.0296 27.7183C53.8566 27.725 53.6869 27.7673 53.5311 27.8427C53.3759 27.9178 53.2378 28.024 53.1254 28.1548L42.7925 38.4757L42.8277 38.5112L42.7924 38.4758L42.7924 38.4758C42.6747 38.5925 42.5813 38.7314 42.5176 38.8844C42.4538 39.0374 42.421 39.2016 42.421 39.3674C42.421 39.5332 42.4538 39.6973 42.5176 39.8503C42.5814 40.0034 42.6748 40.1423 42.7925 40.259C42.9099 40.3754 43.049 40.4675 43.202 40.53C43.355 40.5925 43.5187 40.6242 43.6839 40.6233ZM43.6839 40.6233C43.6838 40.6233 43.6837 40.6233 43.6836 40.6233L43.6839 40.5733L43.6842 40.6233C43.6841 40.6233 43.684 40.6233 43.6839 40.6233Z" fill="#121212" stroke="#121212" stroke-width="0.1"/>
</svg>
