<?xml version="1.0" encoding="utf-8"?>
<!-- Generator: Adobe Illustrator 23.0.1, SVG Export Plug-In . SVG Version: 6.00 Build 0)  -->
<svg version="1.1" id="Layer_1" xmlns="http://www.w3.org/2000/svg" xmlns:xlink="http://www.w3.org/1999/xlink" x="0px" y="0px"
	 viewBox="0 0 101.3 96.3" style="enable-background:new 0 0 101.3 96.3;" xml:space="preserve">
<style type="text/css">
	.st0{clip-path:url(#SVGID_2_);}
	.st1{fill:#121212;stroke:#121212;stroke-width:0.5;}
</style>
<g>
	<defs>
		<rect id="SVGID_1_" x="0.1" y="4" transform="matrix(0.454 -0.891 0.891 0.454 -20.0118 70.8191)" width="95.4" height="95.4"/>
	</defs>
	<clipPath id="SVGID_2_">
		<use xlink:href="#SVGID_1_"  style="overflow:visible;"/>
	</clipPath>
	<g class="st0">
		<path class="st1" d="M45.7,69.3L45.7,69.3C45.7,69.3,45.7,69.3,45.7,69.3c-0.2,0.4-2.2,4.2-10.1,19.7c-0.7,1.5-2,2.6-3.6,3.1
			s-3.2,0.4-4.7-0.4c-1.5-0.7-2.6-2-3.1-3.6c-0.5-1.6-0.4-3.2,0.4-4.7L45.7,69.3z M45.7,69.3c0.3-0.6,0.4-1.4,0.2-2.1
			c-0.2-0.7-0.6-1.3-1.2-1.7L45.7,69.3z M34.5,63.6L34.5,63.6L24.4,83.3l0,0c-0.8,1.5-0.9,3.3-0.4,4.9c0.5,1.6,1.7,3,3.2,3.7
			c1.5,0.8,3.3,0.9,4.9,0.4c1.6-0.5,3-1.7,3.7-3.2c4.1-8.1,6.7-13,8.1-15.9c1.4-2.6,1.9-3.6,1.9-3.8c0,0,0,0,0,0l0,0l0,0
			c0.4-0.7,0.4-1.5,0.2-2.2c-0.2-0.7-0.6-1.3-1.1-1.7l2.1-4.2C60,65.6,74,60,80.1,48c6.8-13.3,1.5-29.7-11.9-36.5
			C54.9,4.7,38.6,10,31.8,23.3c-3,5.8-3.8,12.6-2.1,18.9c1.6,6.3,5.4,11.8,10.7,15.5L38.3,62c-0.7-0.2-1.4-0.2-2.1,0.1
			C35.5,62.3,34.9,62.9,34.5,63.6z M33.5,24.2L33.5,24.2c6.3-12.4,21.5-17.3,33.9-11c12.4,6.3,17.3,21.5,11,33.9
			c-6.3,12.4-21.5,17.3-33.8,11l0,0c-3-1.5-5.6-3.5-7.8-6.1c-2.2-2.5-3.8-5.4-4.8-8.6c-1-3.2-1.4-6.5-1.2-9.8
			C31.1,30.4,32,27.2,33.5,24.2z M45.4,60.6l-2,3.9L40,62.8l2-3.9c0.4,0.2,1.2,0.7,1.7,0.9l0,0l0,0l0,0c0,0,0,0,0.1,0c0,0,0,0,0.1,0
			l0,0C44.3,60.1,45,60.4,45.4,60.6z M28.1,90.2L28.1,90.2c-1.1-0.5-1.9-1.5-2.2-2.6c-0.4-1.1-0.3-2.4,0.3-3.4c0,0,0,0,0,0
			l10.1-19.7l0,0c0.3-0.6,1.1-0.9,1.7-0.6l5.8,2.9c0.6,0.3,0.9,1.1,0.5,1.7c0,0,0,0-0.1,0.1c-0.2,0.3-0.7,1.4-2,3.8
			c-1.5,2.9-4,7.8-8.1,15.8c-0.3,0.5-0.6,1-1.1,1.4c-0.5,0.4-1,0.7-1.5,0.9c-0.6,0.2-1.2,0.3-1.8,0.2C29.2,90.7,28.6,90.5,28.1,90.2
			z"/>
		<path class="st1" d="M46,55.2L46,55.2c10.6,5.4,23.9,1.3,29.5-9.6c5.5-10.8,1.2-24-9.6-29.4l0,0c-10.8-5.5-24-1.2-29.4,9.6
			c-0.3,0.5-0.6,1.1-0.8,1.8c-2,5.1-2.1,10.7-0.2,15.8C37.4,48.4,41.2,52.7,46,55.2z M37.4,28.2L37.4,28.2c0.2-0.5,0.5-1.1,0.7-1.6
			l0,0l0,0c5-9.8,17.1-13.7,26.9-8.7l0,0c9.8,5,13.7,17.1,8.7,26.9c-5.1,10-17.3,13.6-26.9,8.7C38,48.9,33.5,38.1,37.4,28.2z"/>
		<path class="st1" d="M70.2,31.5L70.2,31.5L70.2,31.5c0.1,0.2,0.2,0.4,0.4,0.6s0.5,0.2,0.7,0.1c0.2-0.1,0.4-0.2,0.6-0.4
			c0.1-0.2,0.2-0.5,0.1-0.7h0l0,0c-0.5-2-1.3-3.9-2.3-5.7l0,0c-0.1-0.1-0.1-0.2-0.2-0.3c-0.1-0.1-0.2-0.1-0.3-0.2
			c-0.1,0-0.2,0-0.4,0c-0.1,0-0.2,0.1-0.4,0.1c-0.1,0.1-0.2,0.1-0.3,0.2C68,25.3,68,25.4,68,25.6c0,0.1,0,0.2,0,0.4
			c0,0.1,0.1,0.2,0.1,0.4l0,0C69,27.9,69.7,29.7,70.2,31.5z M45.7,29.3L45.7,29.3L45.7,29.3c-1-0.5-1.4-1.8-0.9-2.8
			c0.5-1,1.7-1.4,2.8-0.9c1,0.5,1.5,1.8,1,2.8c-0.1,0.2-0.1,0.5-0.1,0.7c0.1,0.2,0.2,0.4,0.5,0.6c0.2,0.1,0.5,0.1,0.7,0.1
			s0.4-0.2,0.6-0.5c1-1.9,0.2-4.3-1.8-5.3c-2-1-4.3-0.2-5.3,1.7c-1,1.9-0.2,4.3,1.8,5.3c1,0.5,1.4,1.8,0.9,2.8
			c-0.5,1-1.8,1.4-2.8,0.9c-1-0.5-1.4-1.8-0.9-2.8c0.1-0.2,0.1-0.5,0.1-0.7c-0.1-0.2-0.2-0.4-0.5-0.6c-0.2-0.1-0.5-0.1-0.7-0.1l0,0
			c-0.2,0.1-0.4,0.2-0.6,0.5c-1,1.9-0.2,4.3,1.8,5.3c2,1,4.4,0.3,5.4-1.7C48.5,32.7,47.7,30.4,45.7,29.3z M55,40.4l-4.5-2.3l1.7-3.3
			l4.5,2.3c0.2,0.1,0.5,0.1,0.7,0.1c0.2-0.1,0.4-0.2,0.6-0.5c0.1-0.2,0.1-0.5,0.1-0.7c-0.1-0.2-0.2-0.4-0.5-0.6L53,33.1l1.7-3.3
			l4.5,2.3c0.2,0.1,0.5,0.1,0.7,0.1c0.2-0.1,0.4-0.2,0.6-0.5c0.1-0.2,0.1-0.5,0.1-0.7c-0.1-0.2-0.2-0.4-0.5-0.6l-5.4-2.7
			c-0.2-0.1-0.5-0.1-0.7-0.1c-0.2,0.1-0.4,0.2-0.6,0.5l-5.1,10c-0.1,0.2-0.1,0.5-0.1,0.7c0.1,0.2,0.2,0.4,0.5,0.6l5.4,2.7
			c0.2,0.1,0.5,0.1,0.7,0.1c0.2-0.1,0.3-0.1,0.4-0.3l0,0l0.1-0.2c0.1-0.2,0.1-0.5,0.1-0.7L55.2,41l0.2-0.1
			C55.4,40.7,55.2,40.5,55,40.4z M61.6,45.8L61.6,45.8l0.2,0.1c1.5,0.7,3.2,0.9,4.7,0.4c1.6-0.5,2.8-1.6,3.6-3.1l0,0
			c1.6-3,0.4-6.8-2.7-8.3l0,0c-1.5-0.7-3.2-0.9-4.7-0.4c-1.6,0.5-2.9,1.6-3.6,3.1v0C57.5,40.6,58.7,44.2,61.6,45.8z M66.5,36.6
			c2.1,1.1,2.9,3.7,1.8,5.8c-0.5,1-1.4,1.8-2.5,2.1c-1.1,0.3-2.2,0.3-3.3-0.3c-2.1-1.1-3-3.7-1.9-5.7c0.5-1,1.4-1.8,2.5-2.1
			C64.3,36,65.5,36.1,66.5,36.6z"/>
	</g>
</g>
</svg>
