<svg width="172" height="18" viewBox="0 0 172 18" fill="none" xmlns="http://www.w3.org/2000/svg">
<circle cx="163.2" cy="8.80435" r="8.30435" stroke="#121212"/>
<path d="M1 8.5C0.723858 8.5 0.5 8.72386 0.5 9C0.5 9.27614 0.723858 9.5 1 9.5L1 8.5ZM166.354 9.35357C166.549 9.15831 166.549 8.84172 166.354 8.64646L163.172 5.46448C162.976 5.26922 162.66 5.26922 162.464 5.46448C162.269 5.65974 162.269 5.97632 162.464 6.17159L165.293 9.00001L162.464 11.8284C162.269 12.0237 162.269 12.3403 162.464 12.5355C162.66 12.7308 162.976 12.7308 163.172 12.5355L166.354 9.35357ZM1 9.5L166 9.50001L166 8.50001L1 8.5L1 9.5Z" fill="#121212"/>
</svg>
