<svg width="172" height="18" viewBox="0 0 172 18" fill="none" xmlns="http://www.w3.org/2000/svg">
<circle cx="8.80435" cy="8.80435" r="8.30435" transform="matrix(-1 0 0 1 17.6084 0)" stroke="#121212"/>
<path d="M171.004 8.5C171.281 8.5 171.504 8.72386 171.504 9C171.504 9.27614 171.281 9.5 171.004 9.5L171.004 8.5ZM5.65085 9.35357C5.45558 9.15831 5.45558 8.84172 5.65085 8.64646L8.83282 5.46448C9.02809 5.26922 9.34467 5.26922 9.53993 5.46448C9.73518 5.65974 9.73518 5.97632 9.53993 6.17159L6.7115 9.00001L9.53993 11.8284C9.73518 12.0237 9.73518 12.3403 9.53993 12.5355C9.34467 12.7308 9.02809 12.7308 8.83283 12.5355L5.65085 9.35357ZM171.004 9.5L6.00439 9.50001L6.00439 8.50001L171.004 8.5L171.004 9.5Z" fill="#121212"/>
</svg>
