<svg width="30" height="31" viewBox="0 0 30 31" fill="none" xmlns="http://www.w3.org/2000/svg">
<path d="M13.125 21.2609C12.4637 21.1878 11.8254 21.0384 11.2191 20.8214C11.2395 20.3793 11.2501 19.9182 11.2501 19.4375L11.2502 19.2867C11.2503 19.1351 11.2504 18.9743 11.2497 18.8058C11.8327 19.0828 12.4629 19.2763 13.125 19.371V14.75C13.125 13.1967 14.3842 11.9375 15.9375 11.9375H20.5586C20.1036 8.75722 17.3686 6.3125 14.0625 6.3125C12.9645 6.3125 11.9295 6.58216 11.02 7.05888C10.8638 6.42931 10.6251 5.85464 10.2952 5.32319C11.4291 4.7564 12.7086 4.4375 14.0625 4.4375C18.4055 4.4375 21.9821 7.71879 22.4484 11.9375H25.3125C26.8658 11.9375 28.125 13.1967 28.125 14.75V24.125C28.125 25.6782 26.8658 26.9375 25.3125 26.9375H15.9375C14.3842 26.9375 13.125 25.6782 13.125 24.125V21.2609ZM22.4484 13.8125C22.0163 17.7234 18.9109 20.8288 15 21.2609V24.125C15 24.6427 15.4197 25.0625 15.9375 25.0625H25.3125C25.8302 25.0625 26.25 24.6427 26.25 24.125V14.75C26.25 14.2322 25.8302 13.8125 25.3125 13.8125H22.4484ZM20.5586 13.8125H15.9375C15.4197 13.8125 15 14.2322 15 14.75V19.371C17.8741 18.9599 20.1474 16.6866 20.5586 13.8125ZM8.99055 14.8645C8.79381 14.1414 8.4748 13.4152 7.92807 12.8597C8.81181 12.0183 9.375 10.6847 9.375 9.125C9.375 7.81749 9.11022 6.92053 8.63162 6.20263C8.40244 5.85888 8.14362 5.58582 7.90257 5.35282C7.77503 5.22954 7.67565 5.13789 7.5825 5.05201C7.46766 4.94611 7.3623 4.84899 7.22541 4.71209C6.94397 4.43066 6.91407 4.2056 6.91407 4.08594C6.91407 4.01349 6.92631 3.95465 6.93658 3.91869C6.94007 3.90648 6.94305 3.89793 6.94465 3.89356C7.11825 3.51849 7.02572 3.0722 6.71419 2.79718C6.39552 2.51586 5.92742 2.48416 5.57372 2.71996L5.57042 2.72216L5.5651 2.72576L5.54843 2.73708L5.49255 2.77589C5.44579 2.80878 5.38052 2.85564 5.30095 2.91521C5.14219 3.03403 4.92417 3.20516 4.68133 3.41851C4.21017 3.83251 3.60015 4.44476 3.16618 5.1764C2.80369 5.73819 2.4889 6.43655 2.2633 7.11164C2.03875 7.78357 1.875 8.51435 1.875 9.125C1.875 10.6847 2.4382 12.0183 3.32196 12.8597C2.77521 13.4152 2.45622 14.1414 2.25945 14.8645C1.87476 16.2784 1.8749 18.0213 1.875 19.3706V19.4375C1.875 23.2966 2.59763 25.589 3.41487 26.951C3.82459 27.6339 4.25284 28.0736 4.60999 28.3514C4.78759 28.4894 4.94475 28.5854 5.06916 28.6505C5.13126 28.6831 5.18498 28.7079 5.22876 28.7263C5.22876 28.7263 5.46664 28.8125 5.625 28.8125C5.78337 28.8125 6.02127 28.7263 6.02127 28.7263C6.06503 28.7079 6.11875 28.6831 6.18087 28.6505C6.30527 28.5854 6.46242 28.4894 6.64003 28.3514C6.99717 28.0736 7.42544 27.6339 7.83516 26.951C8.6524 25.589 9.375 23.2966 9.375 19.4375L9.37502 19.3706C9.37512 18.0213 9.37527 16.2784 8.99055 14.8645ZM4.66352 14.1696C4.87343 13.9587 5.15727 13.8125 5.625 13.8125C6.09276 13.8125 6.3766 13.9587 6.58648 14.1696C6.82307 14.4073 7.02803 14.7933 7.18133 15.3568C7.49337 16.5036 7.5 18.0075 7.5 19.4375C7.5 23.0784 6.81638 25.0047 6.22737 25.9865C6.00287 26.3606 5.78922 26.6028 5.625 26.7551C5.46079 26.6028 5.24715 26.3606 5.02266 25.9865C4.43365 25.0047 3.75 23.0784 3.75 19.4375C3.75 18.0075 3.75664 16.5036 4.06868 15.3568C4.222 14.7933 4.42695 14.4073 4.66352 14.1696ZM5.625 11.9375C4.90365 11.9375 3.75 11.1357 3.75 9.125C3.75 8.8001 3.84767 8.28626 4.04162 7.70594C4.2321 7.13594 4.48857 6.58209 4.74951 6.18089C4.75725 6.16899 4.76473 6.15689 4.77193 6.14463C4.93457 5.86777 5.14761 5.59934 5.37567 5.35351C5.50422 5.58331 5.67557 5.8139 5.8996 6.03793C6.03741 6.17574 6.21552 6.34153 6.36754 6.48301C6.45912 6.56827 6.54124 6.64469 6.5994 6.70091C6.7978 6.8927 6.94913 7.05911 7.07151 7.24269C7.29604 7.57949 7.5 8.08878 7.5 9.125C7.5 11.1357 6.34637 11.9375 5.625 11.9375Z" fill="#121212"/>
</svg>
