<svg width="31" height="32" viewBox="0 0 31 32" fill="none" xmlns="http://www.w3.org/2000/svg">
<path d="M21.3583 2.80918H9.11828L9.67797 3.36887V0.74719L9.11828 1.30688H21.3583L20.7986 0.74719V3.36887C20.7986 3.67399 21.0532 3.92856 21.3583 3.92856C21.6634 3.92856 21.918 3.67399 21.918 3.36887V0.74719C21.918 0.442079 21.6634 0.1875 21.3583 0.1875H9.11828C8.81317 0.1875 8.55859 0.442079 8.55859 0.74719V3.36887C8.55859 3.67399 8.81317 3.92856 9.11828 3.92856H21.3583C21.6634 3.92856 21.918 3.67399 21.918 3.36887C21.918 3.06376 21.6634 2.80918 21.3583 2.80918Z" fill="#121212"/>
<path d="M25.3228 25.9542L25.8411 28.3918L25.8975 27.9606C25.8849 27.9809 25.8703 28.0001 25.8559 28.0191C26.0265 27.7947 25.8554 28.0132 25.8023 28.0685C25.7264 28.1478 25.6444 28.2211 25.5595 28.2905C25.4508 28.3793 25.6151 28.2489 25.5841 28.2724C25.5567 28.2932 25.5287 28.3134 25.5006 28.3333C25.4335 28.3806 25.3647 28.4256 25.2946 28.4681C25.1352 28.5653 24.9679 28.6492 24.7968 28.7236C24.99 28.6396 24.8113 28.7167 24.7657 28.7345C24.7159 28.7538 24.6657 28.7722 24.6153 28.7898C24.4981 28.831 24.379 28.8669 24.2592 28.8996C24.138 28.9327 24.0156 28.9607 23.8926 28.9859C23.827 28.9993 23.7612 29.0111 23.6952 29.0224C23.6612 29.0283 23.627 29.0336 23.5929 29.0389C23.4319 29.0639 23.6699 29.03 23.5658 29.0434C23.2395 29.0855 22.9102 29.1022 22.5813 29.1035C22.1909 29.105 21.8006 29.0788 21.4126 29.0363C21.3614 29.0307 21.3104 29.0245 21.2593 29.0183C21.0877 28.9973 21.3732 29.0347 21.1993 29.0105C21.0915 28.9953 20.9839 28.9787 20.8765 28.9608C20.7647 28.9422 20.6532 28.9223 20.5419 28.9011C20.4858 28.8905 20.199 28.8128 20.384 28.8981C20.0105 28.7259 19.5951 28.661 19.1854 28.6683C18.8182 28.675 18.4467 28.746 18.1 28.8654C17.8811 28.9407 17.6672 29.0369 17.4619 29.144C17.2518 29.2536 17.0688 29.3969 16.8696 29.5224C16.6937 29.6332 16.5047 29.7252 16.3153 29.81C16.1827 29.8693 16.4278 29.7646 16.2877 29.8217C16.2446 29.839 16.2013 29.8556 16.1578 29.8717C16.0663 29.9058 15.9732 29.9355 15.8795 29.9633C15.782 29.9923 15.6829 30.0153 15.5834 30.0358C15.5692 30.0388 15.4012 30.0657 15.5289 30.0486C15.4608 30.0577 15.3923 30.0621 15.3238 30.0656C15.2427 30.0697 15.1619 30.065 15.0811 30.059C14.9099 30.0464 15.1914 30.0792 15.0218 30.0529C14.9702 30.0449 14.919 30.0342 14.8679 30.0234C14.6564 29.9792 14.4503 29.9098 14.2493 29.8312C14.1056 29.775 14.3533 29.8774 14.2174 29.8184C14.1793 29.8016 14.1414 29.7843 14.1037 29.7667C14.0376 29.7357 13.9722 29.7033 13.9076 29.6696C13.8242 29.6265 13.7423 29.5805 13.6621 29.5316C13.5205 29.4451 13.3901 29.3397 13.2478 29.2529C13.0264 29.118 12.7906 29.013 12.5509 28.9154C12.1969 28.7714 11.817 28.6984 11.4367 28.6727C10.9962 28.6433 10.5549 28.7188 10.1494 28.8933C10.106 28.9119 10.1552 28.867 10.2106 28.8554C10.0967 28.879 9.98248 28.9012 9.86806 28.9221C9.75806 28.9422 9.64783 28.961 9.53739 28.9785C9.48382 28.987 9.43012 28.995 9.37646 29.0029C9.34125 29.008 9.30603 29.013 9.27079 29.0178C9.33242 29.0095 9.32999 29.0096 9.26346 29.0182C8.86809 29.0684 8.47024 29.0966 8.07174 29.1027C7.73593 29.1077 7.39979 29.0924 7.0659 29.0563C7.02956 29.0524 6.99333 29.0479 6.95706 29.0434C6.82846 29.0275 7.0911 29.0624 6.96458 29.0441C6.89645 29.0343 6.82859 29.0228 6.76079 29.0108C6.62351 28.9862 6.48713 28.9568 6.35189 28.9227C6.12496 28.8659 5.90221 28.7935 5.68522 28.7061C5.64665 28.6906 5.55262 28.6493 5.72619 28.7237C5.70371 28.7141 5.68142 28.7041 5.65909 28.6941C5.61607 28.6746 5.57338 28.6545 5.53103 28.6336C5.44603 28.5921 5.36281 28.5469 5.281 28.4995C5.2134 28.46 5.1471 28.4184 5.08219 28.3746C5.03819 28.345 4.9949 28.3143 4.95238 28.2825C4.86241 28.2158 5.06406 28.3699 5.00042 28.3201C4.91036 28.2496 4.82475 28.1736 4.74408 28.0925C4.69116 28.0395 4.64126 27.9836 4.59459 27.9251C4.55996 27.8814 4.71053 28.0814 4.64234 27.9854C4.63654 27.9773 4.63096 27.9691 4.62558 27.9607L4.682 28.392L5.19995 25.9544C5.24217 25.7556 5.2035 25.5573 5.05603 25.4098C4.90204 25.2558 4.71577 25.2353 4.51147 25.2659C4.1422 25.3212 3.72615 25.3719 3.27248 25.4039C2.93945 25.4274 2.6051 25.4366 2.2714 25.4243C2.14511 25.4195 2.01902 25.4105 1.89334 25.3973C1.86494 25.3944 1.83663 25.3909 1.80833 25.3874C1.99642 25.4105 1.89094 25.3987 1.84942 25.3925C1.79137 25.3837 1.73354 25.3734 1.67598 25.3618C1.58988 25.3445 1.50466 25.323 1.42064 25.2974C1.38394 25.2862 1.34755 25.2739 1.31151 25.2606C1.17156 25.2096 1.44693 25.3235 1.31753 25.264C1.26348 25.239 1.21123 25.2103 1.16117 25.178C1.11601 25.1491 1.01926 25.0721 1.20098 25.2131C1.17959 25.1963 1.15902 25.1785 1.13935 25.1597C1.12397 25.1451 1.10922 25.1297 1.09515 25.1138C1.02419 25.0344 1.19184 25.2449 1.14035 25.1738C1.11881 25.1437 1.1002 25.1117 1.08476 25.0781C1.14294 25.203 1.13456 25.2176 1.11009 25.1238C1.10701 25.1117 1.10438 25.0994 1.10222 25.0871C1.08866 25.0119 1.12432 25.2834 1.11665 25.1916C1.10916 25.1022 1.13609 25.0273 1.09998 25.2453C1.10066 25.2413 1.10136 25.2373 1.10238 25.2334L0.958462 25.4804C1.11361 25.2812 1.22248 25.0686 1.32843 24.8399C1.50619 24.4562 1.66757 24.0646 1.82723 23.6731C2.26759 22.5933 2.67681 21.5008 3.08055 20.407C4.09132 17.6686 5.0544 14.9113 5.96507 12.138C6.4739 10.5883 6.95357 9.03247 7.57368 7.52204C7.59165 7.47826 7.60982 7.43454 7.62799 7.39082C7.6354 7.37294 7.6962 7.22829 7.64343 7.35324C7.67855 7.27005 7.71421 7.18712 7.75003 7.10423C7.82356 6.93441 7.89867 6.76528 7.97535 6.59686C8.10599 6.30956 8.2418 6.02464 8.3827 5.74223C8.59443 5.31763 8.81913 4.89927 9.06102 4.49102C9.18683 4.27869 9.31777 4.0692 9.45683 3.86525C9.50097 3.80052 9.71822 3.51457 9.52223 3.76489L9.12645 3.9288H21.3963L21.0005 3.76489C20.8372 3.55627 20.9236 3.66456 20.9632 3.71903C21.0099 3.78353 21.0554 3.84886 21.0997 3.91498C21.2747 4.17494 21.4368 4.44368 21.5925 4.71553C21.8512 5.16693 22.0892 5.63003 22.3146 6.09886C22.4615 6.40426 22.6017 6.71283 22.7375 7.02328C22.7733 7.10509 22.8086 7.18705 22.8436 7.26916C22.8514 7.28745 22.9109 7.42872 22.8588 7.30463C22.9588 7.54322 23.0562 7.78295 23.1509 8.02375C23.7383 9.51432 24.1969 11.049 24.6997 12.569C25.1626 13.968 25.6407 15.3619 26.1286 16.7524C26.975 19.1642 27.8266 21.5825 28.807 23.9439C29.0219 24.4616 29.2161 25.0334 29.5644 25.4803L29.4204 25.2334C29.4424 25.3197 29.4014 25.0293 29.407 25.1373C29.408 25.1554 29.4074 25.1735 29.4061 25.1916C29.3996 25.2812 29.4306 25.0225 29.4215 25.0812C29.4192 25.0956 29.4163 25.1098 29.4127 25.1238C29.3898 25.2166 29.3801 25.2073 29.438 25.0781C29.4229 25.1118 29.4036 25.1435 29.3824 25.1738C29.332 25.2457 29.4974 25.0333 29.4276 25.1138C29.4135 25.1297 29.3988 25.145 29.3834 25.1597C29.3668 25.1758 29.3492 25.1909 29.3313 25.2055C29.275 25.2516 29.4646 25.1044 29.4051 25.1482C29.3909 25.1586 29.3763 25.1684 29.3616 25.1781C29.3119 25.2108 29.259 25.2386 29.2052 25.264C29.0775 25.3244 29.3389 25.2114 29.2283 25.2542C29.1867 25.27 29.1447 25.2845 29.1021 25.2975C29.0183 25.3237 28.9327 25.344 28.8468 25.3618C28.7979 25.372 28.7486 25.3805 28.6993 25.3885C28.673 25.3928 28.6467 25.3965 28.6203 25.4002C28.8201 25.3718 28.6738 25.3925 28.6294 25.3973C27.958 25.4712 27.2725 25.419 26.6037 25.3444C26.4936 25.332 26.3836 25.3185 26.2738 25.3041C26.3844 25.3184 26.1918 25.2924 26.1911 25.2923C26.1311 25.2838 26.0712 25.2748 26.0113 25.2659C25.7098 25.2207 25.4109 25.3366 25.3228 25.6568C25.2494 25.924 25.4115 26.3 25.7137 26.3453C26.5295 26.4675 27.3558 26.5684 28.1823 26.5461C28.6403 26.5337 29.1293 26.4918 29.5591 26.3206C30.0555 26.1228 30.5458 25.7297 30.5267 25.1412C30.5245 25.0723 30.5156 25.0038 30.5001 24.9366C30.4848 24.8712 30.2328 24.5241 30.4355 24.7918C30.4265 24.7797 30.4179 24.7673 30.4097 24.7547C30.3861 24.7191 30.3649 24.6819 30.3442 24.6445C30.2057 24.3947 30.093 24.1297 29.9801 23.8678C29.9618 23.8253 29.9436 23.7828 29.9255 23.7402C29.9092 23.7017 29.8709 23.6104 29.9445 23.7851C29.9348 23.7623 29.9253 23.7394 29.9157 23.7166C29.8718 23.6116 29.8284 23.5064 29.7854 23.401C29.6924 23.1728 29.6008 22.9441 29.5106 22.7148C29.2958 22.1701 29.0872 21.623 28.8811 21.075C27.8608 18.3606 26.8994 15.6231 25.9794 12.8732C25.488 11.4042 25.0465 9.91678 24.5111 8.46306C24.0189 7.12674 23.4589 5.80773 22.7828 4.55322C22.5178 4.06143 22.2377 3.5682 21.904 3.11879C21.7739 2.94365 21.6445 2.80942 21.3954 2.80942H9.36798C9.19064 2.80942 9.00466 2.79177 8.84408 2.88583C8.68954 2.97637 8.57751 3.17204 8.47724 3.31951C8.30799 3.56849 8.15134 3.82604 8.00055 4.08654C7.37037 5.17521 6.85373 6.3283 6.38474 7.49406C5.78126 8.99409 5.31445 10.5401 4.80875 12.0743C3.89524 14.8458 2.93011 17.6014 1.91672 20.3378C1.52119 21.4059 1.11959 22.4724 0.686261 23.5258C0.666496 23.5739 0.646571 23.6219 0.626614 23.6699C0.607808 23.7151 0.53329 23.8921 0.615964 23.6961C0.577518 23.7872 0.538531 23.8781 0.499005 23.9687C0.436223 24.1128 0.371747 24.2562 0.303913 24.3981C0.256419 24.4974 0.207166 24.5962 0.151933 24.6916C0.134498 24.722 0.115716 24.7516 0.0956439 24.7803C0.068459 24.819 0.0260825 24.8696 0.166932 24.6888C0.093757 24.7827 0.0533953 24.8166 0.0229801 24.9359C0.0225324 24.9376 0.0221806 24.9394 0.0217968 24.9411C-0.0786276 25.431 0.178638 25.8547 0.573971 26.1297C0.870287 26.3358 1.2527 26.4295 1.60492 26.4796C2.27181 26.5744 2.9398 26.5573 3.60931 26.4958C4.01066 26.459 4.41057 26.4049 4.8091 26.3452L4.12062 25.6567L3.63228 27.9549C3.59144 28.1472 3.54343 28.3457 3.66068 28.5281C3.70309 28.5941 3.75506 28.6555 3.80309 28.7166C3.91996 28.8651 4.06106 28.9946 4.20892 29.1116C4.93732 29.6879 5.82195 30.0059 6.73712 30.1335C7.4769 30.2367 8.21643 30.2432 8.95982 30.1716C9.44039 30.1253 9.91904 30.0514 10.3927 29.9583C10.5045 29.9363 10.5959 29.9154 10.7017 29.8656C10.769 29.8339 10.5384 29.9336 10.5983 29.9089C10.6479 29.8884 10.6991 29.8719 10.7506 29.8568C10.8301 29.8334 10.9113 29.8161 10.9928 29.8019C11.035 29.7945 11.136 29.7819 10.9447 29.807C10.9719 29.8035 10.9991 29.8008 11.0263 29.7981C11.0961 29.7912 11.1662 29.7884 11.2363 29.7872C11.3031 29.786 11.37 29.7885 11.4367 29.7921C11.4804 29.7945 11.719 29.8249 11.544 29.7995C11.7251 29.8258 11.9027 29.8724 12.0763 29.9297C12.1208 29.9443 12.1647 29.9608 12.2086 29.9773C12.3585 30.0336 12.1051 29.9298 12.2561 29.9962C12.3522 30.0383 12.4456 30.0865 12.5379 30.1362C12.7311 30.2404 12.9007 30.3747 13.0854 30.4909C13.2778 30.6119 13.4844 30.7118 13.6925 30.8023C14.142 30.9977 14.5914 31.1318 15.0811 31.1784C15.5105 31.2192 15.9601 31.1195 16.3651 30.9831C16.6961 30.8716 17.0202 30.725 17.3248 30.5538C17.5976 30.4003 17.84 30.204 18.1216 30.0619C18.1675 30.0388 18.2143 30.0174 18.2612 29.9962C18.4115 29.9278 18.1597 30.0356 18.309 29.9773C18.3947 29.9438 18.4824 29.9155 18.5705 29.8891C18.6521 29.8647 18.7349 29.8452 18.8181 29.8275C18.8573 29.8194 18.8967 29.812 18.9362 29.8055C19.0411 29.7875 18.8121 29.8179 18.9754 29.8007C19.1088 29.7866 19.2432 29.7843 19.3771 29.7899C19.4347 29.7922 19.4921 29.7975 19.5494 29.8038C19.6564 29.8155 19.4012 29.7822 19.5039 29.7978C19.5353 29.8026 19.5665 29.8085 19.5977 29.8146C19.6719 29.8292 19.7452 29.8479 19.8174 29.8706C19.8897 29.8932 20.0468 29.9638 19.8127 29.8617C20.1744 30.0195 20.6171 30.0516 21.0068 30.1043C22.3326 30.2832 23.7416 30.3042 25.0141 29.8326C25.6265 29.6057 26.2459 29.2705 26.6778 28.7679C26.8667 28.548 26.9827 28.3867 26.9136 28.0616C26.8306 27.6715 26.7477 27.2813 26.6647 26.8911L26.4023 25.6566C26.3388 25.3582 25.9946 25.1885 25.7138 25.2657C25.4068 25.3502 25.2594 25.6561 25.3228 25.9542Z" fill="#121212"/>
<path d="M13.2076 29.4852L13.2843 27.4456L13.4721 22.4511L13.7077 16.1878L13.9276 10.3417L14.0684 6.59921L14.0892 6.04358C14.1007 5.73853 13.826 5.48389 13.5296 5.48389C13.2158 5.48389 12.9813 5.73879 12.9699 6.04358L12.8932 8.08312L12.7053 13.0776L12.4697 19.341L12.2498 25.187C12.196 26.6195 12.1421 28.0527 12.0882 29.4852C12.0767 29.7902 12.3515 30.0449 12.6479 30.0449C12.9617 30.0449 13.1961 29.79 13.2076 29.4852ZM5.19996 25.9535L5.9038 23.3302L7.43572 17.6207C8.12853 15.0387 8.82131 12.4567 9.51405 9.87461C9.59305 9.58012 9.41852 9.26736 9.12313 9.18613C8.83053 9.10566 8.51365 9.28252 8.43465 9.57704L7.73082 12.2003L6.1989 17.9098C5.5061 20.4918 4.81332 23.0738 4.12056 25.6559C4.04156 25.9504 4.21609 26.2631 4.51148 26.3444C4.80408 26.4248 5.12093 26.2479 5.19996 25.9535ZM18.4346 29.4852L18.3579 27.4456L18.1701 22.4511L17.9345 16.1878L17.7146 10.3417L17.5739 6.59921L17.553 6.04358C17.5415 5.73879 17.3071 5.48389 16.9933 5.48389C16.6969 5.48389 16.4222 5.73853 16.4336 6.04358L16.5103 8.08312L16.6981 13.0776L16.9337 19.341L17.1536 25.187C17.2005 26.4345 17.2474 27.682 17.2943 28.9296L17.3152 29.4852C17.3267 29.79 17.5611 30.0449 17.8749 30.0449C18.1713 30.0449 18.446 29.7902 18.4346 29.4852ZM26.4022 25.6559L25.6983 23.0326L24.1664 17.3231L22.6758 11.7675L22.0881 9.57701C22.0091 9.28252 21.6922 9.10563 21.3996 9.18609C21.1043 9.26736 20.9297 9.58008 21.0087 9.87458L21.7125 12.4978L23.2444 18.2073L24.735 23.7629L25.3227 25.9534C25.4018 26.2479 25.7186 26.4248 26.0112 26.3443C26.3066 26.2631 26.4812 25.9503 26.4022 25.6559Z" fill="#121212"/>
</svg>
