<svg width="20" height="34" viewBox="0 0 20 34" fill="none" xmlns="http://www.w3.org/2000/svg">
<path d="M15.3262 9.00356L14.8972 2.17085C14.8573 1.4788 14.3036 0.936523 13.6452 0.936523H7.00111C6.34269 0.936523 5.78901 1.4788 5.74412 2.17085L5.31515 9.00872C4.56694 9.47353 3.88856 10.0313 3.29498 10.6769L1.91828 9.82472C1.80948 9.75754 1.67958 9.73722 1.55647 9.76812C1.43336 9.79903 1.32686 9.87868 1.25985 9.98999L0.172456 11.7821C0.047754 11.9887 0.0826706 12.2624 0.262241 12.4225L1.4494 13.507C0.909896 14.7547 0.631126 16.1064 0.631357 17.4734C0.631357 18.8059 0.895725 20.0815 1.3646 21.2436L0.167468 22.3178C-0.0320546 22.4985 -0.0569952 22.8084 0.112599 23.015L1.42446 24.6367C1.51923 24.7554 1.65391 24.8174 1.79358 24.8174C1.87837 24.8174 1.96317 24.7968 2.03799 24.7503L3.12539 24.0892C3.75887 24.8071 4.49212 25.432 5.30517 25.933L5.73414 32.7657C5.77904 33.4577 6.32772 34 6.99114 34H13.6352C14.2937 34 14.8473 33.4577 14.8872 32.7657L15.3162 25.933C18.1195 24.1977 20 21.0576 20 17.4734C20 13.8892 18.1295 10.744 15.3262 9.00356ZM6.7118 2.23283C6.72178 2.0624 6.84648 1.93328 7.00111 1.93328H13.6452C13.7998 1.93328 13.9245 2.0624 13.9345 2.22766L14.3236 8.45095C13.1015 7.88285 11.7497 7.55748 10.3232 7.55748C8.89658 7.55748 7.53982 7.88285 6.31775 8.45095L6.7118 2.23283ZM1.20997 11.9474L1.8235 10.9299L2.64653 11.4412C2.37219 11.8027 2.12279 12.1798 1.90331 12.5774L1.20997 11.9474ZM1.9083 23.6606L1.16508 22.7413L1.79856 22.168C2.00806 22.5605 2.25248 22.9324 2.50687 23.2939L1.9083 23.6606ZM13.9345 32.6934C13.9245 32.8638 13.7998 32.9929 13.6452 32.9929H7.00111C6.84648 32.9929 6.72178 32.8638 6.7118 32.6985L6.31775 26.4649C7.57666 27.0532 8.94196 27.3578 10.3232 27.3584C11.7497 27.3584 13.1015 27.033 14.3236 26.4649L13.9345 32.6934ZM10.3232 26.3616C5.51467 26.3616 1.59904 22.3694 1.59904 17.4631C1.59904 12.5568 5.50968 8.56457 10.3232 8.56457C15.1317 8.56457 19.0473 12.5568 19.0473 17.4631C19.0473 22.3694 15.1317 26.3616 10.3232 26.3616Z" fill="#121212"/>
<path d="M10.323 9.64844C6.10806 9.64844 2.67627 13.1552 2.67627 17.4624C2.67627 21.7696 6.10806 25.2764 10.323 25.2764C14.5379 25.2764 17.9697 21.7696 17.9697 17.4624C17.9697 13.1552 14.5379 9.64844 10.323 9.64844ZM10.323 24.2745C6.63679 24.2745 3.64395 21.217 3.64395 17.4624C3.64395 13.7078 6.64178 10.6504 10.323 10.6504C14.0091 10.6504 17.002 13.7078 17.002 17.4624C17.002 21.217 14.0042 24.2745 10.323 24.2745Z" fill="#121212"/>
<path d="M7.80415 3.75095H12.8371C13.1065 3.75095 13.3209 3.52887 13.3209 3.24999C13.3209 2.9711 13.1065 2.74902 12.8371 2.74902H7.80415C7.67583 2.74902 7.55276 2.8018 7.46203 2.89575C7.37129 2.9897 7.32031 3.11712 7.32031 3.24999C7.32031 3.38285 7.37129 3.51027 7.46203 3.60422C7.55276 3.69817 7.67583 3.75095 7.80415 3.75095ZM13.3209 5.70831C13.3209 5.42943 13.1065 5.20735 12.8371 5.20735H7.80415C7.5348 5.20735 7.32031 5.42943 7.32031 5.70831C7.32031 5.9872 7.5348 6.20928 7.80415 6.20928H12.8371C13.1065 6.20928 13.3209 5.9872 13.3209 5.70831ZM7.32031 28.9333C7.32031 29.2122 7.5348 29.4343 7.80415 29.4343H12.8371C13.1065 29.4343 13.3209 29.2122 13.3209 28.9333C13.3209 28.6544 13.1065 28.4324 12.8371 28.4324H7.80415C7.53979 28.4324 7.32031 28.6596 7.32031 28.9333ZM12.8371 30.8958H7.80415C7.5348 30.8958 7.32031 31.1179 7.32031 31.3968C7.32031 31.6757 7.5348 31.8978 7.80415 31.8978H12.8371C13.1065 31.8978 13.3209 31.6757 13.3209 31.3968C13.3209 31.1179 13.1065 30.8958 12.8371 30.8958ZM13.0616 17.5145H10.6723V12.8819C10.6723 12.603 10.4578 12.3809 10.1884 12.3809C9.91909 12.3809 9.70461 12.603 9.70461 12.8819V18.0154C9.70461 18.2943 9.91909 18.5164 10.1884 18.5164H13.0616C13.3309 18.5164 13.5454 18.2943 13.5454 18.0154C13.5454 17.7366 13.3309 17.5145 13.0616 17.5145Z" fill="#121212"/>
</svg>
