<svg width="29" height="29" viewBox="0 0 29 29" fill="none" xmlns="http://www.w3.org/2000/svg">
<path d="M3.95729 13.6468V15.2176C3.95729 15.278 3.92708 15.3082 3.86667 15.3082H2.68854C2.5375 14.7041 1.99375 14.2509 1.35938 14.2509C0.604167 14.2509 0 14.8551 0 15.6103C0 16.3655 0.604167 16.9697 1.35938 16.9697C1.99375 16.9697 2.5375 16.5166 2.68854 15.9124H3.86667C4.25938 15.9124 4.56146 15.6103 4.56146 15.2176V13.6468C4.56146 13.5864 4.59167 13.5561 4.65208 13.5561H5.61875C5.95104 14.4322 6.40417 15.278 7.00833 16.0332C7.85417 17.1509 8.57917 18.4801 9.15312 19.9603L9.54583 21.0478C9.7875 21.6822 10.301 22.1957 10.9354 22.4072V23.1926H9.96875C9.7875 23.1926 9.66667 23.3134 9.66667 23.4947C9.66667 23.6759 9.7875 23.7968 9.96875 23.7968H10.9354V24.5822H9.96875C9.7875 24.5822 9.66667 24.703 9.66667 24.8843C9.66667 25.0655 9.7875 25.1864 9.96875 25.1864H10.9354V25.4884C10.9354 26.0926 11.4188 26.6061 12.0531 26.6061H12.5667C12.7177 27.5124 13.5031 28.2072 14.5 28.2072C15.0135 28.2072 15.4969 27.9957 15.8594 27.6332C16.1615 27.3614 16.3427 26.9989 16.4031 26.6061H16.9167C17.5208 26.6061 18.0344 26.1228 18.0344 25.4884V25.1864H19.001C19.1823 25.1864 19.3031 25.0655 19.3031 24.8843C19.3031 24.703 19.1823 24.5822 19.001 24.5822H18.0344V23.7968H19.001C19.1823 23.7968 19.3031 23.6759 19.3031 23.4947C19.3031 23.3134 19.1823 23.1926 19.001 23.1926H18.0344V22.4374C18.699 22.2259 19.2427 21.7124 19.4844 21.0478L19.8771 20.0207C20.0583 19.5374 20.2396 19.0541 20.451 18.6009C20.9042 17.6645 21.4177 16.8186 21.9917 16.0634C22.5958 15.3082 23.049 14.4624 23.3813 13.5561H24.3479C24.4083 13.5561 24.4385 13.5864 24.4385 13.6468V15.2176C24.4385 15.6103 24.7406 15.9124 25.1333 15.9124H26.3115C26.4625 16.5166 27.0063 16.9697 27.6406 16.9697C28.3958 16.9697 29 16.3655 29 15.6103C29 14.8551 28.3958 14.2509 27.6406 14.2509C27.0063 14.2509 26.4625 14.7041 26.3115 15.3082H25.1333C25.0729 15.3082 25.0427 15.278 25.0427 15.2176V13.6468C25.0427 13.2541 24.7406 12.952 24.3479 12.952H23.5625C23.8042 12.0759 23.9552 11.1999 23.9552 10.2634V9.96136H26.3115C26.4625 10.5655 27.0063 11.0186 27.6406 11.0186C28.3958 11.0186 29 10.4145 29 9.65927C29 8.90406 28.3958 8.2999 27.6406 8.2999C26.976 8.2999 26.4625 8.75302 26.3115 9.35719H23.925C23.8344 8.33011 23.5625 7.30302 23.1396 6.36656H24.3479C24.7406 6.36656 25.0427 6.06448 25.0427 5.67177V4.10094C25.0427 4.04052 25.0729 4.01031 25.1333 4.01031H26.3115C26.4625 4.61448 27.0063 5.06761 27.6406 5.06761C28.3958 5.06761 29 4.46344 29 3.70823C29 2.95302 28.3958 2.34886 27.6406 2.34886C27.0063 2.34886 26.4625 2.80198 26.3115 3.40615H25.1333C24.7406 3.40615 24.4385 3.70823 24.4385 4.10094V5.67177C24.4385 5.73219 24.4083 5.7624 24.3479 5.7624H22.8375C22.3542 4.88636 21.75 4.07073 20.9948 3.37594C19.0615 1.56344 16.5542 0.657189 13.926 0.808231C10.5729 1.01969 7.70313 2.95302 6.19271 5.7624H4.68229C4.62188 5.7624 4.59167 5.73219 4.59167 5.67177V4.10094C4.59167 3.70823 4.28958 3.40615 3.89687 3.40615H2.71875C2.56771 2.80198 2.02396 2.34886 1.38958 2.34886C0.604167 2.34886 0 2.95302 0 3.70823C0 4.46344 0.604167 5.06761 1.35938 5.06761C1.99375 5.06761 2.5375 4.61448 2.68854 4.01031H3.86667C3.92708 4.01031 3.95729 4.04052 3.95729 4.10094V5.67177C3.95729 6.06448 4.25938 6.36656 4.65208 6.36656H5.86042C5.4375 7.30302 5.16563 8.2999 5.075 9.35719H2.68854C2.5375 8.75302 1.99375 8.2999 1.35938 8.2999C0.604167 8.2999 0 8.90406 0 9.65927C0 10.4145 0.604167 11.0186 1.35938 11.0186C1.99375 11.0186 2.5375 10.5655 2.68854 9.96136H5.04479C5.01458 10.9884 5.13542 11.9853 5.4375 12.952H4.68229C4.28958 12.952 3.95729 13.2541 3.95729 13.6468ZM1.35938 16.3655C0.936458 16.3655 0.604167 16.0332 0.604167 15.6103C0.604167 15.1874 0.936458 14.8551 1.35938 14.8551C1.78229 14.8551 2.11458 15.1874 2.11458 15.6103C2.11458 16.0332 1.78229 16.3655 1.35938 16.3655ZM27.6406 14.8551C28.0635 14.8551 28.3958 15.1874 28.3958 15.6103C28.3958 16.0332 28.0635 16.3655 27.6406 16.3655C27.2177 16.3655 26.8854 16.0332 26.8854 15.6103C26.8854 15.1874 27.2177 14.8551 27.6406 14.8551ZM27.6406 8.90406C28.0635 8.90406 28.3958 9.23636 28.3958 9.65927C28.3958 10.0822 28.0635 10.4145 27.6406 10.4145C27.2177 10.4145 26.8854 10.0822 26.8854 9.65927C26.8854 9.23636 27.2177 8.90406 27.6406 8.90406ZM27.6406 2.95302C28.0635 2.95302 28.3958 3.28531 28.3958 3.70823C28.3958 4.13115 28.0635 4.46344 27.6406 4.46344C27.2177 4.46344 26.8854 4.13115 26.8854 3.70823C26.8854 3.28531 27.2177 2.95302 27.6406 2.95302ZM1.35938 4.46344C0.936458 4.46344 0.604167 4.13115 0.604167 3.70823C0.604167 3.28531 0.936458 2.95302 1.35938 2.95302C1.78229 2.95302 2.11458 3.28531 2.11458 3.70823C2.11458 4.13115 1.78229 4.46344 1.35938 4.46344ZM12.6875 15.9426H11.6C10.9958 15.9426 10.5125 15.4593 10.5125 14.8551C10.5125 14.2509 10.9958 13.7676 11.6 13.7676C12.2042 13.7676 12.6875 14.2509 12.6875 14.8551V15.9426ZM13.2917 16.5468H15.7083V21.9541H13.2917V16.5468ZM15.4063 27.1801C15.1646 27.4218 14.8323 27.5728 14.4396 27.5728C13.8052 27.5728 13.2917 27.1499 13.1406 26.5759H15.7688C15.7083 26.8176 15.5875 27.0291 15.4063 27.1801ZM17.4 25.4884C17.4 25.7603 17.1885 26.002 16.8865 26.002H12.0229C11.751 26.002 11.5094 25.7905 11.5094 25.4884V25.1864H17.4V25.4884ZM17.4 24.5822H11.5094V23.7968H17.4V24.5822ZM11.5094 23.1926V22.5582H17.4V23.1926H11.5094ZM13.9563 1.4124C14.1375 1.4124 14.3188 1.38219 14.5 1.38219C16.7656 1.38219 18.9104 2.22802 20.5719 3.79886C21.3271 4.49365 21.901 5.30927 22.3542 6.15511C22.3542 6.15511 22.3542 6.18531 22.3844 6.18531C22.9281 7.27281 23.2604 8.45094 23.351 9.65927C23.351 9.84052 23.3813 10.052 23.3813 10.2634C23.3813 11.2603 23.2302 12.227 22.8979 13.1332V13.1634C22.5958 14.0697 22.1125 14.9155 21.5385 15.7009C20.9344 16.4864 20.3906 17.3926 19.9375 18.3593C19.726 18.8124 19.5146 19.3259 19.3333 19.8093L18.9104 20.8364C18.699 21.3801 18.2156 21.803 17.6719 21.9239C17.6115 21.9239 17.551 21.9541 17.4604 21.9541H16.3125V16.5468H17.4C18.3365 16.5468 19.0917 15.7916 19.0917 14.8551C19.0917 13.9186 18.3365 13.1634 17.4 13.1634C16.4635 13.1634 15.7083 13.9186 15.7083 14.8551V15.9426H13.2917V14.8551C13.2917 13.9186 12.5365 13.1634 11.6 13.1634C10.6635 13.1634 9.90833 13.9186 9.90833 14.8551C9.90833 15.7916 10.6635 16.5468 11.6 16.5468H12.6875V21.9541H11.6906C11.5396 21.9541 11.4187 21.9239 11.2677 21.8936C10.724 21.7426 10.2708 21.3499 10.0896 20.8364L9.69687 19.7791C9.12292 18.2082 8.36771 16.8489 7.46146 15.6707C6.1625 13.9791 5.49792 11.8947 5.61875 9.7499C5.89063 5.33948 9.54583 1.68427 13.9563 1.4124ZM16.3125 15.9426V14.8551C16.3125 14.2509 16.7958 13.7676 17.4 13.7676C18.0042 13.7676 18.4875 14.2509 18.4875 14.8551C18.4875 15.4593 18.0042 15.9426 17.4 15.9426H16.3125ZM1.35938 10.4145C0.936458 10.4145 0.604167 10.0822 0.604167 9.65927C0.604167 9.23636 0.936458 8.90406 1.35938 8.90406C1.78229 8.90406 2.11458 9.23636 2.11458 9.65927C2.11458 10.0822 1.78229 10.4145 1.35938 10.4145Z" fill="#121212"/>
</svg>
