<svg width="29" height="31" viewBox="0 0 29 31" fill="none" xmlns="http://www.w3.org/2000/svg">
<path d="M28.0938 29.2778H25.375V0.861111C25.375 0.63273 25.2795 0.413703 25.1096 0.252214C24.9396 0.0907241 24.7091 0 24.4688 0H4.53125C4.2909 0 4.06039 0.0907241 3.89043 0.252214C3.72048 0.413703 3.625 0.63273 3.625 0.861111V29.2778H0.90625C0.665898 29.2778 0.435389 29.3685 0.265435 29.53C0.0954798 29.6915 0 29.9105 0 30.1389C0 30.3673 0.0954798 30.5863 0.265435 30.7478C0.435389 30.9093 0.665898 31 0.90625 31H28.0938C28.3341 31 28.5646 30.9093 28.7346 30.7478C28.9045 30.5863 29 30.3673 29 30.1389C29 29.9105 28.9045 29.6915 28.7346 29.53C28.5646 29.3685 28.3341 29.2778 28.0938 29.2778ZM11.7812 29.2778V24.1111H17.2188V29.2778H11.7812ZM19.0312 29.2778V24.1111H19.9375C20.1779 24.1111 20.4084 24.0204 20.5783 23.8589C20.7483 23.6974 20.8438 23.4784 20.8438 23.25C20.8438 23.0216 20.7483 22.8026 20.5783 22.6411C20.4084 22.4796 20.1779 22.3889 19.9375 22.3889H9.0625C8.82215 22.3889 8.59164 22.4796 8.42168 22.6411C8.25173 22.8026 8.15625 23.0216 8.15625 23.25C8.15625 23.4784 8.25173 23.6974 8.42168 23.8589C8.59164 24.0204 8.82215 24.1111 9.0625 24.1111H9.96875V29.2778H5.4375V1.72222H23.5625V29.2778H19.0312Z" fill="#121212"/>
<path d="M10.083 4.58398H8.24967C8.00656 4.58398 7.7734 4.68056 7.60149 4.85247C7.42958 5.02438 7.33301 5.25754 7.33301 5.50065C7.33301 5.74377 7.42958 5.97692 7.60149 6.14883C7.7734 6.32074 8.00656 6.41732 8.24967 6.41732H10.083C10.3261 6.41732 10.5593 6.32074 10.7312 6.14883C10.9031 5.97692 10.9997 5.74377 10.9997 5.50065C10.9997 5.25754 10.9031 5.02438 10.7312 4.85247C10.5593 4.68056 10.3261 4.58398 10.083 4.58398ZM15.583 4.58398H13.7497C13.5066 4.58398 13.2734 4.68056 13.1015 4.85247C12.9296 5.02438 12.833 5.25754 12.833 5.50065C12.833 5.74377 12.9296 5.97692 13.1015 6.14883C13.2734 6.32074 13.5066 6.41732 13.7497 6.41732H15.583C15.8261 6.41732 16.0593 6.32074 16.2312 6.14883C16.4031 5.97692 16.4997 5.74377 16.4997 5.50065C16.4997 5.25754 16.4031 5.02438 16.2312 4.85247C16.0593 4.68056 15.8261 4.58398 15.583 4.58398ZM21.083 4.58398H19.2497C19.0066 4.58398 18.7734 4.68056 18.6015 4.85247C18.4296 5.02438 18.333 5.25754 18.333 5.50065C18.333 5.74377 18.4296 5.97692 18.6015 6.14883C18.7734 6.32074 19.0066 6.41732 19.2497 6.41732H21.083C21.3261 6.41732 21.5593 6.32074 21.7312 6.14883C21.9031 5.97692 21.9997 5.74377 21.9997 5.50065C21.9997 5.25754 21.9031 5.02438 21.7312 4.85247C21.5593 4.68056 21.3261 4.58398 21.083 4.58398ZM10.083 9.16732H8.24967C8.00656 9.16732 7.7734 9.26389 7.60149 9.4358C7.42958 9.60771 7.33301 9.84087 7.33301 10.084C7.33301 10.3271 7.42958 10.5603 7.60149 10.7322C7.7734 10.9041 8.00656 11.0007 8.24967 11.0007H10.083C10.3261 11.0007 10.5593 10.9041 10.7312 10.7322C10.9031 10.5603 10.9997 10.3271 10.9997 10.084C10.9997 9.84087 10.9031 9.60771 10.7312 9.4358C10.5593 9.26389 10.3261 9.16732 10.083 9.16732ZM15.583 9.16732H13.7497C13.5066 9.16732 13.2734 9.26389 13.1015 9.4358C12.9296 9.60771 12.833 9.84087 12.833 10.084C12.833 10.3271 12.9296 10.5603 13.1015 10.7322C13.2734 10.9041 13.5066 11.0007 13.7497 11.0007H15.583C15.8261 11.0007 16.0593 10.9041 16.2312 10.7322C16.4031 10.5603 16.4997 10.3271 16.4997 10.084C16.4997 9.84087 16.4031 9.60771 16.2312 9.4358C16.0593 9.26389 15.8261 9.16732 15.583 9.16732ZM21.083 9.16732H19.2497C19.0066 9.16732 18.7734 9.26389 18.6015 9.4358C18.4296 9.60771 18.333 9.84087 18.333 10.084C18.333 10.3271 18.4296 10.5603 18.6015 10.7322C18.7734 10.9041 19.0066 11.0007 19.2497 11.0007H21.083C21.3261 11.0007 21.5593 10.9041 21.7312 10.7322C21.9031 10.5603 21.9997 10.3271 21.9997 10.084C21.9997 9.84087 21.9031 9.60771 21.7312 9.4358C21.5593 9.26389 21.3261 9.16732 21.083 9.16732ZM10.083 13.7507H8.24967C8.00656 13.7507 7.7734 13.8472 7.60149 14.0191C7.42958 14.191 7.33301 14.4242 7.33301 14.6673C7.33301 14.9104 7.42958 15.1436 7.60149 15.3155C7.7734 15.4874 8.00656 15.584 8.24967 15.584H10.083C10.3261 15.584 10.5593 15.4874 10.7312 15.3155C10.9031 15.1436 10.9997 14.9104 10.9997 14.6673C10.9997 14.4242 10.9031 14.191 10.7312 14.0191C10.5593 13.8472 10.3261 13.7507 10.083 13.7507ZM15.583 13.7507H13.7497C13.5066 13.7507 13.2734 13.8472 13.1015 14.0191C12.9296 14.191 12.833 14.4242 12.833 14.6673C12.833 14.9104 12.9296 15.1436 13.1015 15.3155C13.2734 15.4874 13.5066 15.584 13.7497 15.584H15.583C15.8261 15.584 16.0593 15.4874 16.2312 15.3155C16.4031 15.1436 16.4997 14.9104 16.4997 14.6673C16.4997 14.4242 16.4031 14.191 16.2312 14.0191C16.0593 13.8472 15.8261 13.7507 15.583 13.7507ZM21.083 13.7507H19.2497C19.0066 13.7507 18.7734 13.8472 18.6015 14.0191C18.4296 14.191 18.333 14.4242 18.333 14.6673C18.333 14.9104 18.4296 15.1436 18.6015 15.3155C18.7734 15.4874 19.0066 15.584 19.2497 15.584H21.083C21.3261 15.584 21.5593 15.4874 21.7312 15.3155C21.9031 15.1436 21.9997 14.9104 21.9997 14.6673C21.9997 14.4242 21.9031 14.191 21.7312 14.0191C21.5593 13.8472 21.3261 13.7507 21.083 13.7507ZM10.083 18.334H8.24967C8.00656 18.334 7.7734 18.4306 7.60149 18.6025C7.42958 18.7744 7.33301 19.0075 7.33301 19.2507C7.33301 19.4938 7.42958 19.7269 7.60149 19.8988C7.7734 20.0707 8.00656 20.1673 8.24967 20.1673H10.083C10.3261 20.1673 10.5593 20.0707 10.7312 19.8988C10.9031 19.7269 10.9997 19.4938 10.9997 19.2507C10.9997 19.0075 10.9031 18.7744 10.7312 18.6025C10.5593 18.4306 10.3261 18.334 10.083 18.334ZM15.583 18.334H13.7497C13.5066 18.334 13.2734 18.4306 13.1015 18.6025C12.9296 18.7744 12.833 19.0075 12.833 19.2507C12.833 19.4938 12.9296 19.7269 13.1015 19.8988C13.2734 20.0707 13.5066 20.1673 13.7497 20.1673H15.583C15.8261 20.1673 16.0593 20.0707 16.2312 19.8988C16.4031 19.7269 16.4997 19.4938 16.4997 19.2507C16.4997 19.0075 16.4031 18.7744 16.2312 18.6025C16.0593 18.4306 15.8261 18.334 15.583 18.334ZM21.083 18.334H19.2497C19.0066 18.334 18.7734 18.4306 18.6015 18.6025C18.4296 18.7744 18.333 19.0075 18.333 19.2507C18.333 19.4938 18.4296 19.7269 18.6015 19.8988C18.7734 20.0707 19.0066 20.1673 19.2497 20.1673H21.083C21.3261 20.1673 21.5593 20.0707 21.7312 19.8988C21.9031 19.7269 21.9997 19.4938 21.9997 19.2507C21.9997 19.0075 21.9031 18.7744 21.7312 18.6025C21.5593 18.4306 21.3261 18.334 21.083 18.334Z" fill="#121212"/>
</svg>
