<svg width="35" height="27" viewBox="0 0 35 27" fill="none" xmlns="http://www.w3.org/2000/svg">
<path d="M33.0066 0.5C32.1318 0.5 31.4131 1.04044 31.1444 1.78061H3.84931C3.58686 1.04044 2.86199 0.5 1.98715 0.5C0.89359 0.5 0 1.34004 0 2.36805V24.6319C0 25.66 0.89359 26.5 1.98715 26.5C3.0807 26.5 3.97429 25.66 3.97429 24.6319V16.5253H11.298L9.14837 22.3762H8.65471C7.44242 22.3762 6.46135 23.3043 6.46135 24.4381C6.46135 25.5718 7.44867 26.5 8.65471 26.5H26.3453C27.5576 26.5 28.5387 25.5718 28.5387 24.4381C28.5387 23.3043 27.5513 22.3762 26.3453 22.3762H25.8516L23.702 16.5253H31.0257V24.6319C31.0257 25.66 31.9193 26.5 33.0129 26.5C34.1064 26.5 35 25.66 35 24.6319V2.36805C35 1.34004 34.1064 0.5 33.0129 0.5H33.0066ZM3.97429 8.45978H14.26L13.7538 9.84026H3.97429V8.45978ZM15.1598 9.61704H19.834L20.5526 11.5732H14.4412L15.1598 9.61704ZM19.4028 8.44216H15.591L16.5658 5.78694C16.7033 5.41686 17.0782 5.16426 17.4969 5.16426C17.9156 5.16426 18.2905 5.41686 18.428 5.78694L19.4028 8.44216ZM13.0539 15.3446L14.01 12.7481H20.99L21.9461 15.3446H13.0539ZM22.3773 16.5194L23.3271 19.0983H11.6729L12.6227 16.5194H22.3773ZM20.7338 8.45978H31.0195V9.84026H21.24L20.7338 8.45978ZM31.0195 7.28491H20.3026L19.609 5.40511C19.2966 4.5592 18.4467 3.98938 17.4969 3.98938C16.547 3.98938 15.6972 4.5592 15.3848 5.40511L14.6911 7.28491H3.97429V2.94962H31.0195V7.28491ZM2.72451 24.6319C2.72451 25.0138 2.39332 25.3251 1.98715 25.3251C1.58097 25.3251 1.24978 25.0138 1.24978 24.6319V2.36805C1.24978 1.98622 1.58097 1.67488 1.98715 1.67488C2.39332 1.67488 2.72451 1.98622 2.72451 2.36805V24.6319ZM3.97429 15.3504V11.0151H13.3226L11.7292 15.3504H3.97429ZM27.2889 24.4381C27.2889 24.9257 26.864 25.3251 26.3453 25.3251H8.64846C8.1298 25.3251 7.70487 24.9257 7.70487 24.4381C7.70487 23.9505 8.1298 23.5511 8.64846 23.5511H26.339C26.8577 23.5511 27.2826 23.9505 27.2826 24.4381H27.2889ZM10.4731 22.3762L11.2417 20.279H23.7583L24.5269 22.3762H10.4669H10.4731ZM23.2708 15.3504L21.6774 11.0151H31.0257V15.3504H23.2708ZM33.7502 24.6319C33.7502 25.0138 33.419 25.3251 33.0129 25.3251C32.6067 25.3251 32.2755 25.0138 32.2755 24.6319V2.36805C32.2755 1.98622 32.6067 1.67488 33.0129 1.67488C33.419 1.67488 33.7502 1.98622 33.7502 2.36805V24.6319Z" fill="#121212"/>
<path d="M6.72987 5.71101H10.2667C10.6104 5.71101 10.8916 5.44666 10.8916 5.12357C10.8916 4.80048 10.6104 4.53613 10.2667 4.53613H6.72987C6.38618 4.53613 6.10498 4.80048 6.10498 5.12357C6.10498 5.44666 6.38618 5.71101 6.72987 5.71101ZM24.7267 5.71101H28.2635C28.6072 5.71101 28.8884 5.44666 28.8884 5.12357C28.8884 4.80048 28.6072 4.53613 28.2635 4.53613H24.7267C24.383 4.53613 24.1018 4.80048 24.1018 5.12357C24.1018 5.44666 24.383 5.71101 24.7267 5.71101ZM10.2667 12.5958H6.72987C6.38618 12.5958 6.10498 12.8601 6.10498 13.1832C6.10498 13.5063 6.38618 13.7707 6.72987 13.7707H10.2667C10.6104 13.7707 10.8916 13.5063 10.8916 13.1832C10.8916 12.8601 10.6104 12.5958 10.2667 12.5958ZM28.2635 12.5958H24.7267C24.383 12.5958 24.1018 12.8601 24.1018 13.1832C24.1018 13.5063 24.383 13.7707 24.7267 13.7707H28.2635C28.6072 13.7707 28.8884 13.5063 28.8884 13.1832C28.8884 12.8601 28.6072 12.5958 28.2635 12.5958Z" fill="#121212"/>
</svg>
