<svg width="34" height="26" viewBox="0 0 34 26" fill="none" xmlns="http://www.w3.org/2000/svg">
<path d="M17.0001 1.69141C14.8706 1.69141 12.789 2.31977 11.0184 3.49702C9.24786 4.67428 7.86787 6.34756 7.05297 8.30527C6.23806 10.263 6.02485 12.4172 6.44028 14.4955C6.85572 16.5738 7.88114 18.4828 9.38689 19.9812C10.8926 21.4795 12.8111 22.4999 14.8996 22.9133C16.9881 23.3267 19.1529 23.1145 21.1203 22.3036C23.0876 21.4927 24.7692 20.1195 25.9522 18.3576C27.1353 16.5957 27.7667 14.5243 27.7667 12.4053C27.7636 9.56476 26.6282 6.84146 24.6098 4.83289C22.5913 2.82433 19.8546 1.69454 17.0001 1.69141ZM17.0001 21.9914C15.0948 21.9914 13.2323 21.4292 11.6481 20.3759C10.0639 19.3225 8.82915 17.8254 8.10003 16.0737C7.37091 14.3221 7.18013 12.3947 7.55184 10.5351C7.92354 8.67561 8.84103 6.96753 10.1883 5.62689C11.5355 4.28625 13.252 3.37326 15.1207 3.00338C16.9894 2.6335 18.9263 2.82333 20.6866 3.54888C22.4468 4.27443 23.9514 5.50311 25.0099 7.07954C26.0684 8.65596 26.6334 10.5093 26.6334 12.4053C26.6306 14.9468 25.6147 17.3834 23.8087 19.1806C22.0027 20.9777 19.5541 21.9886 17.0001 21.9914Z" fill="#121212"/>
<path d="M6.23333 6.20278V0.563889H5.1V5.63889H4.53333V0.563889H3.4V5.63889H2.83333V0.563889H1.7V5.63889H1.13333V0.563889H0V9.02222C0.000428824 9.37199 0.10958 9.71306 0.312485 9.99866C0.515389 10.2843 0.802112 10.5004 1.13333 10.6175V23.6833C1.13333 24.132 1.31244 24.5623 1.63125 24.8795C1.95006 25.1968 2.38247 25.375 2.83333 25.375H3.4C3.85087 25.375 4.28327 25.1968 4.60208 24.8795C4.92089 24.5623 5.1 24.132 5.1 23.6833V10.6175C5.43122 10.5004 5.71794 10.2843 5.92085 9.99866C6.12375 9.71306 6.2329 9.37199 6.23333 9.02222V6.20278ZM5.1 9.02222C5.1 9.17177 5.0403 9.3152 4.93403 9.42095C4.82776 9.5267 4.68362 9.58611 4.53333 9.58611C4.38304 9.58611 4.23891 9.64552 4.13264 9.75127C4.02637 9.85702 3.96667 10.0004 3.96667 10.15V23.6833C3.96667 23.8329 3.90696 23.9763 3.80069 24.0821C3.69442 24.1878 3.55029 24.2472 3.4 24.2472H2.83333C2.68304 24.2472 2.53891 24.1878 2.43264 24.0821C2.32637 23.9763 2.26667 23.8329 2.26667 23.6833V10.15C2.26667 10.0004 2.20696 9.85702 2.10069 9.75127C1.99442 9.64552 1.85029 9.58611 1.7 9.58611C1.54971 9.58611 1.40558 9.5267 1.29931 9.42095C1.19304 9.3152 1.13333 9.17177 1.13333 9.02222V6.76667H5.1V9.02222ZM33.4333 0C32.0812 0.00149253 30.7849 0.536658 29.8287 1.48808C28.8726 2.43951 28.3348 3.72948 28.3333 5.075V12.4056C28.3333 12.8542 28.5124 13.2845 28.8313 13.6017C29.1501 13.919 29.5825 14.0972 30.0333 14.0972V24.8111C30.0333 24.9607 30.093 25.1041 30.1993 25.2098C30.3056 25.3156 30.4497 25.375 30.6 25.375H33.4333C33.5836 25.375 33.7278 25.3156 33.834 25.2098C33.9403 25.1041 34 24.9607 34 24.8111V0.563889C34 0.414336 33.9403 0.270909 33.834 0.165159C33.7278 0.0594097 33.5836 0 33.4333 0ZM32.8667 24.2472H31.1667V13.5333C31.1667 13.3838 31.107 13.2404 31.0007 13.1346C30.8944 13.0289 30.7503 12.9694 30.6 12.9694H30.0333C29.883 12.9694 29.7389 12.91 29.6326 12.8043C29.5264 12.6985 29.4667 12.5551 29.4667 12.4056V5.075C29.4679 4.12611 29.812 3.2093 30.4362 2.49197C31.0604 1.77463 31.9231 1.30465 32.8667 1.16781V24.2472Z" fill="#121212"/>
<path d="M31.1665 3.3833H30.0332V11.8416H31.1665V3.3833Z" fill="#121212"/>
<path d="M16.9997 6.7666C15.8789 6.7666 14.7833 7.09732 13.8514 7.71693C12.9196 8.33654 12.1933 9.21721 11.7644 10.2476C11.3355 11.278 11.2232 12.4117 11.4419 13.5056C11.6605 14.5994 12.2002 15.6042 12.9927 16.3928C13.7852 17.1814 14.7949 17.7185 15.8942 17.936C16.9934 18.1536 18.1328 18.0419 19.1682 17.6151C20.2037 17.1883 21.0887 16.4656 21.7113 15.5383C22.334 14.611 22.6663 13.5208 22.6663 12.4055C22.6647 10.9105 22.0671 9.47715 21.0048 8.42001C19.9424 7.36287 18.5021 6.76824 16.9997 6.7666ZM16.9997 16.9166C16.1031 16.9166 15.2266 16.652 14.4811 16.1563C13.7356 15.6607 13.1545 14.9561 12.8114 14.1318C12.4683 13.3075 12.3785 12.4005 12.5535 11.5254C12.7284 10.6503 13.1601 9.84654 13.7941 9.21565C14.4281 8.58476 15.2359 8.15512 16.1153 7.98106C16.9946 7.807 17.9061 7.89633 18.7345 8.23777C19.5629 8.5792 20.2709 9.1574 20.769 9.89925C21.2671 10.6411 21.533 11.5133 21.533 12.4055C21.5317 13.6015 21.0536 14.7481 20.2037 15.5938C19.3539 16.4396 18.2016 16.9153 16.9997 16.9166Z" fill="#121212"/>
</svg>
