<svg width="30" height="31" viewBox="0 0 30 31" fill="none" xmlns="http://www.w3.org/2000/svg">
<path d="M26.4845 0.5C25.584 0.5 24.6857 0.847092 23.9986 1.53659L18.2106 7.3152L4.15338 4.8152L0.837242 8.13133L13.22 12.3129L6.08818 19.4775L3.31613 18.8959L0 22.212L5.8349 24.6651L8.29034 30.5L11.6112 27.1839L11.0436 24.4353L18.2083 17.2706L22.4179 29.6299L25.734 26.3138L23.2458 12.2355L28.9704 6.51079C29.2979 6.18441 29.5577 5.79661 29.735 5.36962C29.9123 4.94263 30.0035 4.48484 30.0035 4.02251C30.0035 3.56018 29.9123 3.1024 29.735 2.67541C29.5577 2.24842 29.2979 1.86062 28.9704 1.53424C28.6444 1.20707 28.257 0.947498 27.8304 0.770419C27.4038 0.593341 26.9464 0.499895 26.4845 0.5Z" stroke="#121212" stroke-width="1.5" stroke-linecap="round" stroke-linejoin="round"/>
</svg>
