<svg width="28" height="35" viewBox="0 0 28 35" fill="none" xmlns="http://www.w3.org/2000/svg">
<path d="M10.165 21.8184H9.27391L9.42605 22.6964C9.80493 24.883 11.707 26.5628 14 26.5628C16.2932 26.5628 18.1951 24.883 18.5739 22.6964L18.7261 21.8184H17.8349H10.165Z" stroke="#121212" stroke-width="1.5"/>
<path d="M25.8765 22.244V21.373L25.8375 21.3788C26.3744 21.0436 26.75 20.4709 26.75 19.7756V17.7182C26.75 17.0484 26.4056 16.4965 25.9058 16.1578L25.9856 15.3441C26.0216 14.9772 26.0357 14.6206 26.0357 14.2623C26.0357 9.45135 23.191 5.15549 18.8528 3.2517L17.8695 2.82018L17.8028 3.89193L17.3185 11.6812L17.3185 11.6814C17.2628 12.5807 16.5222 13.2735 15.6519 13.2735H12.3478C11.4776 13.2735 10.7369 12.5807 10.6813 11.6815L10.6813 11.6812L10.197 3.89193L10.1303 2.8202L9.14705 3.25169C4.80869 5.15548 1.96397 9.45135 1.96397 14.2623C1.96397 14.6206 1.97805 14.9772 2.01405 15.3441L2.09375 16.1562C1.59277 16.4951 1.25 17.0483 1.25 17.7182V19.7756C1.25 20.4697 1.62238 21.0429 2.15912 21.3785L2.1232 21.3731V22.244V23.624C2.1232 24.2833 2.57997 24.843 3.20582 24.9962L3.21095 24.9974L5.42325 25.5224L4.23856 27.4435L4.23818 27.4441C3.89569 28.0007 3.98505 28.7151 4.43158 29.1754L4.43154 29.1755L4.43808 29.182L6.79996 31.5574L6.80157 31.559C7.2643 32.0215 7.99105 32.1095 8.54779 31.7666L8.55088 31.7647L10.4789 30.5645L10.9929 32.7477C11.1383 33.4008 11.7193 33.8486 12.3677 33.8486H15.6984C16.3428 33.8486 16.9253 33.405 17.0725 32.7573L17.6046 30.5332L19.5025 31.7121L19.5052 31.7137C20.0633 32.0573 20.7832 31.9673 21.2447 31.5058L21.2462 31.5042L23.5975 29.1396C24.0671 28.679 24.1475 27.9565 23.8082 27.4047C23.8081 27.4046 23.8081 27.4045 23.808 27.4043L22.6062 25.4407L24.79 24.9174C25.4332 24.7636 25.8765 24.1961 25.8765 23.5444V22.244ZM18.4906 21.7012L18.4535 22.2242C18.2885 24.5509 16.3473 26.3905 13.9998 26.3905C11.6464 26.3905 9.71125 24.5515 9.54635 22.2242L9.5093 21.7012H18.4906Z" stroke="#121212" stroke-width="1.5"/>
<path d="M12.3508 13.4479H15.6497C16.6278 13.4479 17.4318 12.6603 17.492 11.6911L18.0003 3.5102C18.0699 2.38982 17.3527 1.15234 16.0629 1.15234H11.9376C10.6478 1.15234 9.93057 2.38982 10.0002 3.5102L10.5085 11.6911C10.5687 12.6603 11.3726 13.4479 12.3508 13.4479Z" stroke="#121212" stroke-width="1.5"/>
</svg>
